<svg viewBox="-60 154.8 2430 1490.4" xmlns="http://www.w3.org/2000/svg" overflow="visible" xmlns:xlink="http://www.w3.org/1999/xlink" width="2250px" height="1380px"><rect id="Blush Background Color" fill="#000000" x="-60" y="154.8" width="2430" height="1490.4"/><g id="Master/Scenes/Mobile" stroke="none" stroke-width="1" fill="none" fill-rule="evenodd"><g id="Big Plants" transform="translate(694.000000, 836.000000) scale(-1, 1) translate(-694.000000, -836.000000) translate(162.000000, 156.000000) scale(1 1)"><g id="Big Plants/2" stroke="none" stroke-width="1" fill="none" fill-rule="evenodd"><g id="leafs" transform="translate(-81.000000, 281.000000)"><path d="M148.467994,1067 C148.467994,1067 78.3688885,980.125601 112.368002,884.85615 C139.791555,808.001652 213.377315,786.980171 215.844208,722.246452 C218.952154,640.61896 137.053855,651.844803 124.095263,551.057637 C114.026702,472.736966 161.932235,400.706238 158.779859,359.050448 C154.008982,296.030436 46.2971673,263.326124 9.31281761,168.55386 C-37.5793011,48.3954505 108.407433,20.9486243 173.433117,61.5825366 C255.054262,112.589669 257.81312,188.693098 293.593643,234.495638 C334.229671,286.516185 461.431207,298.196901 479.69383,426.456282 C491.275108,507.802387 443.771556,578.483306 466.159771,647.353197 C482.791198,698.508428 582.078341,721.093402 602.974996,834.134635 C625.466879,955.816341 534.752506,1067 534.752506,1067 L148.467994,1067 Z" id="Fill-4" stroke="#FFF" stroke-width="11" transform="translate(303.376301, 555.500000) scale(-1, 1) translate(-303.376301, -555.500000)"/><path d="M896.714358,462.606118 C973.95827,447.493062 1116.69209,459.247068 1138.52147,482.756858 C1162.97549,509.092233 1101.62171,654.468481 1072.18335,666.245604 C1028.02136,666.245604 954.421014,657.413206 966.196359,680.965674 C977.971703,704.518141 1016.24602,733.95828 1016.24602,748.67835 C1016.24602,763.39842 989.748826,857.608289 957.363961,863.494183 C924.980875,869.383633 845.491076,842.886441 842.54635,863.494183 C839.603403,884.103703 883.763613,910.600895 886.708338,934.153363 C889.651285,957.70583 845.491076,1022.47378 657.071338,1078.41111 L495.150571,1078.41111 C495.150571,1078.41111 465.710431,875.271305 536.366055,789.895612 C592.305165,810.503354 615.857632,813.446301 615.857632,813.446301 C615.857632,813.446301 609.968181,698.62869 630.575923,648.580809 C651.185444,598.531149 679.007407,555.164024 715.357693,554.963086 C742.596401,554.813716 800.977001,607.477352 812.752346,586.867832 C824.52769,566.26009 798.435931,481.833964 896.714358,462.606118" id="Fill-1" fill="#FFF"/><path d="M960.988854,1.14011099 C994.627361,4.98461338 1026.48943,257.882453 913.439366,287.256799 C871.603284,298.127032 802.718764,318.731217 840.189325,360.36636 C859.274915,381.569804 935.937351,405.356996 955.131411,448.009278 C969.751901,480.493723 932.466274,579.069112 876.409801,604.728764 C812.226883,634.104888 751.554163,621.328408 746.171504,660.785237 C740.792401,700.242065 834.120275,724.866797 839.88525,778.68983 C843.941361,816.519592 780.967629,955.16885 574.326515,1072.02607 C452.365811,1072.02607 350.161084,1070.23185 350.161084,1070.23185 C350.161084,1070.23185 251.799082,914.533064 226.690676,731.593787 C201.580491,548.65451 240.320699,484.645857 308.554393,476.05174 C344.918904,471.471056 415.069515,523.990658 450.240843,513.716127 C479.558286,505.150462 441.981031,406.519949 441.981031,336.572055 C441.981031,266.62594 460.241529,203.936723 489.69945,189.086843 C513.420848,177.130121 583.927101,229.669283 607.243066,240.429266 C630.560809,251.191028 676.374758,262.336884 685.146697,238.537244 C695.924462,209.285596 657.273165,132.813429 686.106933,89.563666 C722.154922,35.4881259 884.155709,-7.64071824 960.988854,1.14011099" id="Fill-5" fill="#D3E2F2"/><path d="M911.612373,76.0982196 C913.005601,77.4381419 913.048814,79.653798 911.708892,81.0470259 L910.464699,82.3573082 C909.842566,83.0167126 909.152484,83.7527953 908.395909,84.5649496 L906.794535,86.2905078 C902.941831,90.4567349 898.497029,95.3614014 893.507333,100.984848 L892.823547,101.756135 C878.074813,118.406188 861.671316,137.807205 844.018135,159.790386 L842.889643,161.197073 C791.21239,225.677668 739.531268,298.761717 691.29737,379.008557 C630.863001,479.553346 580.225714,584.224232 542.600585,691.673591 C498.267514,818.279406 473.360117,944.983411 471.079998,1070.44518 C471.044879,1072.37786 469.44966,1073.91613 467.516983,1073.88216 C465.584305,1073.84588 464.046034,1072.25066 464.079998,1070.31798 C466.375592,944.068326 491.426077,816.636432 535.993919,689.36016 C573.786672,581.432101 624.629691,476.335952 685.297751,375.402371 C733.164813,295.765838 784.411059,223.164027 835.698593,158.979742 L837.427397,156.819417 C854.827515,135.108319 871.039127,115.8712 885.68258,99.2656237 L887.583671,97.1146155 C891.963322,92.1703664 895.938159,87.762122 899.477787,83.902504 L901.65519,81.5379158 C902.509335,80.614263 903.297957,79.7663417 904.019599,78.9947567 L906.663567,76.1947382 C908.003489,74.8015102 910.219145,74.7582973 911.612373,76.0982196 Z" id="Stroke-10" fill="#FFF" fill-rule="nonzero"/></g></g></g><g id="Background" transform="translate(57.000000, 210.000000)"><g id="Plant" transform="translate(1692.500000, 876.000000) scale(-1, 1) translate(-1692.500000, -876.000000) translate(1370.000000, 449.000000) scale(1 1)"><g id="Plant/Plant 4" stroke="none" stroke-width="1" fill="none" fill-rule="evenodd"><g id="Group" transform="translate(103.000000, 370.000000)"><path d="M141.072873,483.530551 C141.072873,483.530551 126.604873,455.502551 155.608873,411.304551 C217.020873,317.724551 117.704873,362.860551 95.7348733,298.951551 C77.8208733,246.843551 107.645873,194.195551 77.6968733,180.246551 C28.6728733,157.414551 -22.4311267,123.755551 10.3938733,85.6725509 C33.4258733,58.9505509 112.765873,61.3605509 143.875873,143.593551 C163.342873,195.052551 240.052873,160.724551 308.112873,242.246551 C328.382873,266.524551 372.895873,369.272551 349.537873,483.530551 L141.072873,483.530551 Z" id="Leaf-1" fill="#141414"/><g id="Leaf-2" transform="translate(152.315615, 0.000000)"><path d="M70.0834586,483.530551 C70.0834586,483.530551 36.9504586,442.468551 53.0204586,397.438551 C65.9824586,361.112551 100.763459,351.176551 101.929459,320.579551 C103.398459,281.997551 64.6884586,287.303551 58.5634586,239.665551 C53.8044586,202.646551 76.4474586,168.600551 74.9574586,148.911551 C72.7024586,119.124551 21.7914586,103.666551 4.3104586,58.8715509 C-17.8535414,2.07755094 51.1484586,-10.8954491 81.8834586,8.31055094 C120.462459,32.4195509 121.766459,68.3905509 138.678459,90.0395509 C157.885459,114.627551 218.008459,120.148551 226.640459,180.771551 C232.114459,219.220551 209.661459,252.628551 220.243459,285.180551 C228.104459,309.359551 275.033459,320.034551 284.910459,373.464551 C295.541459,430.978551 252.664459,483.530551 252.664459,483.530551 L70.0834586,483.530551 Z" id="Fill-4" fill="#FFB500"/><path d="M166.160559,483.530551 L170.209559,483.530551 C171.662559,474.144551 184.400559,385.434551 165.580559,279.778551 C149.372559,188.786551 100.252559,103.722551 59.6885586,54.4565509 C58.9865586,53.6035509 57.7275586,53.4815509 56.8735586,54.1835509 C56.0205586,54.8855509 55.8985586,56.1465509 56.6005586,56.9995509 C78.8145586,83.9785509 100.812559,118.488551 118.542559,154.172551 C139.552559,196.455551 154.455559,240.132551 161.642559,280.479551 C180.955559,388.898551 166.842559,479.311551 166.160559,483.530551" id="Fill-6" fill="#070707"/></g></g></g></g><g id="Phone" transform="translate(810.000000, 0.000000) scale(1 1)"><g id="Phone/Screen 1" stroke="none" stroke-width="1" fill="none" fill-rule="evenodd"><g id="mobile-frame"><rect id="mobile" stroke="#141414" stroke-width="24" fill="#FFF" x="12" y="12" width="642" height="1279" rx="81"/><g id="Info-Cards" transform="translate(79.000000, 160.000000)"><g id="Info-Card"><polygon id="Bg" fill="#FFF" points="2 207.069 506.868 207.069 506.868 2 2 2"/><path d="M506.868,-2.27373675e-13 L2,-2.27373675e-13 C0.8954305,-2.27373675e-13 -6.82121026e-13,0.8954305 -6.82121026e-13,2 L-6.82121026e-13,207.069 C-6.82121026e-13,208.173569 0.8954305,209.069 2,209.069 L506.868,209.069 C507.972569,209.069 508.868,208.173569 508.868,207.069 L508.868,2 C508.868,0.8954305 507.972569,-2.27373675e-13 506.868,-2.27373675e-13 Z M504.868,3.999 L504.868,205.068 L4,205.068 L4,3.999 L504.868,3.999 Z" id="Border" fill="#141414" fill-rule="nonzero"/><polygon id="Place-Holder" fill="#FF4B33" points="44.906 162.975 166.851 162.975 166.851 41.975 44.906 41.975"/><path d="M318.2905,136.2854 C322.708778,136.2854 326.2905,139.867122 326.2905,144.2854 C326.2905,148.620314 322.842662,152.149943 318.539679,152.281593 L318.2905,152.2854 L198.5835,152.2854 C194.165222,152.2854 190.5835,148.703678 190.5835,144.2854 C190.5835,139.950486 194.031338,136.420857 198.334321,136.289207 L198.5835,136.2854 L318.2905,136.2854 Z M370.5225,95.9866 C374.940778,95.9866 378.5225,99.568322 378.5225,103.9866 C378.5225,108.321514 375.074662,111.851143 370.771679,111.982793 L370.5225,111.9866 L198.5835,111.9866 C194.165222,111.9866 190.5835,108.404878 190.5835,103.9866 C190.5835,99.6516857 194.031338,96.1220571 198.334321,95.9904068 L198.5835,95.9866 L370.5225,95.9866 Z M423.8285,55.6878 C428.246778,55.6878 431.8285,59.269522 431.8285,63.6878 C431.8285,68.0227143 428.380662,71.5523429 424.077679,71.6839932 L423.8285,71.6878 L198.5835,71.6878 C194.165222,71.6878 190.5835,68.106078 190.5835,63.6878 C190.5835,59.3528857 194.031338,55.8232571 198.334321,55.6916068 L198.5835,55.6878 L423.8285,55.6878 Z" id="Text" fill="#D3E2F2" fill-rule="nonzero"/></g><g id="Info-Card-2" transform="translate(0.000000, 257.940000)"><polygon id="Bg" fill="#FFF" points="2 207.069 506.868 207.069 506.868 2 2 2"/><path d="M506.868,-2.27373675e-13 L2,-2.27373675e-13 C0.8954305,-2.27373675e-13 -6.82121026e-13,0.8954305 -6.82121026e-13,2 L-6.82121026e-13,207.069 C-6.82121026e-13,208.173569 0.8954305,209.069 2,209.069 L506.868,209.069 C507.972569,209.069 508.868,208.173569 508.868,207.069 L508.868,2 C508.868,0.8954305 507.972569,-2.27373675e-13 506.868,-2.27373675e-13 Z M504.868,3.999 L504.868,205.068 L4,205.068 L4,3.999 L504.868,3.999 Z" id="Border" fill="#141414" fill-rule="nonzero"/><polygon id="Place-Holder" fill="#13D6C3" points="44.906 162.975 166.851 162.975 166.851 41.975 44.906 41.975"/><path d="M318.2905,136.2854 C322.708778,136.2854 326.2905,139.867122 326.2905,144.2854 C326.2905,148.620314 322.842662,152.149943 318.539679,152.281593 L318.2905,152.2854 L198.5835,152.2854 C194.165222,152.2854 190.5835,148.703678 190.5835,144.2854 C190.5835,139.950486 194.031338,136.420857 198.334321,136.289207 L198.5835,136.2854 L318.2905,136.2854 Z M370.5225,95.9866 C374.940778,95.9866 378.5225,99.568322 378.5225,103.9866 C378.5225,108.321514 375.074662,111.851143 370.771679,111.982793 L370.5225,111.9866 L198.5835,111.9866 C194.165222,111.9866 190.5835,108.404878 190.5835,103.9866 C190.5835,99.6516857 194.031338,96.1220571 198.334321,95.9904068 L198.5835,95.9866 L370.5225,95.9866 Z M423.8285,55.6878 C428.246778,55.6878 431.8285,59.269522 431.8285,63.6878 C431.8285,68.0227143 428.380662,71.5523429 424.077679,71.6839932 L423.8285,71.6878 L198.5835,71.6878 C194.165222,71.6878 190.5835,68.106078 190.5835,63.6878 C190.5835,59.3528857 194.031338,55.8232571 198.334321,55.6916068 L198.5835,55.6878 L423.8285,55.6878 Z" id="Text" fill="#D3E2F2" fill-rule="nonzero"/></g><g id="Info-Card-3" opacity=".553" transform="translate(0.000000, 515.880000)"><polygon id="Bg" fill="#FFF" points="2 207.069 506.868 207.069 506.868 2 2 2"/><path d="M506.868,-2.27373675e-13 L2,-2.27373675e-13 C0.8954305,-2.27373675e-13 -6.82121026e-13,0.8954305 -6.82121026e-13,2 L-6.82121026e-13,207.069 C-6.82121026e-13,208.173569 0.8954305,209.069 2,209.069 L506.868,209.069 C507.972569,209.069 508.868,208.173569 508.868,207.069 L508.868,2 C508.868,0.8954305 507.972569,-2.27373675e-13 506.868,-2.27373675e-13 Z M504.868,3.999 L504.868,205.068 L4,205.068 L4,3.999 L504.868,3.999 Z" id="Border" fill="#141414" fill-rule="nonzero"/><polygon id="Place-Holder" fill="#02BAD3" points="44.906 162.975 166.851 162.975 166.851 41.975 44.906 41.975"/><path d="M318.2905,136.2854 C322.708778,136.2854 326.2905,139.867122 326.2905,144.2854 C326.2905,148.620314 322.842662,152.149943 318.539679,152.281593 L318.2905,152.2854 L198.5835,152.2854 C194.165222,152.2854 190.5835,148.703678 190.5835,144.2854 C190.5835,139.950486 194.031338,136.420857 198.334321,136.289207 L198.5835,136.2854 L318.2905,136.2854 Z M370.5225,95.9866 C374.940778,95.9866 378.5225,99.568322 378.5225,103.9866 C378.5225,108.321514 375.074662,111.851143 370.771679,111.982793 L370.5225,111.9866 L198.5835,111.9866 C194.165222,111.9866 190.5835,108.404878 190.5835,103.9866 C190.5835,99.6516857 194.031338,96.1220571 198.334321,95.9904068 L198.5835,95.9866 L370.5225,95.9866 Z M423.8285,55.6878 C428.246778,55.6878 431.8285,59.269522 431.8285,63.6878 C431.8285,68.0227143 428.380662,71.5523429 424.077679,71.6839932 L423.8285,71.6878 L198.5835,71.6878 C194.165222,71.6878 190.5835,68.106078 190.5835,63.6878 C190.5835,59.3528857 194.031338,55.8232571 198.334321,55.6916068 L198.5835,55.6878 L423.8285,55.6878 Z" id="Text" fill="#D3E2F2" fill-rule="nonzero"/></g><g id="Info-Card-4" opacity=".162" transform="translate(0.000000, 773.820000)"><polygon id="Bg" fill="#FFF" points="2 207.069 506.868 207.069 506.868 2 2 2"/><path d="M506.868,-2.27373675e-13 L2,-2.27373675e-13 C0.8954305,-2.27373675e-13 -6.82121026e-13,0.8954305 -6.82121026e-13,2 L-6.82121026e-13,207.069 C-6.82121026e-13,208.173569 0.8954305,209.069 2,209.069 L506.868,209.069 C507.972569,209.069 508.868,208.173569 508.868,207.069 L508.868,2 C508.868,0.8954305 507.972569,-2.27373675e-13 506.868,-2.27373675e-13 Z M504.868,3.999 L504.868,205.068 L4,205.068 L4,3.999 L504.868,3.999 Z" id="Border" fill="#141414" fill-rule="nonzero"/><polygon id="Place-Holder" fill="#FFC81A" points="44.906 162.975 166.851 162.975 166.851 41.975 44.906 41.975"/><path d="M318.2905,136.2854 C322.708778,136.2854 326.2905,139.867122 326.2905,144.2854 C326.2905,148.620314 322.842662,152.149943 318.539679,152.281593 L318.2905,152.2854 L198.5835,152.2854 C194.165222,152.2854 190.5835,148.703678 190.5835,144.2854 C190.5835,139.950486 194.031338,136.420857 198.334321,136.289207 L198.5835,136.2854 L318.2905,136.2854 Z M370.5225,95.9866 C374.940778,95.9866 378.5225,99.568322 378.5225,103.9866 C378.5225,108.321514 375.074662,111.851143 370.771679,111.982793 L370.5225,111.9866 L198.5835,111.9866 C194.165222,111.9866 190.5835,108.404878 190.5835,103.9866 C190.5835,99.6516857 194.031338,96.1220571 198.334321,95.9904068 L198.5835,95.9866 L370.5225,95.9866 Z M423.8285,55.6878 C428.246778,55.6878 431.8285,59.269522 431.8285,63.6878 C431.8285,68.0227143 428.380662,71.5523429 424.077679,71.6839932 L423.8285,71.6878 L198.5835,71.6878 C194.165222,71.6878 190.5835,68.106078 190.5835,63.6878 C190.5835,59.3528857 194.031338,55.8232571 198.334321,55.6916068 L198.5835,55.6878 L423.8285,55.6878 Z" id="Text" fill="#D3E2F2" fill-rule="nonzero"/></g></g></g></g></g><line x1="0" y1="1303" x2="2209" y2="1303" id="line" stroke="#141414" stroke-width="4"/></g><g transform="translate(840.500000, 937.000000) scale(-1, 1) translate(-840.500000, -937.000000) translate(259.000000, 287.000000) scale(1 1)" id="Master/Character/Standing"><g id="Master/Character/Standing" stroke="none" stroke-width="1" fill="none" fill-rule="evenodd"><g id="Lower Body" transform="translate(0.000000, 569.000000) scale(1 1)"><g id="Lower Body/Fat Pant" stroke="none" stroke-width="1" fill="none" fill-rule="evenodd"><g id="Group" transform="translate(387.000043, -1.742744)"><g id="leg-2" transform="translate(80.999957, 598.742744)"><polygon id="SKIN" fill="#FFF" points="1.22037767 1.96659893e-13 11.4923777 95.7894194 61.8263777 92.727871 71.2023777 1.39025806"/><path d="M68.3629777,8.21050645 L59.9079777,90.5774419 L13.3779777,93.4069258 L4.23997767,8.19879677 C4.11697767,7.05550645 3.20797767,6.19218387 2.12697767,6.19218387 C0.85697767,6.19218387 -0.13002233,7.36953871 0.01397767,8.71295806 L9.37997767,96.0469258 C9.50297767,97.1955387 10.4179777,98.0535387 11.4909777,98.0535387 C11.5319777,98.0535387 11.5729777,98.0524742 11.6139777,98.0503452 L61.9469777,94.9887968 C62.9849777,94.9249258 63.8269777,94.0733129 63.9409777,92.9747323 L72.5919777,8.7023129 C72.7289777,7.3620871 71.7429777,6.19218387 70.4769777,6.19218387 C69.3919777,6.19218387 68.4809777,7.06189355 68.3629777,8.21050645" id="Fill-14" fill="#141414"/></g><g id="leg-1" transform="translate(192.999957, 561.742744)"><polygon id="SKIN" fill="#FFF" points="1.87205282 -1.12549969e-13 5.79805282 124.489728 62.9320528 129.420192 88.2460528 35.744544"/><path d="M84.5863528,41.1036384 L61.3653528,127.031414 L7.86035282,122.414582 L4.25335282,14.1228384 C4.20635282,12.7067424 2.94535282,11.6898144 1.64035282,12.0150624 C0.651352824,12.2611104 -0.0346471755,13.2093984 0.0013528245,14.2812384 L3.67235282,124.563542 C3.70935282,125.704022 4.54835282,126.634358 5.62535282,126.727286 L62.7583528,131.65775 C62.8163528,131.66303 62.8753528,131.666198 62.9333528,131.666198 C63.8743528,131.666198 64.7143528,131.007254 64.9763528,130.03679 L88.6763528,42.3359904 C89.0523528,40.9441824 88.1013528,39.5439264 86.7313528,39.4763424 C85.7453528,39.4277664 84.8573528,40.1014944 84.5863528,41.1036384" id="Fill-2" fill="#141414"/></g><g id="shoe-2" transform="translate(184.999957, 672.742744)"><path d="M6.8308,5.48099941 C7.0888,4.40951727 8.0888,3.73207084 9.1218,3.92592798 C10.1058,4.11241012 11.3498,4.3642137 12.8158,4.66237441 C21.7968,6.48294584 40.4858,10.2726423 58.1968,10.2873923 L58.2428,10.2873923 C68.6758,10.2873923 71.7628,5.94878512 77.9918,0.487070838 C78.4858,0.0529994098 79.1488,-0.10187559 79.7748,0.0666958384 C110.1718,8.40466012 138.2238,15.7606958 154.4998,27.1972137 C157.3608,29.2084816 167.6768,37.9826244 165.8928,44.1881601 C165.0668,47.0580887 162.1288,48.5130708 157.1598,48.5130708 C139.0148,48.5130708 99.9238,48.6194816 65.4348,48.714303 C37.5288,48.7912137 13.4278,48.8575887 4.3538,48.8575887 C3.3958,48.8575887 2.5298,48.3992851 1.9168,47.5680173 C-1.6562,42.725803 4.1628,16.5213744 6.8308,5.48099941" id="Fill-4" fill="#05e20e"/><path d="M4.719,58.1358655 L161.555,58.1358655 C164.162,58.1358655 166.275,55.9107226 166.275,53.1640619 L166.275,51.5215441 C166.275,48.7748833 164.162,46.5486869 161.555,46.5486869 L4.719,46.5486869 C2.113,46.5486869 5.68434189e-14,48.7748833 5.68434189e-14,51.5215441 L5.68434189e-14,53.1640619 C5.68434189e-14,55.9107226 2.113,58.1358655 4.719,58.1358655" id="Fill-6" fill="#141414"/><path d="M117.0144,21.2506458 C117.8094,21.2506458 118.5714,20.7796994 118.9354,19.9726637 C122.2724,12.5892351 128.6834,14.3961101 129.4044,14.6289494 C130.5224,14.9861101 131.7124,14.327628 132.0594,13.1518423 C132.4064,11.9739494 131.7924,10.7254673 130.6774,10.352503 C127.0414,9.13668155 119.1034,9.18093155 115.0964,18.0467351 C114.5914,19.1645744 115.0414,20.500503 116.1014,21.0325566 C116.3964,21.1811101 116.7074,21.2506458 117.0144,21.2506458" id="Fill-8" fill="#141414"/><path d="M98.2336,15.8541476 C99.0286,15.8541476 99.7906,15.3832012 100.1546,14.5761655 C103.4926,7.19273691 109.9036,8.99961191 110.6226,9.2324512 C111.7416,9.59066548 112.9316,8.93112977 113.2786,7.75534405 C113.6256,6.5774512 113.0106,5.32896905 111.8966,4.95600477 C108.2566,3.74123691 100.3206,3.78654048 96.3156,12.6502369 C95.8106,13.7680762 96.2606,15.1040048 97.3206,15.6360583 C97.6156,15.7846119 97.9266,15.8541476 98.2336,15.8541476" id="Fill-10" fill="#141414"/></g><g id="shoe-2" transform="translate(68.999957, 670.742744)"><path d="M19.2345363,0.522571429 C19.2345363,0.522571429 -10.2414637,27.2021607 3.78453629,47.6024643 C22.3655363,53.092625 66.7745363,58.1940179 86.4925363,48.3178393 C100.314536,41.3948214 78.4565363,-1.08548091e-13 78.4565363,-1.08548091e-13 C56.2045363,2.34419643 39.9575363,1.22635714 19.2345363,0.522571429" id="Fill-16" fill="#05e20e"/><path d="M92.2614363,52.2957036 C92.0534363,56.2971679 88.0174363,58.7867571 83.7344363,58.7867571 L7.40643629,58.7867571 C2.89943629,58.7867571 -0.132563714,54.5334893 0.664436286,49.96415 C1.46043629,45.3958643 2.78443629,45.7888464 5.78443629,45.7888464 L83.7344363,46.2197571 C86.9364363,46.2197571 92.4914363,47.8633286 92.2614363,52.2957036" id="Fill-18" fill="#141414"/><path d="M23.8258363,30.5905518 C23.0658363,30.5905518 22.3398363,30.1311946 22.0038363,29.3557661 C21.5468363,28.2979804 21.9888363,27.0494982 22.9928363,26.5669625 C23.7928363,26.1813554 42.8118363,17.2270518 64.0308363,23.7339089 C65.0918363,24.0594625 65.7008363,25.2278732 65.3928363,26.3457125 C65.0838363,27.4624982 63.9738363,28.1083375 62.9138363,27.7796232 C43.1598363,21.7279089 24.8348363,30.3134625 24.6518363,30.4009089 C24.3838363,30.5294446 24.1028363,30.5905518 23.8258363,30.5905518" id="Fill-20" fill="#141414"/><path d="M29.9366363,16.6214589 C29.1576363,16.6214589 28.4166363,16.1389232 28.0936363,15.3361018 C27.6636363,14.2656732 28.1356363,13.0298339 29.1516363,12.5746911 C29.7886363,12.2902268 44.8846363,5.67695893 58.1376363,12.3702982 C59.1336363,12.8728518 59.5536363,14.1329232 59.0756363,15.1822804 C58.5986363,16.2316375 57.4036363,16.6741375 56.4076363,16.1705304 C44.8086363,10.3095125 30.8536363,16.3917804 30.7146363,16.4549946 C30.4606363,16.5677268 30.1966363,16.6214589 29.9366363,16.6214589" id="Fill-22" fill="#141414"/></g><g id="Pant" transform="translate(-0.000043, 0.742744)"><path d="M3.56235652,242.042966 C27.4433565,463.886049 20.7423565,625.365937 20.7423565,625.365937 C68.9563565,633.360368 116.270357,633.390012 161.975357,619.187219 L172.999957,152.184013 L229.999957,296.17059 C229.999957,296.17059 164.091357,543.514861 175.527357,564.269044 C186.962357,585.023227 286.866357,627.838059 313.712357,611.772969 C324.819357,605.125236 384.766957,400.253828 381.999957,281.348443 C380.552957,219.151535 276.059957,47.4051925 268.999957,1.84508682 C235.388957,-2.30617324 52.2983565,1.84476921 52.2983565,1.84476921 C52.2983565,1.84476921 -16.1386435,59.0370846 3.56235652,242.042966 Z" id="Fill-24" fill="#141414"/><path d="M168.610357,30.8583821 C172.901357,34.0239694 182.462357,40.1984526 198.412357,46.072258 C204.117357,48.172768 207.162357,47.8519744 208.037357,46.9382949 C208.628357,46.3210583 208.348357,45.0516472 208.128357,44.3497127 C206.402357,38.834815 197.080357,30.1744459 184.066357,28.2581539 C179.423357,27.5773939 174.118357,28.6954073 168.610357,30.8583821 M153.007357,26.4953771 C150.021357,26.4953771 146.540357,28.2825046 143.638357,29.7742479 C131.634357,35.9392026 121.784357,49.373362 120.880357,55.8389945 C123.301357,54.8617915 128.743357,50.9053368 133.621357,47.3586086 C141.579357,41.5716187 151.112357,34.6390885 160.672357,29.8038922 C158.968357,28.5037781 157.074357,27.5106942 154.944357,26.79182 C154.332357,26.5864274 153.682357,26.4953771 153.007357,26.4953771 M149.231357,77.6127294 C148.990357,77.6127294 148.745357,77.5661455 148.507357,77.4676841 C147.478357,77.0441942 146.967357,75.8181908 147.367357,74.7277043 C152.158357,61.6693922 158.934357,42.6494006 161.537357,34.1076086 C152.346357,38.8792815 143.126357,45.5841858 135.885357,50.8492244 C125.013357,58.7557815 121.115357,61.4121221 118.430357,59.9150851 C117.825357,59.5784106 116.812357,58.7187261 116.812357,56.7473804 C116.812357,47.88056 129.469357,32.3437731 141.892357,25.9628385 C146.089357,23.8083335 151.317357,21.124466 156.157357,22.7580784 C159.514357,23.8887966 162.349357,25.6028721 164.778357,27.8632496 C171.690357,24.8405902 178.502357,23.1603939 184.616357,24.0645449 C198.645357,26.130117 209.518357,35.3240835 211.925357,43.0178368 C213.117357,46.8292462 211.760357,49.0006908 210.845357,49.9546019 C208.410357,52.4955415 203.785357,52.5336556 197.098357,50.0710617 C185.604357,45.8393385 177.352357,41.4826858 171.876357,38.0937076 C175.994357,46.9287664 178.383357,58.9611741 180.898357,73.5842815 C181.095357,74.7351153 180.375357,75.8372479 179.288357,76.0479341 C178.210357,76.2543855 177.160357,75.4952798 176.962357,74.3433872 C173.659357,55.1296489 170.646357,42.5519979 165.461357,34.9524711 C162.111357,46.1696606 152.382357,72.7552999 151.096357,76.2617966 C150.788357,77.0992479 150.032357,77.6116707 149.231357,77.6127294" id="Fill-27" fill="#FFF"/></g></g></g></g><g id="Upper Body" transform="translate(272.000000, 187.000000) scale(1 1)"><g id="Upper Body/Arms Crossed" stroke="none" stroke-width="1" fill="none" fill-rule="evenodd"><g id="T-Shirt" transform="translate(125.061247, 75.239887)"><path d="M29.2759979,310.587013 C27.8869979,299.291013 17.6583529,224.870013 15.2753529,182.778013 C-1.6896471,186.355013 -4.0336471,109.182013 17.9023529,59.7550133 C52.8483529,-18.9849867 172.812353,5.63301326 172.812353,5.63301326 C172.812353,5.63301326 208.653353,3.95501326 244.035353,32.9120133 C259.850353,45.8560133 277.267353,74.7600133 285.930353,106.497013 C283.219353,115.274013 254.552353,154.619013 244.099353,161.313013 C260.256353,239.790013 273.042353,310.587013 273.042353,310.587013 C273.042353,310.587013 64.7529979,313.840013 29.2759979,310.587013 Z" id="Fill-1" fill="#05e20e"/><path d="M270.675753,309.664213 C268.394753,296.653213 256.539753,231.656213 242.139753,161.716213 C241.972753,160.905213 242.323753,160.075213 243.020753,159.629213 C253.120753,153.161213 280.396753,115.548213 283.838753,106.431213 C275.620753,76.7412133 259.161753,47.8762133 242.768753,34.4602133 C208.444753,6.36921326 173.252753,7.61121326 172.904753,7.63121326 C172.736753,7.63521326 172.572753,7.62521326 172.410753,7.59221326 C172.112753,7.53221326 142.245753,1.53421326 108.580753,5.16521326 C88.9107529,7.28721326 71.8127529,12.2312133 57.7587529,19.8622133 C40.3067529,29.3392133 27.5117529,43.0342133 19.7307529,60.5672133 C11.2027529,79.7822133 5.5677529,105.438213 4.2727529,130.957213 C3.1167529,153.719213 5.7057529,172.549213 10.8687529,178.928213 C12.5637529,181.021213 13.9607529,181.014213 14.8627529,180.821213 C15.4347529,180.702213 16.0287529,180.836213 16.4907529,181.189213 C16.9547529,181.544213 17.2397529,182.082213 17.2727529,182.665213 C19.3307529,219.015213 27.7937529,277.359213 30.9797529,301.957213 C31.3307529,304.665213 31.6147529,306.863213 31.8177529,308.453213 C68.7177529,311.165213 248.199753,310.401213 270.675753,309.664213 Z M29.8527529,312.305213 C28.9157529,312.219213 28.1657529,311.492213 28.0507529,310.557213 C27.8637529,309.038213 27.5037529,306.255213 27.0127529,302.471213 C23.8787529,278.269213 15.6437529,221.692213 13.3947529,184.857213 C11.6657529,184.671213 9.6657529,183.800213 7.7587529,181.444213 C1.9227529,174.233213 -0.944247096,154.810213 0.277752904,130.755213 C1.5977529,104.764213 7.3557529,78.5902133 16.0747529,58.9442133 C30.6697529,26.0592133 62.5427529,6.08421326 108.248753,1.17821326 C140.889753,-2.32778674 170.009753,3.05221326 172.969753,3.62621326 C176.508753,3.50421326 210.884753,3.19721326 245.301753,31.3642133 C262.394753,45.3542133 279.497753,75.3352133 287.859753,105.970213 C287.959753,106.337213 287.953753,106.724213 287.840753,107.087213 C285.255753,115.455213 258.137753,153.297213 246.322753,162.196213 C262.177753,239.332213 274.885753,310.511213 275.012753,311.245213 C275.111753,311.815213 274.959753,312.400213 274.593753,312.849213 C274.228753,313.297213 273.687753,313.566213 273.109753,313.586213 C266.277753,313.815213 135.369753,313.186213 66.3587529,313.186213 C49.7177529,313.186213 36.6907529,312.932213 29.8527529,312.305213 Z" id="Fill-3" fill="#141414"/></g><g id="Neck" transform="translate(230.369805, 47.999770)"><path d="M18.0946948,2.12593033 C18.0946948,2.12593033 16.7366948,36.5639303 2.50769479,41.4819303 C-1.36330521,60.8379303 24.8686948,74.0549303 44.8086948,73.1189303 C83.4096948,71.3069303 71.3956948,39.7559303 68.7416948,39.6699303 C68.8186948,35.7149303 70.9506948,6.13293033 70.9506948,6.13293033 L18.0946948,2.12593033 Z" id="SKIN" fill="#FFF"/><path d="M4.40669479,43.0048303 C3.71569479,48.0668303 5.28469479,52.8638303 9.08169479,57.2798303 C16.4496948,65.8508303 31.4296948,71.6278303 44.7096948,70.9948303 C57.9766948,70.3718303 66.5056948,65.9558303 69.3726948,58.2248303 C72.0666948,50.9638303 69.0996948,43.0898303 67.9016948,41.6248303 C67.1306948,41.2928303 66.5976948,40.5188303 66.6146948,39.6288303 C66.6816948,36.2428303 68.1856948,14.9838303 68.6786948,8.09283033 L20.0886948,4.40983033 C19.5236948,12.1098303 16.7476948,37.2578303 4.40669479,43.0048303 M42.7796948,75.2928303 C28.8506948,75.2928303 13.6116948,69.0728303 5.85669479,60.0528303 C0.956694787,54.3548303 -0.922305213,47.7878303 0.422694787,41.0658303 C0.570694787,40.3248303 1.09969479,39.7188303 1.81269479,39.4728303 C12.3476948,35.8318303 15.6036948,11.2178303 15.9696948,2.04183033 C15.9926948,1.46483033 16.2486948,0.921830328 16.6796948,0.537830328 C17.1116948,0.153830328 17.6846948,-0.0331696718 18.2556948,0.00483032817 L71.1116948,4.01183033 C72.2796948,4.10083033 73.1566948,5.11683033 73.0726948,6.28583033 C73.0526948,6.56183033 71.2046948,32.2198303 70.9066948,38.6698303 C73.2216948,41.1648303 74.6906948,47.2798303 74.7224094,51.6108303 C74.7666948,57.6788303 72.6856948,62.9738303 68.7026948,66.9228303 C63.6436948,71.9408303 55.6376948,74.7398303 44.9086948,75.2438303 C44.2036948,75.2758303 43.4926948,75.2928303 42.7796948,75.2928303" id="Fill-8" fill="#141414"/></g><g id="Hand" transform="translate(124.000008, 152.285658)"><path d="M286.914192,29.1432416 L232.053192,36.8312416 L238.111192,72.2362416 C238.111192,72.2362416 159.159192,64.5892416 132.040192,55.6112416 C118.391192,51.0922416 100.749192,56.1232416 93.8381917,70.3272416 C90.1821917,77.8412416 92.5381917,97.3932416 92.5381917,97.3932416 C92.5381917,97.3932416 117.968192,97.0462416 125.233192,97.0462416 C125.976192,97.0462416 126.936192,97.2962416 128.082192,97.7442416 L91.5721917,98.1342416 L89.7421917,45.4382416 L3.79919171,46.5242416 C3.79919171,46.5242416 -12.5248083,160.019242 52.7971917,177.688242 C112.316192,193.788242 184.228192,139.299242 189.849192,134.943242 C217.777192,149.480242 250.978192,160.882242 282.243192,152.901242 C321.784192,142.808242 288.530192,33.6192416 286.914192,29.1432416" id="SKIN" fill="#FFF"/><path d="M294.148592,140.620342 C291.189592,146.205342 287.133592,149.588342 281.748592,150.963342 C233.417592,163.301342 180.871592,128.835342 149.474592,108.244342 C139.090592,101.433342 132.732592,97.3343416 128.547592,95.7753416 C128.537592,95.7633416 128.524592,95.7513416 128.514592,95.7393416 L128.447592,95.7403416 C127.200592,95.2843416 126.139592,95.0463416 125.232592,95.0463416 C119.172592,95.0463416 100.293592,95.2893416 94.3325917,95.3693416 C93.7245917,89.0713416 93.1215917,76.3723416 95.6365917,71.2023416 C100.897592,60.3923416 115.714592,52.3143416 131.412592,57.5103416 C158.356592,66.4303416 234.247592,73.8713416 237.881592,74.2243416 L250.947592,75.9653416 C251.037592,75.9773416 251.126592,75.9833416 251.214592,75.9833416 C252.201592,75.9833416 253.060592,75.2523416 253.194592,74.2473416 C253.340592,73.1523416 252.571592,72.1463416 251.476592,72.0003416 L239.835592,70.4483416 L234.372592,38.5253416 L285.533592,31.3563416 C287.250592,36.8483416 292.453592,54.9383416 296.021592,75.6503416 C301.247592,105.978342 300.598592,128.444342 294.148592,140.620342 M75.9495917,178.631342 C68.3005917,178.631342 60.7005917,177.754342 53.3195917,175.758342 C27.0995917,168.665342 11.1095917,144.958342 5.79459171,105.293342 C2.34259171,79.5283416 4.78559171,55.0393416 5.56359171,48.5023416 L87.8115917,47.4623416 L89.5735917,98.2033416 C89.6115917,99.2893416 90.5135917,100.123342 91.5935917,100.134342 L127.751592,99.7473416 C131.860592,101.478342 139.122592,106.237342 147.280592,111.588342 C158.075592,118.668342 171.332592,127.356342 186.077592,135.269342 C173.719592,144.336342 123.801592,178.634342 75.9495917,178.631342 M288.794592,28.4643416 C288.473592,27.5753416 287.574592,27.0343416 286.636592,27.1623416 L233.640592,34.5893416 L226.983592,1.60534157 C226.763592,0.522341568 225.705592,-0.179658432 224.627592,0.0403415676 C223.543592,0.259341568 222.843592,1.31334157 223.061592,2.39634157 L230.086592,37.2003416 L235.697592,69.9843416 C221.817592,68.5673416 156.502592,61.6023416 132.668592,53.7133416 C125.470592,51.3293416 117.115592,51.4573416 109.745592,54.0623416 C102.155592,56.7473416 96.0905917,61.8473416 92.5435917,68.4813416 L91.7525917,45.6903416 C91.7615917,45.6043416 91.7745917,45.5203416 91.7735917,45.4323416 L91.0725917,4.73134157 C91.0545917,3.62734157 90.1895917,2.72734157 89.0385917,2.76634157 C87.9345917,2.78534157 87.0545917,3.69634157 87.0735917,4.80034157 L87.7395917,43.4633416 L3.77359171,44.5243416 C2.78859171,44.5373416 1.95959171,45.2653416 1.81959171,46.2403416 C1.77759171,46.5263416 -2.25340829,75.2413416 1.81959171,105.745342 C7.27959171,146.622342 24.7265917,172.167342 52.2755917,179.619342 C60.0245917,181.715342 67.9705917,182.619342 75.9165917,182.619342 C101.411592,182.619342 126.877592,173.315342 145.618592,164.262342 C167.950592,153.473342 185.061592,141.065342 190.003592,137.339342 C211.527592,148.470342 235.950592,157.567342 260.436592,157.567342 C267.890592,157.567342 275.352592,156.724342 282.738592,154.839342 C289.186592,153.192342 294.214592,149.038342 297.682592,142.493342 C314.846592,110.095342 289.076592,29.2423416 288.794592,28.4643416" id="Fill-13" fill="#141414"/></g></g></g><g id="Head" transform="translate(439.000000, 92.000000) scale(1 1)"><g id="Head/Short Hair 4" stroke="none" stroke-width="1" fill="none" fill-rule="evenodd"><g id="Short-Hair" transform="translate(4.000076, -0.999876)"><path d="M148.656724,91.1807762 C141.372724,46.6367762 119.609724,45.3307762 78.981724,48.3837762 C59.904724,49.8167762 36.092724,67.0937762 38.223724,98.4007762 C27.074724,94.1317762 20.822724,101.159776 21.199724,109.557776 C21.539724,117.097776 24.951724,127.030776 38.822724,127.030776 C40.166724,150.025776 55.176724,187.069776 102.317724,187.069776 C150.451724,187.069776 154.972724,129.807776 148.656724,91.1807762" id="SKIN" fill="#FFF"/><path d="M134.120624,171.340376 C114.076624,195.314376 68.521624,185.620376 53.235624,162.175376 C45.079624,152.308376 40.867624,133.557376 40.819624,126.914376 C40.812624,125.854376 39.881624,125.030376 38.822624,125.030376 C23.856624,125.935376 18.866624,107.491376 26.850624,100.631376 C30.598624,97.8083762 35.746624,98.7553762 39.558624,100.937376 C40.125624,101.262376 55.261624,100.025376 64.936624,71.0023762 C83.792624,81.9793762 119.158624,87.3553762 143.696624,78.2193762 C151.496624,107.091376 152.336624,149.278376 134.120624,171.340376 M42.971624,31.4713762 C52.315624,-1.92862383 106.582624,-10.0816238 126.499624,13.4813762 C148.543624,3.23737617 176.870624,6.21937617 180.716624,30.2633762 C182.976624,50.3173762 166.339624,67.3323762 147.377624,76.6643762 C155.704624,107.035376 156.648624,150.335376 137.170624,173.929376 C111.316624,204.847376 55.094624,183.990376 44.703624,155.778376 C33.897624,153.042376 28.481624,145.170376 24.224624,131.587376 C7.74362396,123.486376 -18.849376,64.6143762 20.356624,36.5423762 C27.497624,31.7913762 35.456624,30.0203762 42.971624,31.4713762 Z M32.783224,107.032276 C29.827224,106.929276 29.827224,115.161276 32.783224,115.058276 C35.739224,115.161276 35.739224,106.928276 32.783224,107.032276 Z" id="hair" fill="#141414"/></g></g></g><g id="Face" transform="translate(499.000000, 178.000000) scale(1 1)"><g id="Face/Normal Face 2" stroke="none" stroke-width="1" fill="none" fill-rule="evenodd"><path d="M34.2442,65.8882 C35.2702,64.9612 36.8542,65.0412 37.7812,66.0672 C37.8362,66.1272 37.8892,66.1932 37.9372,66.2582 C37.9802,66.3152 38.1692,66.5362 38.3222,66.6852 C38.4792,66.8532 38.6612,67.0152 38.8352,67.1812 C39.1982,67.5062 39.5832,67.8202 39.9862,68.1162 C40.7902,68.7112 41.6692,69.2282 42.5902,69.6642 C44.4252,70.5622 46.4512,71.1012 48.5372,71.3392 C52.7582,71.8822 57.2432,71.4512 61.0952,69.5392 L61.0952,69.5392 L61.1112,69.5312 C61.7742,69.2012 62.5792,69.4722 62.9092,70.1362 C63.2152,70.7542 62.9962,71.4992 62.4272,71.8642 C60.3322,73.1982 58.0002,74.1412 55.5922,74.7232 C53.1742,75.2872 50.7132,75.5762 48.2112,75.4512 C45.6972,75.3262 43.1542,74.8272 40.7642,73.8452 C39.5662,73.3672 38.4032,72.7812 37.3002,72.0722 C36.7482,71.7192 36.2112,71.3362 35.6852,70.9232 C35.4252,70.7082 35.1642,70.5002 34.9082,70.2632 C34.6382,70.0202 34.4272,69.8242 34.0882,69.4482 L34.0882,69.4482 L34.0662,69.4242 C33.1392,68.3982 33.2182,66.8152 34.2442,65.8882 Z M50.5487,25.5674 C51.2857,25.5844 51.8787,26.1634 51.9247,26.8864 L51.9247,26.8864 L51.9257,26.9054 C52.1227,30.1454 52.3497,33.4104 52.6527,36.6194 C52.8167,38.2124 53.0017,39.8344 53.3067,41.2864 C53.3627,41.5454 53.4267,41.7874 53.4917,41.9994 C54.2557,42.3124 55.0207,42.6744 55.7797,43.1254 C56.5897,43.6244 57.4147,44.2214 58.1257,45.0504 C58.8487,45.8574 59.4137,46.9404 59.6617,48.0494 C59.9067,49.1754 59.9107,50.1734 59.7377,51.2644 C59.5637,52.3424 59.0947,53.4764 58.3417,54.3734 C57.5967,55.2774 56.6387,55.9174 55.6837,56.3264 C54.7197,56.7354 53.7547,56.9374 52.8127,57.0494 C51.8707,57.1544 50.9467,57.1614 50.0427,57.0944 C49.6217,57.0664 49.0677,57.0134 48.6647,56.9164 C48.2147,56.8144 47.8807,56.7204 47.3057,56.4744 C46.5957,56.1714 46.2657,55.3504 46.5697,54.6404 C46.7477,54.2224 47.1067,53.9364 47.5157,53.8334 L47.5157,53.8334 L48.0587,53.7004 C48.2797,53.6464 48.7597,53.6634 49.1197,53.6824 C49.5267,53.7094 49.7887,53.7294 50.1867,53.7304 C50.9187,53.7374 51.6387,53.6824 52.3197,53.5634 C53.6837,53.3234 54.8547,52.7604 55.4057,52.0114 C55.6897,51.6364 55.8617,51.1994 55.9297,50.6594 C56.0027,50.1344 55.9627,49.4604 55.8247,48.9954 C55.5757,48.0634 54.8177,47.2804 53.6557,46.5034 C53.0877,46.1224 52.4497,45.7684 51.7667,45.4554 L51.7667,45.4554 L51.5137,45.3344 L51.3567,45.2604 C51.2017,45.1854 51.0047,45.0564 50.9157,44.9784 C50.8197,44.8964 50.7227,44.8044 50.6407,44.7134 L50.6407,44.7134 L50.4757,44.5034 C50.1207,43.9754 50.0697,43.7124 49.9637,43.4184 C49.7987,42.8724 49.7167,42.4184 49.6427,41.9674 C49.3707,40.1914 49.2827,38.5434 49.1977,36.8714 C49.0357,33.5424 49.0307,30.2574 49.1067,26.9454 C49.1247,26.1664 49.7697,25.5494 50.5487,25.5674 Z M16.7508,30.7827 C17.1588,27.9607 19.5578,25.9717 22.1088,26.3407 C24.6598,26.7097 26.3968,29.2967 25.9888,32.1187 C25.5808,34.9417 23.1818,36.9297 20.6298,36.5617 C18.0798,36.1927 16.3428,33.6047 16.7508,30.7827 Z M69.9618,24.6142 C72.5128,24.2452 74.9108,26.2342 75.3188,29.0562 C75.7278,31.8792 73.9908,34.4662 71.4408,34.8352 C68.8888,35.2042 66.4898,33.2152 66.0818,30.3932 C65.6738,27.5712 67.4098,24.9832 69.9618,24.6142 Z M30.2504,10.5639 C31.9014,10.4139 33.3624,11.6309 33.5124,13.2829 C33.6624,14.9339 32.4454,16.3949 30.7934,16.5439 C30.7254,16.5509 30.6564,16.5549 30.5884,16.5559 L30.5884,16.5559 L30.5414,16.5569 C27.0124,16.6259 23.7144,16.1709 20.7474,16.1799 C19.2624,16.1819 17.8524,16.3239 16.4984,16.6889 C15.1454,17.0589 13.8434,17.6039 12.4334,18.2039 L12.4334,18.2039 L12.3614,18.2339 C11.4994,18.6019 10.5024,18.1999 10.1354,17.3379 C9.8664,16.7059 10.0124,16.0009 10.4484,15.5249 C11.6784,14.1879 13.2804,13.1399 15.0244,12.4399 C16.7654,11.7229 18.6144,11.3109 20.3944,11.0869 C22.1774,10.8629 23.8954,10.8339 25.5334,10.7749 C27.1724,10.7219 28.7384,10.7019 30.2504,10.5639 Z M63.2758,8.1334 C65.0538,7.9614 66.8968,7.9424 68.7778,8.1544 C70.6498,8.3724 72.5888,8.8374 74.3148,9.7474 C76.0488,10.6384 77.5278,11.8974 78.6678,13.3124 C79.3278,14.1314 79.1978,15.3314 78.3788,15.9914 C77.6788,16.5554 76.7028,16.5434 76.0218,16.0194 L76.0218,16.0194 L75.9948,15.9984 C73.6308,14.1784 71.2348,13.0974 68.4248,13.0444 C67.0288,13.0184 65.5758,13.2594 64.1118,13.5884 C62.6468,13.9194 61.1678,14.3794 59.6998,14.9214 C58.0748,15.5204 56.2718,14.6894 55.6718,13.0644 C55.0728,11.4394 55.9038,9.6354 57.5288,9.0364 C57.7018,8.9734 57.8938,8.9224 58.0678,8.8904 C59.7718,8.5884 61.4978,8.3074 63.2758,8.1334 Z" id="Normal-face-2" fill="#141414"/></g></g><g id="Accessories" transform="translate(491.000000, 176.000000) scale(1 1)" fill="#000"><g id="Accessories/None" stroke="none" stroke-width="1" fill="none" fill-rule="evenodd" fill-opacity="0"/></g><g id="Facial Hair" transform="translate(501.000000, 234.000000) scale(1 1)" fill="#000"><g id="Facial Hair/None" stroke="none" stroke-width="1" fill="none" fill-rule="evenodd" fill-opacity="0"/></g></g></g><g transform="translate(1131.630233, 270.000154) scale(1 1)" id="Master/Character/Sitting on Floor"><g id="Master/Character/Sitting on Floor" stroke="none" stroke-width="1" fill="none" fill-rule="evenodd"><g id="Upper Body" transform="translate(190.000000, 768.000000) scale(1 1)"><g id="Upper Body/Run" stroke="none" stroke-width="1" fill="none" fill-rule="evenodd"><g id="hand-2" transform="translate(361.315788, 4.000239)"><path d="M84.5601118,238.289661 C71.5641118,237.772661 26.4911118,235.302661 0.00211178896,217.991661 C-0.322888211,217.832661 36.9731118,136.889661 36.8911118,136.716661 L36.9661118,136.648661 C37.2101118,136.761661 57.4921118,146.478661 71.2081118,146.394661 C78.5891118,146.242661 91.8721118,136.209661 105.046112,120.836661 C122.936112,100.216661 132.706112,79.6676615 138.755112,58.1356615 C140.102112,53.4886615 141.164112,47.9296615 139.993112,42.8836615 C136.834112,32.5106615 142.393112,31.1386615 149.967112,36.8556615 C152.851112,29.1746615 156.133112,20.9356615 158.523112,12.3886615 C159.807112,6.9476615 164.238112,-1.0483385 169.610112,3.2616615 C172.391112,6.1566615 171.627112,14.4506615 171.092112,20.3226615 C174.651112,20.5326615 177.672112,22.5686615 177.920112,26.6006615 C178.038112,27.3556615 177.063112,29.6106615 176.866112,30.3786615 C177.972112,30.4266615 180.215112,30.2936615 181.251112,30.5886615 C185.989112,31.9206615 186.727112,36.1736615 184.955112,40.2306615 C187.990112,40.0706615 191.404112,40.5336615 192.997112,43.5866615 C194.802112,46.4206615 193.328112,49.2366615 191.732112,51.5906615 C192.562112,51.9866615 195.038112,52.0276615 195.646112,52.8246615 C198.513112,56.4296615 197.199112,61.1046615 196.677112,65.4586615 C179.318112,140.024661 148.208112,232.860661 84.5601118,238.289661" id="Fill-1" fill="#FFF"/><path d="M190.891112,48.5123615 C188.077112,51.5343615 182.942112,55.7043615 179.028112,53.2043615 L179.027112,53.2043615 C176.247112,49.1443615 183.004112,43.2653615 186.847112,42.5783615 C189.750112,41.9793615 193.052112,45.6103615 190.891112,48.5123615 M169.789112,44.2583615 C166.665112,39.2293615 175.964112,31.5683615 180.703112,32.7483615 C182.792112,33.2363615 184.354112,35.5583615 183.426112,37.5813615 C181.814112,40.5123615 172.916112,47.0903615 169.789112,44.2583615 M164.058112,31.0783615 C163.267112,28.3743615 165.751112,25.8323615 166.258112,25.3483615 C169.742112,21.8873615 175.143112,21.5233615 175.674112,26.7843615 C175.775112,28.0013615 171.832112,32.1653615 167.569112,32.9553615 C165.102112,33.4113615 164.422112,32.3243615 164.058112,31.0783615 M198.884112,54.6363615 C198.553112,52.9693615 196.949112,50.5753615 194.847112,50.2513615 C197.982112,45.3663615 193.279112,38.1163615 187.650112,38.2853615 C189.115112,33.3323615 184.667112,28.1773615 179.632112,28.4013615 C180.858112,23.9473615 177.469112,19.2793615 173.244112,18.6663615 C173.850112,11.6483615 174.066112,5.1543615 171.082112,1.9083615 C166.045112,-2.5076385 159.642112,0.713361496 156.596112,11.8533615 C154.509112,19.3553615 151.499112,27.1593615 148.985112,33.7953615 C145.900112,31.4833615 139.842112,29.9233615 137.715112,34.3933615 C135.694112,39.6833615 139.544112,44.9203615 138.357112,50.3413615 C133.280112,75.0833615 122.816112,96.8433615 103.528112,119.535361 C90.7611118,134.432361 77.6561118,144.464361 70.9561118,144.397361 C61.4551118,144.359361 48.9001118,139.614361 42.3481118,136.831361 C41.1091118,136.304361 39.7051118,137.048361 39.4331118,138.367361 C39.2291118,139.362361 39.7511118,140.360361 40.6851118,140.759361 C47.5801118,143.699361 60.8561118,148.702361 71.2081118,148.648361 C92.8091118,147.862361 133.713112,93.2013615 140.902112,58.7913615 C142.363112,53.6293615 143.381112,47.8253615 142.130112,42.4583615 C141.773112,40.6123615 140.771112,37.8143615 141.460112,36.1813615 C141.752112,35.6473615 142.024112,35.6683615 142.701112,35.6443615 C148.292112,36.4273615 152.016112,42.2093615 153.375112,47.3403615 C154.584112,51.9333615 154.287112,56.9613615 153.412112,61.8423615 C153.216112,62.9283615 153.937112,63.9693615 155.024112,64.1663615 C157.580112,64.5333615 157.509112,61.4723615 157.790112,59.7103615 C167.417112,61.8313615 168.054112,74.8153615 167.130112,77.5853615 C166.838112,78.8283615 167.855112,80.0563615 169.127112,80.0143615 C172.160112,80.6893615 173.093112,68.7403615 166.989112,60.9653615 C164.543112,57.8923615 160.931112,56.3973615 158.159112,55.6603615 C158.560112,49.0293615 156.877112,41.9363615 152.394112,36.8063615 C155.174112,29.4313615 158.371112,21.3133615 160.695112,12.9903615 C162.317112,7.3983615 164.935112,2.8953615 167.951112,4.7873615 C170.008112,7.0263615 169.324112,14.7623615 168.952112,18.9373615 C164.405112,20.4773615 158.408112,24.8753615 159.976112,32.2723615 C160.907112,35.4553615 163.249112,37.2313615 166.399112,37.2903615 C162.846112,43.3403615 167.166112,51.1853615 174.562112,48.5543615 C173.543112,51.4903615 174.087112,54.3733615 176.069112,56.2603615 L176.068112,56.2603615 C177.459112,57.6093615 179.370112,58.2923615 181.572112,58.2373615 C180.362112,62.6283615 185.171112,66.5853615 189.239112,64.9233615 C191.082112,64.3913615 190.519112,61.4563615 188.583112,61.6793615 C186.027112,62.0403615 184.847112,60.1023615 186.126112,58.2213615 C187.546112,56.1553615 191.022112,54.3743615 193.647112,54.5433615 C195.120112,55.6343615 194.908112,57.8033615 194.844112,59.5153615 C185.677112,120.059361 154.216112,191.832361 127.120112,215.760361 C112.483112,229.833361 96.5511118,236.824361 81.0161118,235.977361 C72.3511118,235.504361 30.3921118,232.554361 6.13611179,219.122361 C5.05411179,218.523361 3.69611179,218.977361 3.18011179,220.101361 C2.71111179,221.124361 3.12111179,222.326361 4.10711179,222.869361 C29.2851118,236.738361 71.9571118,239.742361 80.7851118,240.224361 C146.469112,239.632361 179.388112,146.380361 197.478112,70.9693615 C198.787112,65.5323615 200.100112,60.3163615 198.884112,54.6363615" id="Fill-3" fill="#141414"/></g><g id="hand-1" transform="translate(-49.000381, 135.301600)"><path d="M179.866481,5.40012479e-13 C105.583481,39.515 55.2334815,148.685 26.7894815,203.851 C9.72048149,236.958 4.73648149,263.328 2.96548149,272.008 C2.14848149,276.013 1.05448149,281.944 4.43248149,284.681 C6.84148149,286.632 10.1344815,285.832 11.3004815,282.959 C11.3004815,282.959 9.61848149,286.722 9.15948149,289.985 C8.72548149,293.072 9.97548149,296.012 12.1854815,297.078 C15.5924815,298.722 18.3504815,296.8 19.7454815,293.548 L18.5374815,297.221 C17.1954815,300.707 18.0614815,304.441 21.7004815,306.403 C24.4094815,307.863 29.0114815,305.661 30.8244815,302.141 C31.4774815,300.873 33.3794815,297.024 33.3794815,297.024 C32.3004815,300.053 33.6194815,305.037 36.7144815,305.876 C40.7174815,306.962 43.6044815,303.696 44.8194815,301.015 C50.4244815,288.647 59.4594815,276.111 64.3814815,267.726 C64.3814815,267.726 68.0854815,277.4 70.6794815,280.034 C73.0964815,282.488 79.0024815,283.479 80.5984815,274.619 C81.0854815,271.92 80.1854815,261.798 83.2174815,249.317 C88.6334815,227.023 115.095481,182.494 139.136481,152.916 C177.101481,106.206 212.852481,91.047 212.852481,91.047 L179.866481,5.40012479e-13 Z" id="Fill-6" fill="#FFF"/><path d="M210.629681,92.3032 C210.162681,91.1302 208.791681,90.6162 207.671681,91.1992 C203.703681,93.2632 197.216681,96.9492 189.007681,102.7262 C176.413681,111.5882 157.251681,127.2572 137.485681,151.5742 C112.194681,182.6922 86.3966815,227.2222 81.1506815,248.8152 C78.9216815,257.9932 78.7656815,265.8982 78.6726815,270.6212 C78.6406815,272.2432 78.6136815,273.6452 78.5056815,274.2412 C77.9756815,277.1862 76.8856815,279.0552 75.4376815,279.5022 C74.2816815,279.8602 72.9316815,279.2892 72.1946815,278.5422 C70.5346815,276.8562 67.7386815,270.5462 66.3676815,266.9652 C66.0756815,266.2022 65.3716815,265.6742 64.5566815,265.6072 C63.7336815,265.5392 62.9616815,265.9452 62.5476815,266.6492 C61.0676815,269.1702 59.1686815,272.1382 57.1576815,275.2812 C52.5616815,282.4622 46.8416815,291.3992 42.8826815,300.1372 C42.6676815,300.6122 40.6786815,304.7492 37.2716815,303.8242 C36.5706815,303.6342 36.0796815,302.8662 35.8496815,302.4262 C35.1126815,301.0182 34.9166815,299.0462 35.3826815,297.7372 C35.4116815,297.6552 35.4266815,297.5712 35.4446815,297.4872 C35.9116815,296.1902 36.4476815,294.8632 36.9946815,293.5462 C37.5756815,292.1512 38.1756815,290.7572 38.7886815,289.3652 C40.0106815,286.5842 41.2736815,283.8032 42.5536815,281.0472 L42.5586815,281.0362 C42.9566815,280.1752 42.4956815,279.1132 41.4826815,278.8742 C40.8016815,278.7132 40.0996815,279.0852 39.7666815,279.7002 C38.3146815,282.3892 36.8926815,285.0792 35.4956815,287.7992 C34.7936815,289.1652 34.1006815,290.5392 33.4206815,291.9282 C32.7786815,293.2452 32.1486815,294.5652 31.5506815,295.9552 C31.5256815,295.9992 31.4946815,296.0362 31.4726815,296.0822 C31.4726815,296.0822 29.5826815,299.9072 28.9336815,301.1672 C28.1486815,302.6912 26.5636815,304.0102 24.8966815,304.5262 C24.0116815,304.8012 23.2136815,304.8022 22.7096815,304.5312 C19.0916815,302.5812 20.1206815,299.0282 20.5226815,297.9852 C20.5346815,297.9522 20.5466815,297.9192 20.5576815,297.8852 L21.7656815,294.2122 C21.7886815,294.1432 21.7966815,294.0732 21.8126815,294.0022 C23.2276815,290.4512 24.8096815,286.8712 26.3746815,283.3162 L31.3346815,272.2962 L31.3446815,272.2732 C31.7416815,271.3882 31.2866815,270.3222 30.3016815,270.0322 C29.5296815,269.8032 28.7096815,270.2292 28.3506815,270.9502 L22.9886815,281.7392 C21.2396815,285.3332 19.4936815,288.8962 17.8506815,292.6142 C17.8336815,292.6482 17.8056815,292.6742 17.7906815,292.7102 C17.2036815,294.0792 16.3416815,295.0612 15.4276815,295.4032 C14.7376815,295.6612 13.9796815,295.5812 13.1096815,295.1622 C11.7586815,294.5112 10.9656815,292.4122 11.2656815,290.2812 C11.6186815,287.7712 12.8156815,284.8282 13.1526815,284.0322 C13.1936815,283.9422 13.2336815,283.8512 13.2706815,283.7582 C13.2986815,283.6892 13.3126815,283.6182 13.3326815,283.5482 L18.8286815,269.1412 L18.8336815,269.1282 C19.1766815,268.2222 18.6696815,267.1792 17.6666815,266.9332 C16.8806815,266.7402 16.0766815,267.2012 15.7456815,267.9402 L9.55868149,281.7412 C9.48268149,281.8502 9.41468149,281.9662 9.35868149,282.0912 C9.34968149,282.1122 9.31468149,282.1902 9.25968149,282.3182 C8.95368149,282.9632 8.45368149,283.4022 7.83768149,283.5602 C7.14868149,283.7402 6.41468149,283.5492 5.77068149,283.0282 C3.29668149,281.0242 4.43668149,275.4352 5.04868149,272.4332 L5.23768149,271.5042 C7.17368149,261.9482 12.3146815,236.5662 28.6796815,204.8252 C31.0916815,200.1492 33.6596815,195.0842 36.3876815,189.7072 C64.2546815,134.7612 110.267681,44.0362 174.181681,5.6632 C175.074681,5.1262 175.451681,4.0312 175.066681,3.0632 C174.583681,1.8522 173.127681,1.3462 172.009681,2.0172 C107.032681,41.0312 60.6716815,132.4222 32.5936815,187.7832 C29.8716815,193.1512 27.3066815,198.2072 24.8996815,202.8762 C8.26368149,235.1422 3.03668149,260.9462 1.06968149,270.6592 L0.881681492,271.5832 C0.0886814917,275.4702 -1.38731851,282.7032 3.09368149,286.3332 C4.36568149,287.3632 5.87268149,287.8812 7.40068149,287.8792 C7.25868149,288.4802 7.13868149,289.0902 7.05368149,289.6892 C6.48968149,293.7002 8.22068149,297.5272 11.2616815,298.9932 C12.7976815,299.7352 14.3596815,299.9692 15.8366815,299.6892 C15.6246815,303.2532 17.3736815,306.4862 20.6926815,308.2752 C21.5676815,308.7462 22.5786815,308.9842 23.6596815,308.9842 C24.4626815,308.9842 25.3036815,308.8532 26.1546815,308.5892 C28.4686815,307.8722 30.6186815,306.2692 32.0156815,304.2702 C32.0366815,304.3132 32.0586815,304.3552 32.0806815,304.3972 C33.0336815,306.2202 34.4816815,307.4742 36.1576815,307.9282 C40.9926815,309.2412 44.9656815,305.8432 46.7566815,301.8932 C50.5896815,293.4342 55.9826815,285.0082 60.7396815,277.5732 C61.8836815,275.7852 62.9926815,274.0532 64.0136815,272.4192 C65.3976815,275.5882 67.4196815,279.7542 69.1646815,281.5262 C70.8056815,283.1922 73.7706815,284.4702 76.6926815,283.5662 C78.8446815,282.9012 81.6326815,280.8742 82.6916815,274.9962 C82.8586815,274.0662 82.8856815,272.7292 82.9256815,270.7042 C83.0146815,266.1562 83.1646815,258.5432 85.2836815,249.8192 C90.4066815,228.7322 115.823681,184.9702 140.786681,154.2572 C160.192681,130.3812 178.978681,114.9992 191.319681,106.2992 C199.360681,100.6322 205.772681,96.9932 209.633681,94.9822 C210.605681,94.4752 211.035681,93.3212 210.629681,92.3032" id="Fill-8" fill="#141414"/></g><path d="M339.5702,197.9838 C339.2942,196.9138 339.9372,195.8238 341.0072,195.5478 C342.0772,195.2688 343.1682,195.9158 343.4432,196.9848 L351.2512,227.2668 C357.0452,230.1278 367.5532,235.0618 376.6732,237.9618 C390.0832,242.2248 405.8902,136.9558 405.8902,136.9558 C405.8902,136.9558 377.2532,123.5908 338.5662,102.3418 C304.3542,83.5488 207.9282,78.5768 161.6332,107.6918 C141.1372,116.8058 111.8722,136.7758 101.1952,146.1488 C101.1952,146.1488 116.4562,211.2648 140.2452,255.9268 C149.1402,251.8318 157.2162,246.5098 165.4642,241.3598 L165.4632,241.3698 C174.0782,235.5248 182.7872,228.7678 182.9032,228.6778 C183.7732,227.9978 185.0302,228.1528 185.7102,229.0258 C186.3892,229.8958 186.2342,231.1528 185.3622,231.8318 C184.8332,232.2448 171.492,242.89 162,249 L153.834,393.9483 L390.5622,390.4538 L348.1342,231.1978 L339.5702,197.9838 Z" id="T-shirt" fill="#1db29b"/><g id="neck" transform="translate(233.226576, 49.138400)"><path d="M3.89682368,1.9997 C3.89682368,1.9997 4.48582368,42.3487 2.33382368,48.3757 C0.18082368,54.4037 8.23282368,71.2107 34.2478237,75.1037 C61.7468237,79.2197 62.3268237,65.1517 62.9228237,59.7917 C59.9448237,38.3487 60.8508237,16.9127 60.8508237,16.9127" id="Fill-13" fill="#FFF"/><path d="M43.2577237,77.838 C40.4247237,77.838 37.3207237,77.587 33.9517237,77.082 C13.6257237,74.04 5.39472368,63.633 2.79972368,59.299 C0.25372368,55.048 -0.62527632,50.713 0.44972368,47.704 C1.93972368,43.531 2.13172368,18.103 1.89672368,2.029 C1.88072368,0.924 2.76272368,0.016 3.86772368,-1.42108547e-13 C4.94472368,0.014 5.88072368,0.866 5.89672368,1.97 C5.95772368,6.137 6.42772368,42.859 4.21672368,49.049 C3.67872368,50.556 4.09272368,53.674 6.23072368,57.244 C8.53472368,61.09 15.9047237,70.337 34.5437237,73.126 C44.7127237,74.647 52.0017237,73.769 56.2097237,70.513 C60.0957237,67.506 60.5657237,63.056 60.8767237,60.111 L60.9077237,59.822 C57.9797237,38.526 58.8437237,17.044 58.8527237,16.828 C58.8997237,15.725 59.8167237,14.861 60.9357237,14.915 C62.0387237,14.961 62.8957237,15.894 62.8487237,16.997 C62.8407237,17.21 61.9867237,38.511 64.9037237,59.516 C64.9267237,59.68 64.9287237,59.847 64.9107237,60.012 L64.8547237,60.531 C64.5187237,63.71 63.8937237,69.625 58.6567237,73.676 C55.0757237,76.447 49.9157237,77.838 43.2577237,77.838" id="Fill-15" fill="#141414"/></g></g></g><g id="Lower Body Floor" transform="translate(182.000000, 1025.000000) scale(1 1)"><g id="Lower Body Floor/Legs Stretched" stroke="none" stroke-width="1" fill="none" fill-rule="evenodd"><g id="Lower-Body" transform="translate(156.000000, -69.000000)"><g id="Sitting"><g id="Shoe-2" transform="translate(638.999820, 160.704082)"><polyline id="SKIN" fill="#FFF" points="2.57393501 92.005149 79.865935 96.1316804 79.514935 164.644398 2.00193501 163.026573"/><path d="M79.515335,166.801066 C79.502335,166.801066 79.490335,166.801066 79.476335,166.801066 L1.96133501,165.183241 C0.858335011,165.160591 -0.019664989,164.175875 -1.13686838e-13,162.985157 C0.023335011,161.793359 0.927335011,160.847471 2.03933501,160.87012 L77.526335,162.444803 L77.854335,98.1837292 L2.47433501,94.15966 C1.37033501,94.1003398 0.521335011,93.0886601 0.576335011,91.8979411 C0.630335011,90.7083007 1.60833501,89.804476 2.67133501,89.8508537 L79.963335,93.9773851 C81.033335,94.0345482 81.870335,94.9890648 81.8653573,96.1441916 L81.515335,164.65583 C81.512335,165.232854 81.294335,165.785072 80.911335,166.188449 C80.537335,166.581041 80.036335,166.801066 79.515335,166.801066" id="Fill-2" fill="#141414"/><path d="M70.949935,171.968937 C69.932935,171.690671 69.289935,170.612121 69.473935,169.497979 C69.650935,168.436686 69.889935,167.09497 70.172935,165.513816 C71.900935,155.827361 75.497935,135.670344 75.511935,116.568149 L75.511935,116.518536 C75.511935,105.266026 72.629935,99.8937698 67.444935,93.1754833 C67.032935,92.6416012 66.886935,91.9276012 67.046935,91.2524291 C74.960935,58.4666731 80.706935,30.2550468 91.561935,12.7005707 C93.470935,9.61483979 101.798935,-1.51147965 107.688935,0.412653143 C110.412935,1.30353525 111.793935,4.47231448 111.793935,9.8316283 C111.793935,29.4019139 111.894935,71.563503 111.984935,108.761606 C112.057935,138.859616 112.120935,164.853744 112.120935,174.640505 C112.120935,175.673755 111.685935,176.607779 110.896935,177.26893 C106.300935,181.122589 81.428935,174.846508 70.949935,171.968937" id="Fill-4" fill="#1db29b"/><path d="M85.917735,53.1304403 C85.917735,52.2729932 85.470735,51.4511383 84.704735,51.0585462 C77.696735,47.4594256 79.411735,40.544843 79.632735,39.7672086 C79.971735,38.56139 79.346735,37.2779157 78.230735,36.903659 C77.112735,36.5294022 75.927735,37.1916318 75.573735,38.3942148 C74.419735,42.3158217 74.461735,50.8773498 82.876735,55.1990987 C83.937735,55.7437664 85.205735,55.258419 85.710735,54.1151562 C85.851735,53.796984 85.917735,53.4615551 85.917735,53.1304403" id="Fill-8" fill="#141414"/><path d="M80.795635,73.3864678 C80.795635,72.5290208 80.348635,71.7071658 79.582635,71.3145737 C72.574635,67.7143746 74.289635,60.799792 74.510635,60.0243147 C74.850635,58.8174175 74.224635,57.5339433 73.108635,57.1596865 C71.990635,56.7854297 70.805635,57.4487379 70.451635,58.6502423 C69.298635,62.5761635 69.341635,71.1355345 77.754635,75.4551263 C78.815635,75.9997939 80.083635,75.5144465 80.588635,74.3711838 C80.729635,74.0530116 80.795635,73.7175826 80.795635,73.3864678" id="Fill-10" fill="#141414"/></g><g id="Pant-2" transform="translate(8.907048, 174.704729)"><path d="M0.0927723119,0.250978532 C0.0927723119,0.250978532 -6.85142769,165.169112 99.4185723,165.169112 C240.229572,165.169112 650.031572,169.019535 650.031572,169.019535 L650.700572,57.4985669 L187.684572,0 L0.0927723119,0.250978532 Z" id="pant-2" fill="#141414"/><path d="M219.826672,118.524962 C219.803672,118.524962 219.779672,118.524962 219.756672,118.523884 L209.762672,118.151784 C208.658672,118.109721 207.794672,117.110983 207.832672,115.921343 C207.870672,114.729546 208.804672,113.807385 209.900672,113.839742 L219.894672,114.211842 C220.998672,114.252827 221.862672,115.251564 221.824672,116.442283 C221.787672,117.607116 220.899672,118.524962 219.826672,118.524962 M241.812672,119.34466 C241.789672,119.34466 241.765672,119.343581 241.742672,119.343581 L231.749672,118.971482 C230.645672,118.929418 229.781672,117.930681 229.819672,116.741041 C229.857672,115.549243 230.783672,114.620612 231.888672,114.65944 L241.881672,115.031539 C242.984672,115.072524 243.848672,116.071261 243.810672,117.26198 C243.773672,118.426814 242.886672,119.34466 241.812672,119.34466 M263.800672,120.164358 C263.776672,120.164358 263.753672,120.163279 263.729672,120.163279 L253.735672,119.790101 C252.632672,119.749116 251.767672,118.750379 251.805672,117.55966 C251.844672,116.368941 252.763672,115.433839 253.874672,115.478059 L263.868672,115.851237 C264.972672,115.892222 265.836672,116.890959 265.798672,118.0806 C265.761672,119.246512 264.873672,120.164358 263.800672,120.164358 M285.787672,120.982977 C285.764672,120.982977 285.740672,120.982977 285.717672,120.981899 L275.722672,120.609799 C274.619672,120.568814 273.755672,119.570077 273.793672,118.379358 C273.831672,117.188639 274.764672,116.271872 275.861672,116.297757 L285.855672,116.669857 C286.959672,116.71192 287.823672,117.710657 287.785672,118.900297 C287.748672,120.06621 286.860672,120.982977 285.787672,120.982977 M307.773672,121.802675 C307.750672,121.802675 307.726672,121.802675 307.703672,121.801596 L297.709672,121.429497 C296.605672,121.387433 295.741672,120.389775 295.779672,119.199056 C295.817672,118.008337 296.744672,117.085098 297.847672,117.117455 L307.842672,117.489554 C308.945672,117.531618 309.809672,118.529276 309.771672,119.719995 C309.734672,120.884829 308.847672,121.802675 307.773672,121.802675 M329.761672,122.622373 C329.737672,122.622373 329.714672,122.621294 329.690672,122.621294 L319.696672,122.249195 C318.593672,122.207131 317.728672,121.208394 317.766672,120.018754 C317.805672,118.826956 318.723672,117.898325 319.835672,117.937153 L329.829672,118.309252 C330.932672,118.350237 331.797672,119.348974 331.759672,120.539693 C331.722672,121.704527 330.834672,122.622373 329.761672,122.622373 M351.747672,123.442071 C351.723672,123.442071 351.700672,123.440992 351.677672,123.440992 L341.682672,123.067814 C340.579672,123.02575 339.715672,122.028092 339.753672,120.837373 C339.791672,119.646654 340.725672,118.711551 341.821672,118.755772 L351.815672,119.12895 C352.919672,119.169935 353.783672,120.168672 353.745672,121.359391 C353.708672,122.524225 352.820672,123.442071 351.747672,123.442071 M373.734672,124.26069 C373.711672,124.26069 373.687672,124.26069 373.664672,124.259611 L363.670672,123.887512 C362.566672,123.845448 361.702672,122.846711 361.740672,121.655992 C361.779672,120.466352 362.705672,119.549584 363.808672,119.57547 L373.803672,119.947569 C374.906672,119.989633 375.770672,120.98837 375.732672,122.179089 C375.694672,123.343923 374.807672,124.26069 373.734672,124.26069 M395.721672,125.080388 C395.697672,125.080388 395.674672,125.080388 395.650672,125.079309 L385.657672,124.706131 C384.554672,124.665146 383.689672,123.666409 383.727672,122.47569 C383.764672,121.284971 384.707672,120.362811 385.796672,120.394089 L395.789672,120.767267 C396.892672,120.809331 397.757672,121.806989 397.719672,122.997708 C397.680672,124.16362 396.794672,125.080388 395.721672,125.080388 M417.708672,125.899007 C417.684672,125.899007 417.661672,125.899007 417.638672,125.897928 L407.643672,125.525829 C406.540672,125.484844 405.676672,124.486107 405.714672,123.295388 C405.751672,122.104669 406.685672,121.176038 407.782672,121.213787 L417.776672,121.585886 C418.880672,121.62795 419.744672,122.626687 419.706672,123.816327 C419.669672,124.98224 418.781672,125.899007 417.708672,125.899007 M439.695672,126.718705 C439.672672,126.718705 439.648672,126.718705 439.625672,126.717626 L429.631672,126.345527 C428.527672,126.303463 427.663672,125.305805 427.701672,124.115086 C427.739672,122.924367 428.665672,121.988185 429.769672,122.033485 L439.763672,122.405584 C440.867672,122.447648 441.731672,123.445306 441.693672,124.636025 C441.656672,125.801937 440.768672,126.718705 439.695672,126.718705 M461.681672,127.538403 C461.658672,127.538403 461.635672,127.537324 461.611672,127.537324 L451.617672,127.165224 C450.513672,127.123161 449.649672,126.124424 449.687672,124.934783 C449.725672,123.742986 450.644672,122.826219 451.756672,122.853182 L461.750672,123.225282 C462.853672,123.266267 463.718672,124.265004 463.680672,125.455723 C463.642672,126.620557 462.755672,127.538403 461.681672,127.538403 M483.669672,128.3581 C483.645672,128.3581 483.622672,128.357022 483.598672,128.357022 L473.604672,127.984922 C472.501672,127.942859 471.637672,126.944122 471.675672,125.754481 C471.713672,124.562684 472.624672,123.639445 473.743672,123.671802 L483.737672,124.04498 C484.841672,124.085965 485.705672,125.084702 485.667672,126.275421 C485.630672,127.440255 484.742672,128.3581 483.669672,128.3581 M505.655672,129.17672 C505.632672,129.17672 505.608672,129.17672 505.585672,129.175641 L495.591672,128.803541 C494.487672,128.762557 493.623672,127.76382 493.661672,126.573101 C493.699672,125.382382 494.603672,124.452672 495.729672,124.491499 L505.723672,124.863599 C506.827672,124.905663 507.691672,125.9044 507.653672,127.09404 C507.616672,128.259952 506.728672,129.17672 505.655672,129.17672 M527.642672,129.996418 C527.619672,129.996418 527.596672,129.996418 527.572672,129.995339 L517.578672,129.623239 C516.474672,129.581176 515.610672,128.583517 515.648672,127.392798 C515.685672,126.202079 516.628672,125.265898 517.717672,125.311197 L527.711672,125.683297 C528.814672,125.72536 529.679672,126.724098 529.640672,127.913738 C529.603672,129.07965 528.716672,129.996418 527.642672,129.996418 M549.629672,130.816115 C549.605672,130.816115 549.582672,130.816115 549.558672,130.815037 L539.564672,130.442937 C538.461672,130.400874 537.597672,129.402137 537.635672,128.212496 C537.672672,127.020699 538.607672,126.103931 539.703672,126.130895 L549.697672,126.502995 C550.801672,126.54398 551.665672,127.542717 551.627672,128.733436 C551.590672,129.89827 550.702672,130.816115 549.629672,130.816115 M571.616672,131.635813 C571.593672,131.635813 571.569672,131.634735 571.546672,131.634735 L561.552672,131.262635 C560.448672,131.220572 559.584672,130.221834 559.622672,129.032194 C559.660672,127.840397 560.587672,126.917158 561.690672,126.950593 L571.684672,127.322693 C572.788672,127.363678 573.652672,128.362415 573.614672,129.553134 C573.577672,130.717967 572.689672,131.635813 571.616672,131.635813 M593.603672,132.455511 C593.580672,132.455511 593.556672,132.454432 593.533672,132.454432 L583.539672,132.081254 C582.435672,132.039191 581.571672,131.040454 581.609672,129.849735 C581.647672,128.659016 582.566672,127.730384 583.678672,127.769212 L593.672672,128.14239 C594.775672,128.183375 595.639672,129.182112 595.601672,130.372831 C595.564672,131.537665 594.677672,132.455511 593.603672,132.455511 M615.590672,133.27413 C615.566672,133.27413 615.543672,133.27413 615.519672,133.273052 L605.525672,132.900952 C604.422672,132.858889 603.557672,131.860152 603.596672,130.669433 C603.634672,129.479792 604.545672,128.543611 605.664672,128.58891 L615.658672,128.96101 C616.762672,129.003073 617.626672,130.00181 617.588672,131.192529 C617.551672,132.357363 616.663672,133.27413 615.590672,133.27413 M630.504672,133.829583 C630.480672,133.829583 630.457672,133.829583 630.433672,133.828505 L627.512672,133.719571 C626.409672,133.678586 625.545672,132.679849 625.583672,131.48913 C625.622672,130.298411 626.524672,129.381644 627.651672,129.407529 L630.572672,129.516463 C631.676672,129.558526 632.540672,130.557263 632.502672,131.747982 C632.465672,132.912816 631.577672,133.829583 630.504672,133.829583" id="Fill-14" fill-opacity=".5" fill="#FFF" style="mix-blend-mode:overlay"/></g><g id="Shoe-1" transform="translate(394.000000, 229.731101)"><polyline id="SKIN" fill="#FFF" points="64.0084014 2.15740333 97.2984014 67.4689847 30.9954014 76.1567031 2.00040145 32.1400084"/><path d="M30.9957014,78.3136948 C30.3527014,78.3136948 29.7427014,77.9793444 29.3647014,77.4055559 L0.369701448,33.3888612 C-0.270298552,32.4181664 -0.0582985517,31.0710577 0.842701448,30.3818644 C1.74270145,29.6915926 2.99170145,29.9191666 3.63170145,30.8909399 L31.9357014,73.8603628 L94.1207014,65.7119193 L62.2557014,3.19701745 C61.7237014,2.15298127 62.0767014,0.8403862 63.0447014,0.267676272 C64.0147014,-0.307190756 65.2297014,0.0746158628 65.7617014,1.11865204 L99.0517014,66.4291549 C99.3707014,67.0568709 99.3817014,67.8150913 99.0787014,68.4525143 C98.7747014,69.0899372 98.1987014,69.5235142 97.5397014,69.6097982 L31.2367014,78.2975166 C31.1557014,78.3083021 31.0757014,78.3136948 30.9957014,78.3136948" id="Fill-18" fill="#141414"/><path d="M11.8990014,59.5865116 C12.1570014,58.4896265 13.1570014,57.796119 14.1900014,57.9945721 C15.1730014,58.1854754 16.4180014,58.4432488 17.8830014,58.7484784 C26.8650014,60.6122124 45.5540014,64.4917559 63.2650014,64.5068556 L63.3100014,64.5068556 C73.7440014,64.5068556 82.9200014,61.4286746 89.1480014,55.836394 C89.6430014,55.3920315 90.3050014,55.2345633 90.9310014,55.4071312 C121.329001,63.9427741 143.292001,70.1099217 159.568001,81.8175795 C162.428001,83.876531 172.745001,92.8586935 170.960001,99.2113516 C170.135001,102.149321 167.197001,103.638798 162.227001,103.638798 C144.083001,103.638798 104.992001,103.747732 70.5030014,103.844801 C42.5960014,103.923536 18.4960014,103.991484 9.42200145,103.991484 C8.46300145,103.991484 7.59800145,103.522315 6.98500145,102.671339 C3.41200145,97.7143245 9.23100145,70.8886346 11.8990014,59.5865116" id="Fill-20" fill="#1db29b"/><path d="M9.78770145,113.490272 L166.623701,113.490272 C169.229701,113.490272 171.342701,111.211296 171.342701,108.400596 L171.342701,106.718058 C171.342701,103.907357 169.229701,101.627303 166.623701,101.627303 L9.78770145,101.627303 C7.18170145,101.627303 5.06770145,103.907357 5.06770145,106.718058 L5.06770145,108.400596 C5.06770145,111.211296 7.18170145,113.490272 9.78770145,113.490272" id="Fill-22" fill="#141414"/><path d="M122.082601,75.7300288 C122.877601,75.7300288 123.639601,75.2479171 124.003601,74.421748 C127.340601,66.8632712 133.751601,68.712984 134.472601,68.9513435 C135.590601,69.3169719 136.779601,68.6428783 137.127601,67.4392168 C137.474601,66.2333981 136.859601,64.9553166 135.745601,64.57351 C132.109601,63.3288636 124.171601,63.3741627 120.163601,72.450159 C119.658601,73.5945003 120.108601,74.9621014 121.169601,75.506769 C121.464601,75.6588446 121.775601,75.7300288 122.082601,75.7300288" id="Fill-24" fill="#141414"/><path d="M103.301301,70.2055891 C104.096301,70.2055891 104.859301,69.7234773 105.223301,68.8973082 C108.560301,61.3388314 114.971301,63.1885443 115.691301,63.4269038 C116.810301,63.7936107 117.999301,63.1184385 118.346301,61.914777 C118.693301,60.7089583 118.078301,59.4308768 116.964301,59.0490702 C113.324301,57.8055023 105.388301,57.85188 101.383301,66.9257192 C100.878301,68.0700605 101.328301,69.4376616 102.389301,69.9823293 C102.684301,70.1344048 102.994301,70.2055891 103.301301,70.2055891" id="Fill-26" fill="#141414"/></g><g id="Pant-1"><path d="M8.86032001,174.067746 C-26.8365545,278.543303 58.2478612,379.061337 152.339861,332.129322 C191.720861,312.487853 281.51232,181.515132 296.58132,164.44061 C292.88632,156.569354 287.26032,149.354935 284.39732,145.687865 C282.88432,143.748633 282.52332,143.288092 282.33332,142.670083 C281.98232,141.540842 282.54832,140.318845 283.59632,139.941352 C284.55232,139.594059 285.58032,140.075092 286.01832,141.020981 C286.21032,141.31111 286.84332,142.123258 287.45732,142.909521 C290.78232,147.167636 297.70032,156.027922 301.48132,165.545045 C301.60332,165.850275 301.64732,166.167369 301.63632,166.477991 L357.20532,276.216116 C357.20532,276.216116 449.22232,256.226274 474.16732,232.989998 C400.46432,57.4937721 349.28932,-29.0123909 272.62432,8.72390854 C244.78832,22.4247263 8.86032001,174.067746 8.86032001,174.067746 Z" id="pant-1" fill="#0B379B"/><path d="M391.82102,248.191834 C392.82202,247.692465 394.01202,248.160556 394.47602,249.242341 C396.58502,254.159449 398.03502,257.606495 398.67802,259.140192 C399.13302,260.226292 398.68602,261.503295 397.67902,261.994035 C397.41202,262.12454 397.13202,262.186017 396.85702,262.186017 C396.09502,262.186017 395.36702,261.714691 395.03302,260.916564 C394.39302,259.388259 392.94902,255.954156 390.84602,251.055383 C390.38102,249.973598 390.81802,248.691202 391.82102,248.191834 Z M382.37822,226.663657 C383.37522,226.14811 384.56822,226.601101 385.04622,227.675336 C386.59222,231.150424 388.03622,234.425979 389.36622,237.45994 C389.83822,238.537411 389.41122,239.823042 388.41222,240.332118 C388.13622,240.472329 387.84622,240.539199 387.55922,240.539199 C386.81022,240.539199 386.09122,240.082973 385.74922,239.303181 C384.42322,236.276771 382.98322,233.008765 381.44022,229.541227 C380.96222,228.466992 381.38222,227.179203 382.37822,226.663657 Z M372.67282,205.288957 C373.66482,204.758311 374.86282,205.194045 375.35382,206.260731 C376.88582,209.588057 378.36882,212.834491 379.79082,215.977385 C380.27682,217.047307 379.86482,218.339409 378.87282,218.862506 C378.58882,219.010267 378.29082,219.081452 377.99682,219.081452 C377.25482,219.081452 376.54382,218.636011 376.19782,217.87024 C374.77882,214.735975 373.29982,211.498168 371.77182,208.179471 C371.28082,207.112785 371.68382,205.818525 372.67282,205.288957 Z M70.60412,143.413635 C71.51512,142.738463 72.75912,142.988687 73.38412,143.971246 C73.57912,144.277554 78.18312,151.580414 81.05912,161.895664 C84.67812,174.874932 83.85912,186.774572 78.71212,196.47397 C81.39412,196.995988 84.11212,197.303375 86.81812,197.363774 C87.92212,197.387502 88.79912,198.373296 88.77612,199.565094 C88.75412,200.740713 87.86312,201.677973 86.77712,201.677973 C86.76412,201.677973 86.75012,201.677973 86.73612,201.676894 C83.29812,201.600317 79.83812,201.17429 76.45112,200.40852 C75.78412,200.257523 75.26612,199.763547 75.02012,199.133674 C74.95812,199.09916 74.89112,199.081903 74.83112,199.038761 C73.90912,198.384082 73.65312,197.04668 74.26112,196.051178 C87.52912,174.319479 70.26212,146.689191 70.08712,146.413082 C69.46212,145.430523 69.69312,144.087729 70.60412,143.413635 Z M107.61552,193.401829 C108.65152,192.986587 109.80252,193.559297 110.18552,194.675596 C110.56952,195.791895 110.04152,197.033306 109.00552,197.447469 C105.71352,198.7633 102.37852,199.785765 99.09352,200.487901 C98.96152,200.515943 98.83052,200.529964 98.70252,200.529964 C97.76652,200.529964 96.93052,199.818121 96.74252,198.791342 C96.52752,197.623273 97.23252,196.48756 98.31552,196.255671 C101.39352,195.598835 104.52252,194.637847 107.61552,193.401829 Z M362.68222,184.07604 C363.66222,183.529216 364.86922,183.945536 365.37622,185.003593 C366.93122,188.252185 368.45622,191.471656 369.94822,194.643671 C370.44822,195.706043 370.05522,197.004616 369.07022,197.543891 C368.78022,197.702438 368.47122,197.777937 368.16722,197.777937 C367.43822,197.777937 366.73422,197.345438 366.38222,196.595846 C364.89422,193.43246 363.37222,190.221617 361.82122,186.982732 C361.31422,185.924675 361.70022,184.622865 362.68222,184.07604 Z M54.98772,188.035504 C55.58372,187.033532 56.82272,186.741245 57.75072,187.385139 C60.51872,189.300643 63.38672,190.970238 66.27472,192.345389 C67.28472,192.826422 67.74272,194.10019 67.29572,195.190604 C66.96572,195.99628 66.23372,196.476235 65.46572,196.476235 C65.19572,196.476235 64.92172,196.416915 64.65872,196.291803 C61.58272,194.827132 58.53172,193.051839 55.59072,191.015537 C54.66072,190.371643 54.39072,189.037477 54.98772,188.035504 Z M126.42702,182.391993 C127.32402,181.697407 128.57402,181.922824 129.21702,182.893518 C129.85902,183.863135 129.65002,185.210243 128.75102,185.902672 C125.90102,188.0986 123.00702,190.092838 120.15102,191.830382 C119.84002,192.019128 119.50302,192.108648 119.17002,192.108648 C118.47202,192.108648 117.79402,191.713898 117.42602,191.010684 C116.88402,189.973119 117.22302,188.658367 118.18602,188.072714 C120.91902,186.409591 123.69102,184.4984 126.42702,182.391993 Z M39.06112,171.755658 C39.94412,171.038423 41.19712,171.230405 41.86212,172.17845 C41.88512,172.211885 44.23312,175.541368 48.50012,179.721827 C49.31812,180.52319 49.37912,181.886476 48.63612,182.76873 C48.24112,183.237899 47.69912,183.476259 47.15512,183.476259 C46.67512,183.476259 46.19412,183.290748 45.81112,182.915413 C41.24112,178.439431 38.77012,174.921202 38.66712,174.774519 C38.00312,173.823238 38.18012,172.471815 39.06112,171.755658 Z M143.63402,167.765779 C144.50102,167.026973 145.75902,167.188755 146.44302,168.124936 C147.12602,169.061118 146.97702,170.416855 146.11002,171.154583 C143.51302,173.360217 140.90502,175.596051 138.29002,177.857769 C137.92102,178.17702 137.47902,178.332331 137.04002,178.332331 C136.45402,178.332331 135.87402,178.056223 135.47902,177.524498 C134.78702,176.595866 134.92602,175.237972 135.78702,174.492694 C138.41102,172.222347 141.02902,169.978963 143.63402,167.765779 Z M352.34982,163.062008 C353.32182,162.491455 354.53582,162.885126 355.06082,163.932398 C356.65782,167.115198 358.23782,170.303391 359.79682,173.482956 C360.31382,174.536699 359.94182,175.841744 358.96482,176.399354 C358.66582,176.568687 358.34682,176.649578 358.03182,176.649578 C357.31382,176.649578 356.62082,176.232179 356.26182,175.500923 C354.70782,172.333222 353.13382,169.155814 351.54282,165.984878 C351.01682,164.937606 351.37882,163.628247 352.34982,163.062008 Z M161.07302,153.217437 C161.95202,152.496966 163.20702,152.681398 163.87602,153.629443 C164.54402,154.577488 164.37302,155.931068 163.49402,156.652618 C160.87902,158.795697 158.23302,160.981917 155.56202,163.204808 C155.19802,163.50788 154.76802,163.654563 154.34202,163.654563 C153.74302,163.654563 153.15102,163.365512 152.75702,162.815452 C152.08202,161.87172 152.24302,160.518141 153.11802,159.790119 C155.79602,157.559678 158.45002,155.368065 161.07302,153.217437 Z M341.57982,142.310063 C342.53582,141.715782 343.75882,142.071704 344.30982,143.104954 C345.96582,146.214413 347.61782,149.363779 349.25882,152.537951 C349.79782,153.577673 349.45282,154.892425 348.48782,155.472685 C348.17882,155.658195 347.84382,155.746636 347.51482,155.746636 C346.81282,155.746636 346.13182,155.347573 345.76682,154.640044 C344.13282,151.482051 342.48982,148.347785 340.84082,145.254504 C340.29082,144.221253 340.62182,142.903266 341.57982,142.310063 Z M178.72972,138.983061 C179.62272,138.275532 180.87272,138.483692 181.52672,139.442523 C182.18072,140.401354 181.99072,141.751698 181.10072,142.458148 C178.47972,144.536514 175.79972,146.677435 173.07172,148.873362 C172.71172,149.162414 172.29272,149.301546 171.87672,149.301546 C171.26672,149.301546 170.66572,149.002788 170.27272,148.435471 C169.61172,147.479876 169.79372,146.128453 170.67872,145.415532 C173.41572,143.214212 176.10272,141.067898 178.72972,138.983061 Z M196.58132,125.037197 C197.48032,124.343689 198.73032,124.571263 199.37032,125.540879 C200.01232,126.510496 199.80332,127.857604 198.90332,128.550033 C196.30332,130.550743 193.59232,132.648522 190.78732,134.8369 C190.43332,135.113009 190.02332,135.24567 189.61732,135.24567 C188.99732,135.24567 188.38632,134.936126 187.99532,134.352631 C187.34832,133.387329 187.54832,132.039142 188.44332,131.34132 C191.25632,129.14755 193.97332,127.043299 196.58132,125.037197 Z M330.19052,121.938199 C331.12752,121.305091 332.36052,121.612477 332.94752,122.622 C334.64252,125.541634 336.41152,128.655407 338.20352,131.878114 C338.77152,132.899501 338.46552,134.22396 337.51752,134.837655 C337.19552,135.045815 336.84152,135.145041 336.49052,135.145041 C335.81052,135.145041 335.14852,134.771863 334.77352,134.09777 C332.99452,130.898791 331.23852,127.808746 329.55652,124.911761 C328.97052,123.902239 329.25452,122.571308 330.19052,121.938199 Z M214.62532,111.372079 C215.53432,110.693671 216.78032,110.940659 217.40732,111.921061 C218.03532,112.901462 217.80732,114.245335 216.89832,114.921586 C214.40332,116.779927 211.65832,118.838879 208.69532,121.080105 C208.34632,121.34435 207.94532,121.47054 207.54932,121.47054 C206.91932,121.47054 206.29932,121.150211 205.90932,120.552694 C205.27532,119.576607 205.49432,118.231655 206.39832,117.547855 C209.37132,115.300157 212.12432,113.235813 214.62532,111.372079 Z M317.83032,102.235684 C318.72632,101.537862 319.97632,101.756808 320.62232,102.721031 C322.47332,105.483197 324.41032,108.493429 326.38232,111.667601 C326.99632,112.65771 326.75032,113.997269 325.83332,114.660577 C325.49132,114.907565 325.10432,115.025127 324.72232,115.025127 C324.07732,115.025127 323.44332,114.689698 323.05832,114.068453 C321.11232,110.936345 319.20232,107.968176 317.38032,105.248073 C316.73332,104.281693 316.93432,102.933505 317.83032,102.235684 Z M233.13992,98.116055 C234.10192,97.5250097 235.32192,97.888481 235.86892,98.9228102 C236.41392,99.958218 236.07892,101.275127 235.11992,101.865094 C233.65392,102.765683 232.74592,103.342707 232.55092,103.46674 C232.54992,103.467819 232.54892,103.468897 232.54692,103.469976 C232.22892,103.696471 230.20492,105.138493 226.79992,107.621314 C226.45592,107.871538 226.06692,107.991257 225.68192,107.991257 C225.03992,107.991257 224.40992,107.659063 224.02292,107.042133 C223.40492,106.05526 223.64492,104.714622 224.55992,104.048079 C227.98592,101.550157 230.02192,100.098429 230.34192,99.8697769 L230.34192,99.8697769 C230.38292,99.8406561 230.42492,99.8115352 230.46692,99.7834929 C230.46692,99.7834929 231.43492,99.1633268 233.13992,98.116055 Z M252.78152,86.9914612 C253.77452,86.4759144 254.97152,86.9267482 255.45052,88.0020623 C255.92852,89.0762979 255.50952,90.3640863 254.51352,90.8796331 C251.64252,92.3669533 248.65052,93.9858565 245.61952,95.6921222 C245.32352,95.8592974 245.00752,95.9380316 244.69552,95.9380316 C243.97352,95.9380316 243.27752,95.5163186 242.92052,94.7785906 C242.40952,93.7226903 242.78952,92.4198022 243.76752,91.8675847 C246.83952,90.139748 249.87152,88.4981952 252.78152,86.9914612 Z M303.50232,84.1866925 C304.27732,83.3367953 305.54532,83.3270884 306.33032,84.1618859 C308.49132,86.4548827 310.80432,89.2008704 313.20432,92.3254291 C313.90932,93.2421964 313.79132,94.6022477 312.94032,95.3626253 C312.56732,95.6958971 312.11532,95.8587582 311.66532,95.8587582 C311.09032,95.8587582 310.51932,95.5934349 310.12432,95.0789667 C307.80932,92.0665772 305.59032,89.4284444 303.52532,87.2379098 C302.73732,86.4020338 302.72732,85.0365898 303.50232,84.1866925 Z M273.35282,77.7700764 C274.40582,77.3936625 275.53282,78.0084359 275.87982,79.138756 C276.22782,80.2701547 275.65982,81.4899945 274.61082,81.8653299 C271.77982,82.8770095 268.67182,84.1389128 265.37482,85.6132903 C265.12382,85.7254595 264.86482,85.7783084 264.60982,85.7783084 C263.82482,85.7783084 263.08082,85.2778613 262.76082,84.447378 C262.33782,83.3472572 262.82282,82.0842755 263.84182,81.6291275 C267.22882,80.1126865 270.42882,78.8151911 273.35282,77.7700764 Z M285.39022,74.6035621 C288.46522,74.1872419 291.08622,74.2584262 293.21622,74.8128008 C294.19122,75.06626 295.21222,75.4620877 296.25422,75.9894986 C297.25322,76.496417 297.68422,77.7809697 297.21422,78.8595195 C296.87322,79.6414681 296.15322,80.0998517 295.40222,80.0998517 C295.11722,80.0998517 294.82822,80.0340602 294.55322,79.8949273 C293.75522,79.4904711 292.99022,79.1917128 292.27722,79.0062023 C290.63222,78.5769395 288.46622,78.534876 285.88822,78.8843261 C284.78722,79.0320875 283.79222,78.1940543 283.65422,77.0119637 C283.51722,75.8309517 284.29422,74.752402 285.39022,74.6035621 Z" id="Combined-Shape" fill-opacity=".8" fill="#FFF" style="mix-blend-mode:overlay"/></g></g></g></g></g><g id="Head" transform="translate(357.000000, 673.000000) scale(1 1)"><g id="Head/Short Hair 4" stroke="none" stroke-width="1" fill="none" fill-rule="evenodd"><g id="Short-Hair" transform="translate(4.000076, -0.999876)"><path d="M148.656724,91.1807762 C141.372724,46.6367762 119.609724,45.3307762 78.981724,48.3837762 C59.904724,49.8167762 36.092724,67.0937762 38.223724,98.4007762 C27.074724,94.1317762 20.822724,101.159776 21.199724,109.557776 C21.539724,117.097776 24.951724,127.030776 38.822724,127.030776 C40.166724,150.025776 55.176724,187.069776 102.317724,187.069776 C150.451724,187.069776 154.972724,129.807776 148.656724,91.1807762" id="SKIN" fill="#FFF"/><path d="M134.120624,171.340376 C114.076624,195.314376 68.521624,185.620376 53.235624,162.175376 C45.079624,152.308376 40.867624,133.557376 40.819624,126.914376 C40.812624,125.854376 39.881624,125.030376 38.822624,125.030376 C23.856624,125.935376 18.866624,107.491376 26.850624,100.631376 C30.598624,97.8083762 35.746624,98.7553762 39.558624,100.937376 C40.125624,101.262376 55.261624,100.025376 64.936624,71.0023762 C83.792624,81.9793762 119.158624,87.3553762 143.696624,78.2193762 C151.496624,107.091376 152.336624,149.278376 134.120624,171.340376 M42.971624,31.4713762 C52.315624,-1.92862383 106.582624,-10.0816238 126.499624,13.4813762 C148.543624,3.23737617 176.870624,6.21937617 180.716624,30.2633762 C182.976624,50.3173762 166.339624,67.3323762 147.377624,76.6643762 C155.704624,107.035376 156.648624,150.335376 137.170624,173.929376 C111.316624,204.847376 55.094624,183.990376 44.703624,155.778376 C33.897624,153.042376 28.481624,145.170376 24.224624,131.587376 C7.74362396,123.486376 -18.849376,64.6143762 20.356624,36.5423762 C27.497624,31.7913762 35.456624,30.0203762 42.971624,31.4713762 Z M32.783224,107.032276 C29.827224,106.929276 29.827224,115.161276 32.783224,115.058276 C35.739224,115.161276 35.739224,106.928276 32.783224,107.032276 Z" id="hair" fill="#141414"/></g></g></g><g id="Face" transform="translate(417.000000, 759.000000) scale(1 1)"><g id="Face/Grinning" stroke="none" stroke-width="1" fill="none" fill-rule="evenodd"><g id="grinning" transform="translate(8.999667, 8.000017)"><path d="M22.6082334,57.6808827 C35.4822334,63.1958827 56.0632334,50.3028827 65.3912334,56.3988827 C78.6432334,80.2898827 -6.39676655,79.6908827 18.0852334,57.0298827 C19.6652334,56.4638827 21.1712334,57.1078827 22.6082334,57.6808827 Z M42.3452334,61.6248827 C40.2962334,61.9758827 38.2232334,62.2768827 36.1412334,62.4558827 C36.2522334,65.3768827 36.2602334,68.2978827 35.9502334,71.2068827 C38.1592334,71.2328827 40.3742334,71.1408827 42.5722334,70.9508827 C42.9002334,70.9188827 43.2302334,70.8798827 43.5582334,70.8428827 C42.3572334,68.0158827 42.1112334,64.6758827 42.3452334,61.6248827 Z M28.4422334,62.5188827 C28.5862334,62.6948827 27.8082334,70.2128827 27.6982334,70.4818827 C29.7592334,70.8538827 31.8432334,71.0538827 33.9432334,71.1528827 C33.8382334,68.2888827 34.0502334,65.4358827 34.3532334,62.5888827 C32.3992334,62.7018827 30.4222334,62.6968827 28.4422334,62.5188827 Z M49.3882334,60.2478827 C47.6282334,60.6248827 45.8502334,60.9838827 44.0552334,61.3168827 C45.1302334,63.5228827 44.8992334,66.1408827 45.1392334,68.5408827 C45.1252334,69.2468827 45.3042334,69.9328827 44.9072334,70.6788827 C47.2462334,70.3698827 49.5652334,69.9268827 51.8072334,69.3068827 C49.7272334,67.0468827 50.0402334,63.1708827 49.3882334,60.2478827 Z M25.6812334,62.1408827 C23.4352334,62.2628827 19.8462334,59.3498827 18.3152334,60.7918827 C16.5302334,62.6788827 16.7462334,66.2898827 19.2072334,67.5928827 C20.8212334,68.6958827 22.8632334,69.3688827 24.7972334,69.8678827 C24.8552334,69.7018827 25.4562334,61.9678827 25.6812334,62.1408827 Z M56.4342334,58.8388827 C54.9732334,59.0738827 53.4692334,59.3688827 51.9852334,59.6868827 C52.7152334,62.5848827 54.2732334,65.7188827 53.7802334,68.7048827 C54.5272334,68.4558827 55.2682334,68.1928827 55.9892334,67.8968827 C56.7452334,67.5798827 57.4772334,67.2188827 58.1852334,66.8338827 C57.4442334,64.2038827 56.8572334,61.5388827 56.4342334,58.8388827 Z M61.4192334,64.5068827 C64.7182334,60.7008827 63.3362334,57.4608827 58.1472334,58.6028827 C58.8332334,60.9828827 59.3792334,63.3938827 59.8092334,65.8318827 C60.3932334,65.4208827 60.9472334,64.9888827 61.4192334,64.5068827 Z M39.3146334,33.3954827 C38.9126334,31.5214827 36.9716334,10.9114827 41.5806334,17.7494827 C42.0436334,22.7554827 42.1536334,27.9134827 43.2146334,32.8004827 C54.1076334,36.9484827 50.0086334,49.4944827 38.9306334,48.2354827 C36.3596334,48.2664827 36.3466334,44.2244827 38.9126334,44.2354827 C41.0756334,44.1834827 44.3146334,43.9014827 45.2666334,42.0174827 C46.8396334,36.5074827 39.6246334,37.7874827 39.3146334,33.3954827 Z M8.15773345,23.1084827 C10.3687334,20.0754827 14.0897334,17.9164827 18.0187334,18.2884827 C26.0427334,18.9144827 25.4647334,26.8244827 20.3637334,24.0244827 C19.6767334,23.2304827 18.7097334,22.6934827 17.5637334,22.5234827 C10.1117334,21.5764827 10.2417334,31.1524827 6.79173345,30.0444827 C4.14173345,28.4814827 7.11173345,25.0034827 8.15773345,23.1084827 Z M59.0581334,11.2129827 C62.7621334,10.2069827 73.4911334,15.3709827 69.2571334,19.6289827 C68.3681334,20.0659827 67.3131334,19.7729827 66.7661334,18.9829827 C63.0711334,13.5459827 55.0381334,14.7199827 51.2221334,19.5589827 C50.6661334,20.1369827 49.7471334,20.1539827 49.1691334,19.5989827 C47.6801334,15.6359827 55.4591334,11.3349827 59.0581334,11.2129827 Z M0.65703345,7.98598271 C3.10403345,5.26698271 16.3930334,3.07898271 16.6240334,7.86398271 C15.8010334,9.55498271 13.4010334,8.56598271 11.9270334,9.04398271 C8.56903345,9.33698271 5.38003345,10.7699827 2.07303345,11.2439827 C0.27603345,11.5399827 -0.74796655,9.07398271 0.65703345,7.98598271 Z M52.1047334,4.86918271 C46.3897334,3.16618271 56.1067334,-0.567817285 58.3787334,0.0731827147 C61.2867334,-0.594817285 70.5307334,3.70018271 64.2737334,5.68718271 C60.2387334,5.01618271 56.2137334,3.60418271 52.1047334,4.86918271 Z" id="face" fill="#141414"/><path d="M17.7141334,42.2314827 C20.1591334,41.0904827 21.9241334,44.8864827 19.4841334,46.0244827 C17.0381334,47.1654827 15.2741334,43.3704827 17.7141334,42.2314827 Z M8.26403345,45.8471827 C4.37203345,45.1871827 8.66703345,40.1581827 10.0090334,43.3681827 C10.8500334,44.6371827 9.86403345,46.4341827 8.26403345,45.8471827 Z M60.4292334,33.7831827 C62.8982334,33.7631827 62.9352334,37.5991827 60.4612334,37.6201827 C57.9922334,37.6411827 57.9562334,33.8051827 60.4292334,33.7831827 Z M13.5093334,35.1053827 C14.9893334,34.4153827 16.0583334,36.7133827 14.5803334,37.4023827 C13.0993334,38.0923827 12.0303334,35.7953827 13.5093334,35.1053827 Z M20.8537334,32.5691827 C22.8727334,31.6281827 24.3297334,34.7621827 22.3147334,35.7021827 C20.2947334,36.6431827 18.8377334,33.5101827 20.8537334,32.5691827 Z M67.2532334,31.6845827 C67.0972334,28.4985827 72.6352334,30.9665827 69.6752334,33.0465827 C68.5822334,34.1645827 67.0592334,33.0655827 67.2532334,31.6845827 Z M54.0198334,27.0273827 C56.0588334,27.0103827 56.0888334,30.1783827 54.0458334,30.1953827 C52.0078334,30.2133827 51.9778334,27.0453827 54.0198334,27.0273827 Z M61.0979334,26.2285827 C62.5929334,26.2155827 62.6159334,28.5395827 61.1179334,28.5515827 C59.6219334,28.5645827 59.6009334,26.2415827 61.0979334,26.2285827 Z" id="dots" fill="#1db29b"/></g></g></g><g id="Accessories" transform="translate(409.000000, 757.000000) scale(1 1)" fill="#000"><g id="Accessories/None" stroke="none" stroke-width="1" fill="none" fill-rule="evenodd" fill-opacity="0"/></g><g id="Facial Hair" transform="translate(419.000000, 815.000000) scale(1 1)" fill="#000"><g id="Facial Hair/None" stroke="none" stroke-width="1" fill="none" fill-rule="evenodd" fill-opacity="0"/></g></g></g></g></svg>