<svg viewBox="-54.27200000000008 -16.89600000000005 1119.7440000000001 801.7920000000001" xmlns="http://www.w3.org/2000/svg" xmlns:xlink="http://www.w3.org/1999/xlink" overflow="visible" width="1036.8000000000002px" height="742.4000000000001px"><rect id="Blush Background Color" fill="none" x="-54.27200000000008" y="-16.89600000000005" width="1119.7440000000001" height="801.7920000000001"/><g id="Master/Doodles/Float" stroke="none" stroke-width="1" fill="none" fill-rule="evenodd"><path d="M795.0031,112.6652 C795.3651,115.7922 799.2471,113.4042 799.6101,115.0992 C799.8391,116.1642 795.8431,118.8072 794.9811,119.5352 C797.7651,121.2132 801.3191,117.3472 803.4061,115.7272 C804.4811,116.8942 804.8451,117.5072 803.8571,118.8422 C802.1151,121.1992 802.1941,118.0762 800.1221,119.7162 C800.9851,121.1662 801.7431,120.3352 802.8391,119.9452 C802.3621,122.7352 803.4311,120.9692 804.2681,122.7362 C804.9481,124.1732 804.8651,125.2352 805.0681,126.8402 C804.0841,129.1002 803.1011,131.3612 802.1171,133.6212 C800.9341,136.3402 801.2861,137.2142 798.3921,136.3052 C798.7181,135.7412 800.8831,132.9832 800.7071,132.3052 C800.5071,131.5302 797.5461,130.4582 796.7641,129.8072 C795.3881,128.6622 795.4031,127.6802 794.5251,126.4502 C794.8741,125.3062 794.6031,124.7712 793.7101,124.8482 L792.7241,127.4992 L792.7241,127.4992 C792.8061,129.3802 794.3951,129.2042 795.3321,131.0012 C796.7681,133.7512 795.9641,132.1282 794.7911,134.3412 C793.6391,136.5152 793.5101,139.2902 791.6161,140.3832 C792.6341,140.8302 793.6511,141.2772 794.6691,141.7232 C792.2931,144.3312 797.2351,143.0612 798.0521,142.8082 C797.2161,144.5832 796.3801,146.3582 795.5451,148.1332 C793.0401,146.7312 791.8041,144.0732 790.1361,141.8782 L786.3261,148.9602 L786.3261,148.9602 C787.5901,148.8432 788.8541,148.7272 790.1161,148.6102 C789.9401,148.9432 788.3221,151.2272 788.4601,151.7352 C789.0251,153.8062 793.3251,152.6382 792.8501,155.3472 C792.7881,155.6942 788.9341,159.5812 788.2731,159.9562 C790.2101,160.8262 791.0861,160.4652 790.3921,162.7502 L787.6941,161.1192 L787.6941,161.1192 C786.9281,162.4942 786.0411,163.8372 785.5531,165.3432 C785.6461,166.3282 785.4711,167.2612 785.0251,168.1432 C784.4951,168.9322 783.8981,169.6682 783.2341,170.3502 C782.7081,171.7352 782.5391,179.2952 783.1731,180.5282 C784.5871,178.7012 787.7481,181.9262 782.4131,181.9262 C780.0771,181.9262 780.2341,181.4402 779.3411,183.4922 C778.6391,185.1072 778.2591,186.5162 780.2501,186.6712 C778.7531,189.6202 779.0731,191.8922 778.9381,195.0352 C778.8281,197.5812 778.1141,200.1122 777.5851,202.6102 C778.0591,201.9292 778.5331,201.2492 779.0071,200.5682 C780.2841,203.2922 779.3111,205.5862 778.7041,208.5012 C777.3781,206.7502 777.2161,209.8742 776.0821,209.5512 C773.7691,208.8912 775.5011,208.4052 774.5611,206.8882 C773.7461,205.5742 773.8311,205.1972 772.3251,204.3942 C770.3271,203.3292 766.8251,203.2892 764.5651,202.9132 C760.7651,202.2792 756.9601,202.1202 753.1161,201.9532 C738.7261,201.3292 724.3861,201.1692 709.9981,201.9602 C696.7611,202.6882 683.2031,204.5442 670.2231,207.0582 C656.4041,209.7342 642.8881,212.2022 629.5041,216.7292 C626.9181,217.6042 624.3291,219.4292 621.7441,220.0702 C619.2911,220.6792 616.8331,220.6712 614.2761,221.5592 C608.1531,223.6852 601.8181,225.2972 595.6481,227.3262 C588.9991,229.5132 581.8031,231.3372 575.4751,234.3642 C572.7271,235.6792 570.2321,237.4622 567.4841,238.7942 C564.8961,240.0492 560.5441,241.1942 559.1771,244.0922 C558.6441,245.2222 558.7351,246.0412 559.0661,247.2122 C559.7301,249.5622 560.2541,249.3082 562.0581,249.1492 C564.5681,248.9272 567.8161,246.9742 570.2531,246.2062 C576.9251,244.1042 583.6771,242.4212 590.4621,240.7372 C602.6471,237.7122 614.8801,232.3562 626.9041,230.2612 C634.0351,229.0192 640.7911,225.6412 647.9611,224.3652 C649.5341,224.0862 654.0881,221.8412 655.3791,222.6172 C655.7211,222.8222 656.5591,225.2862 656.8541,225.8752 C657.9131,227.9912 659.1271,230.0342 660.5491,231.9292 C664.8351,237.6432 670.5841,242.2452 675.7151,247.1692 C681.5761,252.7942 686.6691,258.9992 692.0781,265.0372 C692.5481,264.4922 693.0171,263.9472 693.4861,263.4032 C692.9911,267.2162 695.8471,269.9662 698.1821,272.5552 C700.9531,275.6312 703.1821,278.5222 705.3671,282.0292 C707.1601,284.9052 709.4541,287.4232 711.4801,290.0432 C713.4721,292.6212 714.7981,295.7322 716.6311,298.5102 C720.8391,304.8912 724.9801,311.3952 729.2241,317.6902 C731.2221,320.6532 732.8001,323.9872 734.3811,327.3602 C735.6361,330.0372 739.4121,335.5112 739.4121,338.1082 C739.1411,339.3802 741.8991,347.0322 738.9511,343.4262 C738.4811,344.1542 738.0101,344.8822 737.5381,345.6102 C738.3451,345.2722 739.1501,344.9342 739.9571,344.5962 C737.5091,346.8132 742.0811,347.0982 742.1821,348.3372 C741.7741,348.7302 741.3671,349.1232 740.9601,349.5162 C740.2641,350.9502 739.3581,351.1362 738.2451,350.0742 C737.0181,350.1492 736.7731,349.4632 735.4051,349.9202 C736.7111,351.9592 738.3941,350.6702 739.0561,353.4882 C739.638453,355.970965 737.793165,356.503703 735.844474,357.972056 L735.722663,358.0642 L735.680112,358.210859 C735.255054,359.480777 734.050386,358.93995 732.7081,358.6632 C729.4981,358.0022 725.9511,356.7352 722.8251,355.7602 C716.0681,353.6532 709.2591,351.8772 702.2731,350.4362 C686.3331,347.1472 670.5211,347.3022 654.4361,346.2622 C654.8591,344.5002 654.8621,344.6552 654.3601,343.5632 C655.0041,344.9632 651.1191,343.1352 654.0471,346.2282 C646.5731,347.4502 638.5001,346.5312 630.9201,346.9382 C631.2731,346.1522 632.0841,345.2482 631.3261,344.6792 C627.7371,349.8682 615.7451,347.6432 609.8171,348.3862 C606.3371,348.8232 602.8981,349.6602 599.4291,350.2112 L597.968785,350.44011 C596.750651,350.633608 595.5331,350.846057 594.3431,351.1682 C592.8101,351.5812 590.2561,353.2782 588.8031,352.8842 C590.9301,348.5962 588.4771,352.3082 588.1431,352.3572 C587.1331,352.5062 585.3941,352.8462 583.9431,352.8462 C585.5971,346.2052 588.4341,340.0862 589.5771,333.2462 C590.2901,328.9822 592.2481,322.1142 588.0321,319.0922 C585.7221,317.4362 581.9361,317.0772 579.2611,316.5142 C576.3291,315.8972 571.2061,315.9222 568.6551,314.2652 C566.6631,312.9702 566.2421,311.7802 563.6331,310.7902 C560.6231,309.6482 559.2351,308.5142 556.1941,309.4372 C557.4311,307.8882 559.1641,306.7582 556.7361,305.1752 C555.7411,304.5282 553.7911,305.3992 553.4421,303.9832 C551.6401,305.2562 552.0671,306.2842 551.5851,308.0292 C551.6291,308.7672 551.8231,309.4712 552.1691,310.1392 C551.2151,310.5232 550.2621,310.9072 549.3081,311.2912 C549.9141,309.6622 548.1351,310.6332 547.7801,309.8322 C547.2511,308.6352 547.5651,306.8082 547.5651,305.5092 C545.5991,306.1302 543.5431,306.8982 542.6831,308.9442 C540.2761,307.5092 541.2321,307.4112 542.4661,305.2582 C540.4451,304.7802 540.0171,305.8202 539.7101,307.4942 C538.6441,307.1642 537.5761,306.8352 536.5101,306.5062 C538.9141,306.4892 539.4911,304.6112 539.5481,302.5712 C538.6131,302.8752 537.6781,303.1802 536.7421,303.4842 C536.5501,304.4712 536.3581,305.4582 536.1661,306.4452 C534.6931,307.6932 530.8611,305.4392 529.6181,304.7942 C525.2841,302.5472 523.6981,301.8972 524.3091,296.7912 C524.8201,292.5112 525.9511,288.2102 526.2021,283.9082 C526.4811,279.1292 525.9231,274.0182 525.5041,269.2542 C524.6921,260.0352 523.3851,250.9502 522.9271,241.6932 C522.6801,236.6812 522.4041,231.6682 522.2071,226.6532 C522.0511,222.6672 520.6751,218.2812 525.6481,217.9272 C525.0401,215.9972 526.8611,213.7652 528.7401,212.7082 C529.3971,211.2112 530.1151,211.0772 530.8961,212.3082 C531.5741,212.5212 532.2041,212.4212 532.7871,212.0062 C535.5251,211.3852 538.8091,207.5002 541.2671,206.0992 C543.6771,204.7262 548.9321,202.7302 550.6531,200.4182 C552.3171,198.1812 549.8001,198.4332 550.3091,196.3832 C551.0031,193.5812 553.5321,197.6052 553.9201,198.1652 C554.7651,197.3162 557.9931,195.7242 557.9551,194.4902 C557.1641,194.3492 556.3741,194.2082 555.5831,194.0672 C556.4471,193.5682 558.3641,192.0782 559.3691,191.8812 C561.0771,191.5462 560.4361,191.1132 561.8051,192.9962 C562.2811,192.2582 563.4391,189.8332 564.1641,189.3422 C564.5101,189.1072 566.5661,188.9512 566.9971,188.7992 C569.2351,188.0082 569.0091,186.2672 570.6541,185.4392 C571.4521,185.0382 572.4341,185.6542 573.1041,185.3622 C574.1741,184.8942 574.1771,183.2972 575.1481,182.7182 C575.9881,182.2162 578.1181,182.6332 579.1211,182.2682 C580.7831,181.6612 580.7101,181.0962 581.9501,179.9882 C583.6891,178.4352 585.2901,178.6602 587.2271,177.4832 C589.2351,176.2632 588.9271,173.5162 590.7491,172.9922 C593.1821,172.2932 593.8051,174.5972 595.1281,172.3212 C595.4261,171.8102 594.0761,171.0462 594.9231,170.2262 C595.9671,169.2162 596.3991,170.4212 596.8781,171.2062 L598.5301,168.0892 L598.5301,168.0892 C601.1781,169.5392 600.0661,167.6692 602.0871,166.6732 C602.9841,166.2312 603.7231,167.1042 604.7061,166.5702 C605.4291,166.1782 605.5541,165.3242 606.0731,164.7952 C607.0711,163.7782 607.6231,162.3822 609.1691,161.8982 C608.6101,162.0722 613.1901,161.9402 612.7811,161.7442 C612.3361,161.0902 611.8901,160.4362 611.4441,159.7822 C613.8411,159.7822 615.9341,160.0202 618.2531,159.3002 C619.0741,159.0462 620.3571,158.6542 621.0401,158.1322 C622.9171,156.6972 622.4941,157.0472 622.4941,154.4112 C625.0831,156.0592 628.3791,155.4832 630.9341,153.5722 C632.2681,152.5742 633.1231,151.3802 634.5861,150.4782 C635.2141,150.1532 635.8531,149.8492 636.5011,149.5672 C637.3131,148.7272 638.1261,148.7192 638.9411,149.5442 C640.0931,149.2352 640.0801,149.0222 640.9731,148.4632 C641.2291,147.9572 641.5011,147.4602 641.7931,146.9732 C642.7511,146.8732 643.6951,146.7002 644.6271,146.4542 C648.2441,145.4812 650.4281,143.0672 653.7851,145.2062 C654.2141,144.3312 654.6441,143.4552 655.0721,142.5792 C656.5011,144.8112 657.4781,142.6792 659.3741,141.7752 C660.1691,141.3962 661.2011,141.3022 661.9191,140.9562 L663.1331,141.2432 L663.1331,141.2432 C663.4761,140.1832 663.8181,139.1232 664.1601,138.0632 C664.8511,138.3322 667.5901,139.8032 668.4131,139.7252 C669.5931,139.6142 671.0031,137.6172 672.1461,137.2402 C673.8901,136.6652 673.2651,137.4252 674.9781,137.4372 C676.2951,137.4462 676.9161,137.6332 678.0541,136.5272 C674.2081,135.5282 679.0601,135.0572 680.6811,134.7192 C683.2061,134.1932 684.5071,134.7552 686.2611,132.7602 L684.4401,132.7602 C686.2371,131.1252 685.6321,131.7022 687.5241,131.8622 C688.1201,131.9112 690.7121,133.3342 690.7171,131.4362 C693.1621,132.8772 693.1891,132.8802 695.7101,132.2302 C696.8261,131.9422 697.7761,131.0052 699.0031,130.9832 C700.2001,130.9622 701.0581,131.5032 702.1261,131.3872 C702.7651,131.3192 705.0021,130.4802 705.7581,130.2052 C706.9571,129.7682 707.7471,128.8352 708.8941,128.4742 C710.1561,128.0752 711.7621,128.5492 713.0881,128.2582 C717.0311,127.3902 719.3451,125.0302 723.6141,126.3082 C724.0701,122.4872 728.8321,123.3372 731.3951,123.7312 C733.1791,124.0062 734.0881,124.7282 735.9351,123.8542 C737.4391,123.1432 738.2961,122.0152 739.9701,121.4472 C741.2541,121.0112 742.9841,120.6942 744.3251,120.4162 C745.1541,120.1542 746.0011,120.0702 746.8661,120.1652 C747.7351,120.287117 748.463774,120.665318 749.051351,121.298264 L749.159663,121.4232 C749.293248,121.107805 751.3131,119.611311 751.0811,119.7962 C752.5891,118.5892 753.2961,119.0502 754.2231,116.7002 L750.9911,116.0182 L750.9911,116.0182 C752.6551,115.9062 753.9051,115.7142 755.3851,116.3612 C756.4081,116.8082 758.1271,119.1772 759.1521,119.1792 C761.0051,119.1812 761.6531,116.5702 761.4691,115.2112 C763.0241,118.8322 764.3511,119.4352 767.8431,117.5842 C768.2531,117.3662 768.6641,117.1492 769.0741,116.9312 C769.9051,116.0602 770.7311,116.0762 771.5531,116.9802 L773.0171,117.7772 L773.0171,117.7772 C773.6041,116.8002 774.1901,115.8242 774.7781,114.8472 C776.0241,116.5632 777.2081,116.6472 779.2401,116.2462 C780.6411,115.9692 783.5171,113.4302 784.5501,113.4312 C785.1491,113.4312 785.9141,114.8912 786.9131,115.1762 C788.5661,115.6502 791.1351,114.4582 791.7241,112.8762 C792.0371,113.5362 792.3501,114.1972 792.6621,114.8582 C793.4431,114.1282 794.2271,113.4002 795.0031,112.6652 Z M733.6411,354.6072 L733.6411,357.6822 L734.682225,357.8722 L734.682225,357.8722 L735.669663,358.0522 L735.679742,357.883501 C735.72373,356.40466 734.965862,355.309105 733.6411,354.6072 Z M641.6211,342.3732 C641.2961,343.3692 640.9721,344.3662 640.6481,345.3622 C641.7411,345.4512 642.8351,345.5402 643.9291,345.6302 C643.1591,344.5442 642.3901,343.4592 641.6211,342.3732 Z M513.1937,263.5793 C515.5847,264.2773 515.5517,264.1923 516.0317,266.4043 C518.7627,278.9943 510.3127,293.4343 516.5167,305.4023 C498.3807,305.2553 480.2077,305.6173 462.1777,307.7423 C462.1777,300.8863 462.4027,294.0453 461.8847,287.2003 C461.6497,284.0933 461.2987,280.9973 460.9817,277.8983 C460.5807,273.9653 460.7077,274.1953 463.9267,273.5183 C465.6177,273.1623 466.2227,272.0903 467.8387,271.4373 C469.0517,270.9463 469.5957,271.5503 470.7917,271.7183 C472.9307,272.0203 472.9567,271.6613 474.9167,271.2433 C479.1237,270.3463 482.6967,270.6663 486.0207,267.5253 C487.7437,267.3763 487.1857,268.9723 488.3867,268.8163 C489.2597,268.7023 489.8157,267.0723 490.7067,266.6833 C493.4777,265.4703 498.0907,265.7663 501.1227,265.3873 C504.2197,265.0013 506.9607,263.6043 509.9257,263.1903 C511.1467,263.0203 512.0367,263.2413 513.1937,263.5793 Z M548.1781,299.9152 C547.592822,302.092006 545.025426,299.258221 544.985249,300.965517 L544.987663,301.1212 L544.993322,301.083018 C545.128489,300.79063 547.725162,304.227512 547.5721,304.1132 C548.9671,305.1642 549.7801,305.0652 551.3611,303.8592 C548.5311,303.7522 548.8431,302.0062 548.1781,299.9152 Z M556.0641,302.9912 C557.0971,303.5592 557.4131,302.1062 557.9481,301.2192 C556.7941,300.6442 556.6241,301.9822 556.0641,302.9912 Z M552.8671,293.5202 C553.2691,294.9342 553.2401,296.0182 553.2401,297.4782 C555.6291,297.1402 556.3801,296.9662 556.4241,294.4252 L555.1471,295.2282 C554.4771,293.9012 554.3291,293.7982 552.8671,293.5202 Z M534.3791,295.8872 C534.9201,295.5392 535.4611,295.1902 536.0021,294.8412 C535.2041,293.6932 533.7851,295.0582 534.3791,295.8872 Z M540.4211,274.7612 C541.1111,274.3992 541.8031,274.0372 542.4931,273.6752 C540.7011,271.3902 540.5701,272.1572 540.4211,274.7612 Z M537.9241,256.6372 L535.2081,256.6372 C535.7401,258.3832 537.9241,258.7592 537.9241,256.6372 Z M804.0266,155.0551 C804.6466,155.4171 805.2676,155.7791 805.8876,156.1401 C804.2756,157.6091 802.2936,159.0901 803.8636,160.8121 C805.1106,162.1791 810.9326,162.8311 812.6766,163.3291 C812.0716,164.0251 810.8246,165.9271 809.9996,166.4061 C809.3456,166.7851 808.7486,165.2841 807.4306,166.7791 C809.6166,167.9131 809.0306,167.0541 808.4626,169.4591 C808.1276,170.8781 806.9286,172.4021 806.2536,173.6751 C804.6086,176.7721 802.9256,179.8491 801.2006,182.9021 C797.6616,189.1631 793.9356,195.3201 790.0206,201.3541 C789.3606,197.9461 791.2486,194.1271 792.2276,190.8391 C793.4596,186.7011 794.6936,182.5651 795.9336,178.4301 C798.3266,170.4621 800.4746,162.5771 804.0266,155.0551 Z M709.0401,165.4522 C707.2711,165.9032 706.1121,166.1972 704.2831,166.6632 C706.9401,167.5092 706.9401,167.5092 709.0401,165.4522 Z M787.3651,150.0932 C785.1091,151.1492 784.8681,151.9162 786.6931,153.2082 C786.9101,152.2032 787.0691,151.4662 787.3651,150.0932 Z M787.0911,125.1042 C786.7851,126.4452 784.8881,125.1552 784.4681,126.1352 C783.5061,128.3772 786.5641,128.0732 787.6661,127.9382 C787.4751,126.9932 787.2821,126.0492 787.0911,125.1042 Z M799.8751,123.4022 C799.2711,126.2692 799.2711,126.2692 802.0671,126.7002 C801.3331,125.5962 800.7181,124.6702 799.8751,123.4022 Z" id="Accent" fill="#05e20e"/><path d="M2.1611,639.355 C13.8691,649.013 26.0261,657.717 38.5801,666.25 C52.0061,675.375 64.8251,685.521 77.5231,695.629 C88.8941,704.682 100.4021,713.467 111.6541,722.633 C117.0811,727.054 123.2681,730.48 128.4271,735.036 C132.5961,738.718 139.5101,740.368 143.0641,744.699 C137.4321,748.065 129.9131,750.775 123.6721,747.863 C116.7871,744.651 111.5061,740.464 105.3791,736.111 C102.2221,733.868 98.9391,731.832 95.7321,729.662 C92.9131,727.753 90.9221,724.967 88.0681,723.177 C82.0701,719.414 75.9171,715.268 70.2261,710.971 C64.3801,706.558 57.9181,703.047 52.2781,698.357 C46.4961,693.548 40.0241,690.362 33.9871,685.984 C21.1931,676.707 9.9271,666.272 2.7101,652.098 C0.4811,652.888 0.3881,653.671 -0.6329,651.378 C-1.1469,650.222 -1.0079,648.639 -0.8869,647.438 C-0.5969,644.562 0.9171,641.905 2.1611,639.355 Z M598.4707,50.4082 C610.7037,54.1172 616.6977,67.3752 616.4927,79.5502 C620.6767,78.5062 624.3337,76.4962 628.7657,76.3242 C632.8477,76.1662 637.6977,76.5202 641.7077,77.2782 C649.4897,78.7492 657.4937,83.0752 662.1337,89.6312 C666.5597,95.8842 667.2217,104.1862 664.5017,111.2802 C663.1997,114.6762 661.1347,117.6972 658.9347,120.5662 C657.3227,122.6702 653.7247,124.9992 653.5547,127.8182 C683.6757,118.7132 713.9197,112.2952 745.0787,108.1412 C760.8737,106.0362 776.6947,107.0902 792.5057,105.8872 C793.64735,105.800317 794.805743,105.748663 795.97632,105.722942 C795.735403,105.644522 795.501569,105.555093 795.2757,105.4552 C799.7467,105.6042 804.2177,105.7542 808.6887,105.9032 C808.213462,105.907962 807.713195,105.9282 807.194415,105.957429 C809.3381,106.039984 811.476178,106.111058 813.5817,106.1192 C816.5297,106.1312 818.8237,105.7212 820.9607,103.8132 C823.1247,101.8832 824.8537,99.5192 827.3757,102.3052 C828.0197,103.0162 828.1547,104.7362 829.0207,105.2712 C830.0707,105.9192 833.1237,105.4742 834.3797,105.5512 C838.7707,105.8192 843.0557,106.5642 847.3667,107.4222 C855.2767,108.9972 863.1357,110.5892 870.9517,112.5882 C885.8337,116.3952 900.5187,120.0772 915.1857,124.5962 C930.1517,129.2072 945.2757,134.8962 959.0747,142.3602 C965.7587,145.9752 972.4347,150.4882 978.5797,154.9602 C981.4367,157.0402 983.9977,159.2902 986.4817,161.7982 C989.1387,164.4792 992.3877,166.2882 995.0187,168.9892 C1000.7417,174.8642 1006.4407,181.0962 1011.6327,187.4612 C1014.3437,190.7842 1016.8297,194.2892 1019.2437,197.8312 C1020.9377,200.3162 1025.4017,204.8662 1024.3737,208.0762 C1023.8257,209.7902 1021.9117,210.9892 1020.1587,210.5692 C1019.5737,210.4292 1019.0857,209.6692 1018.5867,209.5972 C1016.8937,209.3572 1018.4337,208.7612 1016.4577,209.5622 C1012.5317,211.1552 1011.2797,214.3502 1006.2917,213.6232 C997.8127,212.3862 989.8377,208.3822 982.1267,204.8912 C979.9247,213.3112 979.6127,222.0402 977.6847,230.5612 C975.8047,238.8742 972.6697,246.8022 968.8847,254.4272 C965.5647,261.1172 961.3017,268.2472 955.4247,273.0282 C950.9407,276.6762 939.8737,281.2082 936.5797,273.4412 C935.1807,270.1422 937.2617,265.0162 937.8507,261.6212 C938.6417,257.0652 939.5137,252.4962 939.9897,247.8942 C940.3757,244.1552 940.5707,240.3942 940.9307,236.6512 C941.2417,233.4312 942.1017,226.5182 940.2907,223.6742 C939.1997,221.9602 939.1047,223.6422 938.4697,225.3532 C937.6997,227.4282 937.0597,229.4862 936.4967,231.6232 C935.2987,236.1642 934.2187,240.7362 933.0857,245.2932 C931.0617,253.4352 928.8327,261.3992 924.6147,268.7202 C920.8687,275.2212 915.5967,282.3532 907.5847,283.4182 C903.8337,283.9162 898.9437,282.2012 896.0807,279.6742 C894.616964,278.382668 894.019297,276.709054 893.804838,274.905139 L893.8047,275.0175 L893.8047,275.0175 L893.80472,274.904143 C893.548634,272.748617 893.839547,270.407123 893.8537,268.3092 C895.4007,253.2222 899.9227,237.4412 897.3967,222.2942 C896.3277,215.8822 895.4927,209.7612 892.2857,203.9732 C890.6637,201.0462 890.0137,198.8962 886.9177,200.6222 C883.7837,202.3692 880.8987,206.6842 878.3007,209.1852 C873.5257,213.7822 868.5247,218.5162 862.8067,221.9302 C858.3027,224.6182 849.3567,227.1662 845.9707,221.3512 C842.7447,215.8092 847.0477,208.0752 850.1367,203.5032 C853.6717,198.2722 860.3677,193.4272 856.6097,186.9732 C854.9927,184.1952 852.6657,183.4672 850.2197,181.6442 C848.1027,180.0662 846.3287,178.0222 844.2107,176.4162 C838.0747,171.7612 831.3447,169.7672 824.2597,167.1072 C820.9887,165.8782 820.5587,164.7222 818.6687,167.5312 C816.6167,170.5822 815.4927,174.8582 814.0087,178.2322 C811.0367,184.9912 807.8667,191.3952 804.0347,197.6972 C800.1677,204.0572 796.7407,210.7012 793.0857,217.1872 C791.7067,219.6342 790.4097,222.1212 788.7797,224.4182 C787.8917,225.6682 786.7927,226.7822 786.0717,228.1502 C785.0047,230.1732 785.4797,232.0172 784.8157,234.0312 C781.9497,242.7212 777.7697,230.5902 776.9707,227.7542 C776.0627,224.5282 773.8717,222.0132 772.4517,219.0042 C771.2787,216.5192 770.4787,212.8262 767.6467,211.6562 C765.3267,210.6982 762.3367,212.0132 759.9697,212.1412 C755.6197,212.3772 751.2377,212.0252 746.8687,212.2972 C742.7837,212.5512 738.7077,212.9432 734.6237,213.1932 C730.5357,213.4442 726.4527,212.7532 722.4187,213.1832 C715.1797,213.9552 707.7787,213.8312 700.5557,214.9012 C692.0797,216.1552 683.6907,217.4932 675.1907,218.5372 C677.1657,222.2722 681.2597,223.8922 684.4967,226.5572 C687.3897,228.9392 689.6807,231.6882 692.5947,233.9542 C695.5517,236.2542 697.3087,239.6562 699.7557,242.4202 C702.1537,245.1272 704.3737,247.3972 706.4747,250.4262 C716.6137,265.0522 727.0717,279.1382 735.4347,294.9462 C739.6677,302.9472 743.7097,311.5072 746.6017,320.0912 C749.7037,329.2982 751.2257,339.1722 753.0687,348.6922 C753.9867,353.4372 754.4677,357.4422 753.4617,362.2142 C753.1977,363.3502 752.9227,364.4842 752.6377,365.6152 C751.7557,366.9692 752.0817,367.8472 753.6177,368.2502 C754.5157,369.5592 755.7417,370.0502 755.8197,371.8402 C755.8797,373.2002 755.1227,374.7762 753.9517,375.5432 C751.6907,377.0232 751.6907,375.0242 749.3597,375.4672 C748.4857,375.9402 747.6117,376.4122 746.7387,376.8842 C746.2777,376.1822 745.8027,375.4882 745.3157,374.8042 C743.8297,373.3912 742.6477,373.5202 740.7057,373.1762 C741.6927,384.5432 740.1187,394.6922 737.6167,405.7802 C736.4127,411.1122 734.3497,416.3312 733.3097,421.6722 C732.1487,427.6392 734.6867,430.3572 738.6127,434.3372 C737.6167,434.8572 735.8707,435.4222 735.0487,436.1992 C733.7407,437.4382 734.0747,437.5902 734.0757,439.5292 C734.0777,443.0792 733.3967,446.5782 732.8387,450.0692 C731.8067,456.5342 730.8637,463.2242 728.6377,469.4142 C724.5947,480.6572 718.0597,492.3332 711.4017,502.2362 C707.6757,507.7782 703.9407,514.0742 699.2707,518.8562 C694.5837,523.6542 689.9377,528.4962 685.2617,533.3092 C676.0587,542.7832 666.0017,549.3282 654.9767,556.4212 C650.6107,559.2312 646.0117,562.3092 642.2567,565.8072 C638.4407,569.3612 633.3657,571.8492 628.8047,574.4312 C626.7697,575.5832 625.3217,577.2382 623.1247,578.1832 C621.0607,579.0702 619.6187,579.3602 617.8877,580.5242 C613.5927,583.4122 608.9537,585.8812 604.2247,588.0592 C598.4567,590.7152 592.7807,593.8052 586.8567,596.0722 C584.1577,597.1052 581.6187,598.2312 579.0047,599.4392 C576.1757,600.7462 573.1237,601.6042 570.2217,602.9972 C567.7697,604.1742 565.2867,604.8582 562.7907,605.8202 C560.7527,606.6062 559.1527,607.8782 557.0737,608.7002 C552.7567,610.4052 548.8277,611.3232 544.6337,613.3332 C539.0607,616.0042 532.4567,617.2502 526.5867,619.1722 C520.0327,621.3192 513.2337,623.4552 506.5077,624.9772 C503.6457,625.6252 501.2077,626.4722 498.4437,627.4532 C496.6427,628.0922 494.5777,628.4422 492.5827,629.0492 C487.0697,630.7302 481.5597,632.3502 476.0177,633.7792 C465.1897,636.5722 454.1277,639.9252 443.6267,643.7162 C438.1207,645.7042 432.5357,648.0962 427.2537,650.6272 C421.2827,653.4872 414.8487,655.1382 408.8557,657.9702 C397.2787,663.4392 385.7407,669.0692 374.2977,674.8112 C368.2887,677.8272 362.3637,680.9342 356.4967,684.2142 C354.3677,685.4042 352.0397,685.8952 349.9247,687.0622 C347.1587,688.5892 344.8887,690.8302 342.0557,692.3432 C331.1357,698.1752 319.9907,703.6692 309.9607,711.0482 C304.7117,714.9102 299.0717,718.8652 294.5357,723.5672 C293.0387,725.1182 290.4447,727.5202 290.1737,729.7712 C289.7747,733.1012 290.1487,730.0372 291.3017,732.0912 C292.8987,732.2852 293.2597,732.8992 292.3887,733.9312 C291.9867,734.4152 291.4717,734.6622 290.8447,734.6722 C288.8277,735.0802 285.0547,732.9432 283.4337,732.0492 C280.6247,730.5012 279.1337,728.5442 277.3297,725.9452 C273.4117,720.3072 269.5887,714.6182 265.5537,709.0592 C261.9247,704.0602 258.3727,698.5562 254.2437,693.9652 C251.4437,690.8532 251.2337,692.2122 248.1197,693.9672 C245.8027,695.2722 243.1117,695.8292 240.7107,697.0582 C231.5617,701.7452 221.5047,705.2062 212.1207,708.4722 C209.9837,709.2162 208.8447,710.3962 206.9667,711.4232 C204.5747,712.7322 201.5447,713.3722 198.9867,714.3022 C191.9397,716.8642 184.9277,719.5242 177.9307,722.2202 C172.5287,724.3032 167.3377,725.9442 163.1087,729.7872 C161.4257,731.3172 159.3887,732.4132 157.6507,733.9602 C155.6267,735.7592 152.8897,738.6872 150.3417,739.7052 L148.7897,740.9172 C147.7397,740.1872 146.6887,739.4582 145.6357,738.7312 C144.5917,738.0082 143.5467,737.2882 142.5047,736.5632 C139.8877,734.7442 137.2897,732.8992 134.6887,731.0572 C128.7897,726.8762 122.8527,722.7362 117.3657,718.0162 C107.6187,709.6352 97.5047,701.7032 87.3127,693.8532 C76.6157,685.6142 66.1867,676.9922 55.1227,669.2482 C45.0947,662.2292 34.1537,656.3012 24.4307,648.8932 C19.5367,645.1642 14.6547,641.4112 9.6577,637.7992 C9.3857,637.6032 5.3197,635.1082 5.27890208,634.8312 C5.2097,634.3212 6.5477,632.9902 6.9427,632.5622 C8.8127,630.5292 10.8847,628.7192 12.7477,626.6642 C21.4307,617.0892 32.7677,617.4232 44.7507,616.9712 C50.1847,616.7662 56.0777,619.2722 61.2387,620.9782 C67.5497,623.0642 73.6377,626.1262 79.7337,628.7702 C92.2967,634.2192 105.2627,638.8752 117.9527,643.9222 C122.9427,645.9062 127.9137,646.8742 132.9867,648.2382 C138.1337,649.6232 143.4357,648.3032 148.9407,648.4022 C151.7977,648.4532 154.4987,648.6202 157.3757,648.4582 C159.0837,648.3622 161.0517,648.0382 162.7387,648.0672 C164.1057,648.0912 165.5247,648.6552 166.7827,648.5122 C169.178538,648.240727 171.633049,647.921747 174.109427,647.58902 L172.313175,647.5963 L172.313175,647.5963 L169.7563,647.6068 C171.4603,647.6008 173.1643,647.5928 174.8693,647.5858 L174.109427,647.58902 C177.325178,647.156951 180.577802,646.701702 183.7867,646.2972 C189.4257,645.5862 195.2447,645.2332 200.8097,644.1202 C203.6117,643.5602 206.3767,642.7682 209.0727,641.8182 C211.4127,640.9932 215.6667,640.0562 217.5867,638.3852 C219.3047,636.8902 218.5537,636.8702 217.5957,634.4312 C217.2167,633.4672 216.8247,632.0052 216.2627,631.0762 C214.7437,628.5662 213.2757,627.7772 214.1597,624.6362 C215.7167,619.1002 221.0237,615.5662 225.5667,612.8392 C235.8007,606.6992 245.1607,598.8232 255.9367,593.6142 C278.1407,582.8822 298.3767,568.9412 320.0307,557.1552 C343.8327,544.2002 366.3487,528.9982 390.4817,516.5902 C412.9457,505.0412 435.3067,493.4242 457.9567,482.2382 C469.0167,476.7782 481.5257,471.7812 491.5607,464.6222 C486.0007,463.9322 480.4247,463.0412 474.8457,462.5472 C472.2577,462.3182 469.6387,462.5302 467.0657,462.1192 C464.1877,461.6592 461.4667,460.4952 458.5947,460.0112 C453.6557,459.1772 449.2147,457.4842 444.2717,456.8602 C438.9717,456.1902 433.7807,454.6322 428.4557,454.1962 C417.3167,453.2832 407.2637,449.1752 397.4987,443.9982 C395.0817,442.7162 393.0957,443.4492 390.7797,442.5772 C389.5037,442.0982 388.1487,440.1822 386.7157,439.1532 C382.7687,436.3192 379.3807,432.9732 375.6297,429.8772 C367.7437,447.5752 352.2587,459.6122 337.4817,471.4842 C329.9967,477.4962 321.8727,482.5932 314.3107,488.4922 C308.4487,493.0662 303.1247,497.1602 296.8667,500.7972 C290.8577,504.2872 285.2127,509.0012 279.4837,513.1942 C275.6007,516.0362 271.0497,518.1812 266.9207,520.6492 C263.5467,522.6652 256.9597,525.6722 256.0397,529.3292 C255.2867,532.3172 256.7557,535.8732 252.1957,534.4992 C248.1127,533.2702 245.1527,528.7372 242.7747,525.5442 C236.6247,517.2822 230.8877,508.7402 225.1777,500.1742 C222.1107,506.1602 216.8207,510.4712 211.9307,514.9092 C208.9597,517.6062 205.8757,520.1082 202.6667,522.5152 C201.1107,523.6832 199.5367,524.8282 197.9777,525.9932 C197.3637,526.4532 195.9717,527.1602 195.5737,527.8082 C194.6437,529.3242 195.2087,528.6372 195.3537,530.4702 C195.5797,533.3412 196.5377,535.6002 194.9127,538.3512 C193.3867,540.9342 190.0597,542.0372 187.7277,543.8012 C182.1797,548.0002 176.3457,552.4632 170.1907,555.7422 C168.7937,556.4862 167.4727,557.1312 166.1717,558.0422 C163.9997,559.5612 164.3967,560.1122 162.2077,558.6562 C158.7847,556.3772 155.8277,552.5942 152.7387,549.8462 C146.2667,544.0882 139.7227,538.4032 133.0947,532.8262 C120.4637,522.1962 107.4597,512.0952 94.9857,501.2752 C83.1317,490.9932 70.4237,482.1422 58.1857,472.3672 C54.8287,469.6862 51.5127,466.9502 48.1997,464.2142 C45.2497,461.7792 40.4627,459.0952 38.2807,455.9792 C35.1117,451.4532 47.5077,445.2682 51.2477,444.3472 C57.6967,442.7602 66.0357,443.6682 72.4947,444.9692 C79.2747,446.3342 86.1787,450.9002 92.5097,453.7442 C99.6457,456.9492 106.9137,459.7202 114.1027,462.7462 C117.3087,464.0952 120.7077,465.1722 123.6837,466.9902 C126.8417,468.9192 129.6607,471.1182 133.0187,472.7362 C136.8887,474.5982 140.9097,476.3362 144.9797,477.7142 C146.8237,478.3382 148.8087,478.9652 150.7467,479.2172 C153.4907,479.5742 153.1187,478.3102 155.3977,477.6042 C157.3347,477.0042 157.7947,478.5892 159.5367,479.0302 C161.1767,479.4462 162.4027,479.0252 163.8227,478.1432 C166.9887,476.1782 169.8067,473.4682 172.9737,471.4222 C175.9117,469.5232 179.1507,467.7492 181.9047,465.5992 C183.1327,464.6412 184.0407,463.3282 185.2507,462.3552 C187.1897,460.7952 187.9587,461.4142 190.2227,460.3402 C192.0737,459.4612 193.7527,457.8252 195.5137,456.7412 C196.6067,456.0682 199.2577,455.2182 199.9627,454.1292 C201.8147,451.2702 198.6537,449.2842 195.8227,450.1272 C195.3987,447.6582 193.2217,441.7962 194.1617,439.4812 C194.9937,437.4332 197.1777,437.8162 199.0147,436.7322 C205.9187,432.6562 211.0137,425.2502 217.4727,420.4612 C223.5617,415.9462 228.9337,410.5562 234.9657,405.9582 C240.1327,402.0192 245.7797,398.1732 250.4847,393.9252 C256.0477,388.9032 263.1697,384.9962 269.2177,380.5132 C275.4657,375.8832 281.2717,370.7312 287.4527,366.0482 C293.3997,361.5432 299.2407,356.8372 305.3517,352.5482 C310.8437,348.6932 316.6007,345.1732 321.9787,341.2652 C324.9247,339.1252 328.1457,337.2452 331.5087,335.8402 C334.8527,334.4422 337.7777,332.8032 341.0427,331.2982 C347.5317,328.3072 355.9817,326.2402 363.0377,325.3832 C370.7957,324.4412 378.5857,323.5962 386.4177,323.5892 C390.5897,323.5862 394.6417,324.3802 398.7887,324.6322 C402.5987,324.8622 406.7187,325.8262 410.5017,325.6992 C412.2147,325.6422 413.7037,324.9172 415.3627,325.1512 C416.7477,325.3462 417.9527,326.1822 419.4387,326.3282 C422.7477,326.6542 426.0747,326.3292 429.4207,326.7572 C437.1077,327.7392 444.8047,329.1392 452.5077,329.9192 C460.7147,330.7502 468.8507,330.9072 477.0147,332.3072 C484.9927,333.6742 493.0207,335.0912 500.9527,336.6722 C517.8097,340.0322 534.8427,343.3132 551.4327,348.3022 C555.3107,349.4682 559.2117,350.5772 562.9397,352.1762 C564.7487,352.9512 566.4867,353.8912 568.3737,354.4712 C571.0757,355.3012 571.6077,355.6162 572.9997,353.3492 C575.3957,349.4472 576.7157,344.2862 578.4547,340.0412 C580.1737,335.8402 582.2617,331.6062 583.2587,327.2192 C580.3597,326.7602 576.7027,327.6522 573.7117,327.7542 C570.0547,327.8802 566.4377,327.8012 562.7847,327.7792 C555.4217,327.7352 549.6647,325.5602 542.6977,323.2772 C536.8257,321.3522 529.0077,320.2482 524.5287,315.8402 C522.1267,313.4772 521.3277,313.0612 517.7177,313.4852 C514.0757,313.9122 510.4787,314.6482 506.8017,314.7702 C492.9437,315.2302 479.1487,317.6482 465.2277,318.1262 C461.4617,318.2552 452.0427,320.0402 452.6597,313.6532 C452.7877,312.3272 453.8037,311.1772 454.0017,309.8122 C454.2137,308.3492 453.8477,306.8642 453.6187,305.4342 C453.0737,302.0512 452.5047,298.6702 451.9617,295.2862 C439.2677,299.3602 426.4137,302.6612 413.4777,305.8882 C408.1137,307.2262 399.4957,310.3032 393.9527,308.6162 C388.5937,306.9852 391.6977,299.4352 393.3667,295.8212 C382.7197,298.2512 371.3637,302.2252 360.5067,303.1372 C357.2037,303.4152 353.9887,304.1462 353.2197,300.1532 C352.6077,296.9712 354.9057,293.0802 356.0777,290.2852 C347.7457,289.5412 339.1177,289.6122 340.6857,278.9322 C342.1227,269.1332 350.2627,267.1822 358.9297,265.3922 C369.6267,263.1812 380.5517,262.4442 391.3187,260.6552 C400.6867,259.0982 410.9077,257.3622 420.4747,258.1482 C425.5397,258.5632 430.6347,258.6582 435.6977,259.1272 C438.0867,259.3482 440.3837,259.7182 442.6957,260.3702 C444.8287,260.9702 447.8117,262.8312 449.9977,262.8642 C453.2977,262.9162 457.2757,258.4542 460.8247,257.4232 C465.2207,256.1452 469.9577,255.9132 474.4997,255.6002 C479.634028,255.248137 484.776314,255.051247 489.906716,254.636518 C489.913697,254.635998 489.921364,254.635375 489.929031,254.634752 L489.9477,254.6332 L489.9477,254.6332 C491.1207,254.5382 495.5537,254.8282 496.4797,254.1412 C497.8277,253.1402 496.9307,248.0062 496.8367,245.8972 C496.7487,243.9462 497.1247,240.2922 495.7727,239.5272 C494.5027,238.8092 490.8007,239.7942 489.5507,239.9942 C484.3697,240.8242 479.4467,240.7292 474.2847,240.5182 C471.9007,240.4212 469.6107,241.0562 467.2497,240.7432 C464.7167,240.4082 462.1667,239.5562 459.6437,239.0822 C454.1787,238.0552 449.1997,236.7772 444.4907,233.7152 C440.3567,231.0282 435.4647,229.2092 433.1547,224.5032 C431.4627,221.0572 430.7747,214.4072 435.7497,213.4272 C432.3617,208.5402 430.0237,203.0502 428.2277,197.4032 C427.9017,196.3792 427.6857,194.8372 427.1987,193.9442 C425.4787,190.7862 427.0747,193.5872 424.6207,192.3242 C422.1957,191.0772 420.4477,190.0902 418.5527,187.9212 C415.5317,184.4622 414.2597,180.2052 413.8777,175.6982 C413.3597,169.5772 412.3917,162.6752 413.2857,156.5852 C414.8327,146.0362 422.5427,138.1102 430.3767,131.7302 C434.6297,128.2662 440.2287,126.9762 445.2167,124.8742 C450.0317,122.8442 455.4107,120.7162 460.4837,120.2402 C465.0627,119.8102 469.5267,118.3152 474.1107,117.7122 C480.4107,116.8822 486.7177,117.1922 493.0487,116.9402 L494.0421,116.934 C492.0561,116.946 490.0701,116.958 488.0851,116.97 C490.028679,115.939314 491.979002,116.181477 493.932287,116.893483 L493.0487,116.9402 C495.9627,116.8242 498.8697,116.4132 501.7707,116.1002 C503.4087,115.9232 506.1787,116.1122 507.6787,115.4632 C510.1337,114.3992 508.8077,116.6332 509.6847,113.3792 C511.3527,107.1892 512.7147,101.3842 515.2417,95.3692 C517.5957,89.7652 520.4547,84.4072 524.2337,79.6162 C527.7777,75.1222 532.3737,71.8352 536.5487,67.9962 C539.6427,65.1522 543.1517,62.5832 546.6807,60.2832 C548.6987,58.9682 550.9467,58.2572 552.9177,57.0962 C555.3657,55.6562 557.5257,54.5642 560.2797,53.6822 C566.1897,51.7902 572.0547,49.7812 578.3317,49.8802 C585.0987,49.9862 591.8827,48.4112 598.4707,50.4082 Z M496.6214,678.6743 C501.5524,678.8633 501.6184,690.6863 501.9384,693.6863 C502.7294,701.0813 503.4454,708.4893 504.0894,715.8993 C504.2604,717.8603 504.9894,720.0773 503.1264,721.1963 C501.4464,722.2063 496.9934,721.2083 495.1354,721.1513 C487.6454,720.9253 480.1974,719.7573 472.7894,719.5893 C467.1524,716.7823 468.6934,708.2063 468.7024,702.7473 C468.7094,699.2743 468.9544,695.8243 469.0454,692.3563 C469.1084,689.9723 468.5634,687.0223 469.3834,684.7193 C470.8424,680.6223 477.9814,680.7333 481.6524,681.0203 C484.3744,681.2323 486.6524,681.0953 489.4424,680.9163 C490.8174,680.8283 492.3514,681.0903 493.7024,680.6843 C493.9944,680.5963 496.7434,678.6793 496.6214,678.6743 Z M348.7047,556.2622 C336.4017,563.9962 323.8407,571.3332 311.3327,578.7162 C300.1197,585.3372 288.7167,591.2252 277.4247,597.7762 C271.6387,601.1322 265.6697,603.3992 259.6307,606.1412 C254.7237,608.3702 256.6287,615.1832 256.6997,619.7342 C256.9477,635.8022 256.9357,651.9272 257.9107,667.9722 C258.2657,673.8172 257.8077,680.5282 261.5287,685.3932 C266.2877,691.6132 270.7017,697.9542 275.0417,704.5022 C276.6677,706.9552 283.4987,720.2362 286.0457,719.9452 C287.7087,719.7562 289.2397,714.3782 290.0717,713.1032 C291.8647,710.3542 294.4857,707.9892 296.8717,705.7762 C307.1757,696.2162 318.6097,689.4822 330.4927,682.4952 C342.5657,675.3972 354.9207,668.7902 367.2217,662.0592 C370.0007,660.5382 372.9937,659.4412 375.7547,657.8872 C376.8457,657.2732 379.0087,656.2982 379.6957,655.2012 C380.7227,653.5592 380.3747,649.0102 380.5887,647.0472 C381.0267,643.0372 381.8137,638.8712 381.856219,634.8312 C381.8967,630.8412 379.4977,627.4122 377.7587,623.9332 C370.1247,608.6552 362.7077,593.3402 356.0657,577.5992 C350.8287,595.8772 345.3307,614.0692 340.1937,632.3742 C337.5117,641.9322 334.2787,651.3342 331.1307,660.7452 C329.5237,665.5522 327.9067,670.3552 326.3017,675.1632 C325.0517,678.9072 324.4027,684.3892 320.7747,686.6682 L318.6747,687.6942 L318.6747,687.6942 C326.4597,665.5092 334.1727,643.4242 340.6817,620.8222 C343.8237,609.9132 347.0067,599.0152 350.2557,588.1372 C351.6587,583.4452 355.1037,576.9832 354.1467,572.1222 C353.1107,566.8612 350.6267,561.2652 348.7047,556.2622 Z M495.4834,684.4733 C491.3224,685.4373 487.1614,686.4003 483.0004,687.3623 C481.0334,687.8173 478.0164,687.9373 476.2754,688.9193 C475.6244,689.0693 474.9724,689.2203 474.3224,689.3713 C474.3044,690.6503 474.2904,691.9303 474.2784,693.2103 C474.2294,696.9963 474.1204,700.7783 473.9634,704.5613 C473.8974,706.1463 473.3444,708.4673 473.7234,710.0373 C473.0504,711.6253 473.4784,712.3003 475.0114,712.0623 C475.9214,712.1953 476.8304,712.3293 477.7404,712.4623 C484.9314,713.0323 492.0154,713.5933 499.2074,714.0493 L495.4834,684.4733 L495.4834,684.4733 Z M221.3147,642.9522 C214.4557,647.4872 207.9057,652.2742 200.1487,655.1842 C192.4267,658.0822 184.7947,659.1972 176.8137,660.9192 C172.7887,661.7882 169.0057,662.7382 164.8977,663.3462 C162.5957,663.6862 159.0327,663.5552 156.9337,664.5272 C155.0647,664.1292 154.3987,664.7662 154.9377,666.4392 L154.9977,667.9992 L154.9977,667.9992 C155.5267,675.2322 160.1757,683.9362 164.2307,689.8162 C166.5977,693.2502 169.6137,696.4452 172.6107,699.3312 C175.9947,702.5902 177.9457,704.8882 182.6627,703.5232 C190.6137,701.2212 197.6307,696.5882 205.6897,694.5452 C212.0647,692.9292 217.3597,689.5422 223.5767,687.7892 C231.2437,685.6272 238.8307,683.1632 246.6037,681.3572 C243.1317,674.6552 240.0267,667.6772 235.5817,661.5382 C231.0227,655.2382 225.9957,649.1842 221.3147,642.9522 Z M253.9187,609.4432 C243.3807,616.0512 232.5977,622.1372 221.4657,627.6262 C224.3267,631.3372 227.0077,635.3392 230.1737,638.7932 C233.4357,642.3502 237.1777,645.2652 240.2007,649.0962 C246.2867,656.8112 250.4557,665.5692 254.9507,674.2402 C256.9067,673.7192 254.2437,646.9062 254.1247,643.0392 C253.7847,631.8442 253.7187,620.6412 253.9187,609.4432 Z M383.7017,636.8552 C383.0607,637.1722 383.0107,643.6632 382.9167,644.5862 C382.5837,647.8702 382.2497,651.1532 381.9167,654.4372 C385.3547,653.2232 389.0267,652.2162 391.5737,649.4242 C390.7217,647.9152 384.9097,636.2562 383.7017,636.8552 Z M400.5027,583.6592 C395.4687,589.8212 392.3477,597.1062 390.0297,604.6552 C387.6497,612.4032 384.1427,622.4982 384.7847,630.6922 C385.0657,634.2842 388.1437,638.1452 389.9027,641.2792 C391.7177,644.5162 392.9227,649.1572 397.2007,648.0362 C403.8337,646.2972 410.5797,642.3052 416.7867,639.4482 C423.0647,636.5572 429.6747,634.1792 436.1847,631.3872 C440.5067,629.5342 444.9937,628.1242 449.3047,626.2442 C453.3927,624.4632 458.7867,624.0332 462.2937,621.2802 C459.0457,606.0952 454.8567,588.1142 442.1877,577.7852 C429.3387,567.3092 410.5537,571.3572 400.5027,583.6592 Z M441.3087,506.9962 C437.5017,508.0482 434.2787,510.3012 430.7467,511.9682 C427.5837,513.4612 424.5227,514.5872 421.5677,516.5092 C416.7527,519.6422 411.1707,522.3242 406.1367,524.7472 C393.6807,530.7402 381.5877,538.1832 369.2557,544.8252 C365.9877,546.5862 364.9167,547.6982 363.8097,551.3222 C362.6077,555.2582 361.4747,559.2212 360.3167,563.1712 C359.2367,566.8552 357.5127,570.7942 357.9667,574.6832 C358.3627,578.0662 360.1127,581.2572 361.4317,584.3432 C364.7537,592.1092 368.3547,599.7512 372.0757,607.3322 C375.4147,614.1382 378.4617,621.3592 382.7477,627.6152 C386.0787,610.2412 389.0677,590.7742 401.9807,577.5352 C414.8837,564.3062 435.4687,564.1192 447.9027,577.7752 C453.8097,584.2622 457.4047,592.4322 460.2307,600.6412 C461.7147,604.9542 462.7117,609.3492 463.6667,613.8032 C464.6867,618.5612 464.4357,621.0862 469.6857,619.6442 C473.8547,618.4992 478.2747,617.5852 482.3617,616.2792 C484.4817,615.6022 486.5497,614.8412 486.6457,613.1662 C486.7677,611.0512 483.9197,606.7202 483.0787,604.7302 C478.7357,594.4592 474.3917,584.1872 470.0477,573.9162 C465.3307,562.7632 460.6127,551.6102 455.8937,540.4582 C453.5397,534.8932 451.1847,529.3292 448.8297,523.7652 C446.6817,518.6932 444.8927,511.1612 441.3087,506.9962 Z M793.8914,459.0854 C798.3554,463.9354 798.5544,473.4484 798.2494,479.5264 C795.6164,509.4354 787.3124,537.9314 768.6934,562.0174 C759.8434,573.4664 749.4354,583.4274 738.1544,592.4754 C726.5064,601.8184 714.6104,610.6174 701.3934,617.5854 C697.8764,619.4404 694.3544,621.2884 690.7934,623.0574 C688.8194,624.0384 683.8364,627.6504 681.5594,627.0794 C679.7354,626.6204 679.2594,625.2094 678.9744,623.3734 C678.3364,619.2524 681.0134,617.1954 683.7204,614.5494 C694.5954,603.9174 705.5044,593.2474 715.6724,581.9374 C735.7534,559.6014 750.8384,532.8544 759.2234,503.9944 C761.8064,495.1084 764.1114,486.1234 766.8994,477.3004 C768.5974,471.9254 771.0054,462.3574 776.6494,459.6774 C779.6754,458.2404 783.2024,459.6384 786.3844,458.7774 C789.3694,457.9694 791.3474,456.3214 793.8914,459.0854 Z M536.2987,360.9002 C534.7297,361.7732 533.5467,372.1732 533.0447,374.3322 C531.8557,379.4442 530.7187,384.5692 529.6267,389.7032 C525.3857,409.6352 521.8287,429.7072 518.5207,449.8132 C527.3087,446.4762 535.7317,440.6942 544.0347,436.2242 C552.6597,431.5812 561.2547,426.9492 569.9387,422.4132 C572.3897,421.1322 581.0127,415.2462 583.0307,417.5562 C586.2677,421.2632 578.5547,425.6112 576.5297,427.1992 C568.6977,433.3422 560.4237,438.6972 552.0477,444.0552 C543.3687,449.6092 534.3367,454.5152 525.6127,459.9672 C522.4637,461.9352 517.4367,464.3312 516.1987,467.6552 C514.6067,471.9312 515.7557,477.1282 517.2057,481.2132 C520.7657,491.2522 524.6647,501.1672 528.7877,510.9872 C530.6627,515.4522 532.5857,519.8972 534.5447,524.3252 C536.8777,529.5992 539.9387,530.7142 545.0217,533.1412 C566.6757,543.4812 589.1677,553.2942 609.9667,565.2592 C606.4857,569.2712 598.0017,562.6832 594.5667,561.0152 C588.2047,557.9252 581.8367,554.8452 575.4797,551.7462 C563.6367,545.9732 551.8537,540.0852 539.9437,534.4512 C547.5767,551.8122 556.5847,568.5392 566.5727,584.6542 C564.0507,585.5082 564.6657,585.5532 563.0827,584.0362 C561.7497,582.7592 560.8547,580.2572 559.9517,578.6532 C558.0847,575.3402 556.2427,572.0142 554.3617,568.7092 C550.4597,561.8502 546.4157,555.0952 542.8527,548.0492 C540.1727,542.7512 538.0967,533.4892 532.5887,530.8182 C525.7257,527.4882 518.7717,524.2472 511.9087,520.8702 C511.9087,547.2652 513.8057,573.0742 516.5897,599.3062 C516.7307,600.6292 517.9987,604.5332 515.4417,604.1512 C514.2887,603.9782 513.8997,596.7402 513.6977,595.2292 C512.7677,588.3002 511.9787,581.3542 511.3337,574.3942 C510.0487,560.5052 509.3497,546.5602 509.2597,532.6122 C507.6127,546.1732 505.9657,559.7342 504.3187,573.2952 L501.9777,592.5722 C501.5677,595.9472 501.1577,599.3222 500.7477,602.6972 C500.5597,604.2482 500.6787,606.2752 500.1337,607.7542 C499.2767,610.0812 499.5647,609.9032 496.8777,610.9642 C499.4467,593.3052 501.8197,575.6162 503.9187,557.8952 C504.9437,549.2482 505.9037,540.5942 506.7887,531.9322 C507.0267,529.6032 507.2597,527.2722 507.4877,524.9422 C507.6027,523.7542 508.6277,519.9342 508.0587,518.9472 C507.4957,517.9692 503.7627,516.9492 502.6877,516.4502 C500.3347,515.3582 497.9817,514.2672 495.6307,513.1692 C487.9987,509.6022 480.3727,506.0062 472.8247,502.2652 C469.5227,500.6282 466.0597,498.0992 462.4687,497.2262 C458.8937,496.3572 456.2937,498.8452 453.2367,500.4272 C450.8577,501.6582 445.2527,503.2972 443.6637,505.3882 C442.1847,507.3342 446.7777,515.1222 447.9847,517.9932 C451.3877,526.0932 454.7917,534.1942 458.1957,542.2942 C465.0967,558.7182 471.9987,575.1422 478.9007,591.5672 C480.5877,595.5812 482.2747,599.5962 483.9617,603.6112 C485.0427,606.1842 486.8477,613.5162 489.4707,613.8032 C490.6317,613.9302 492.5377,612.6672 493.6597,612.3042 C495.3337,611.7632 496.8797,611.7712 498.5597,611.4862 C501.6377,610.9642 504.8337,609.3762 507.8567,608.2622 C515.6257,605.3982 523.6797,603.5492 531.5117,600.8742 C539.3797,598.1872 547.1197,595.1682 554.9567,592.4802 C562.0747,590.0402 569.2567,587.2592 576.0947,584.0812 C583.3157,580.7242 590.7217,577.7642 597.7577,574.0422 C610.5737,567.2632 623.2507,560.9322 634.5747,552.6182 C637.2367,550.6632 640.0727,548.7002 642.7067,546.6072 C645.0157,544.7702 649.4217,542.5022 650.9937,540.0872 C651.5927,539.1662 652.1077,537.3602 651.4077,536.2672 C650.6567,535.0932 647.3307,535.2002 645.7767,534.9912 C640.8757,534.3332 635.9757,533.6742 631.0757,533.0162 C631.4517,536.2392 631.8317,539.4592 632.1047,542.6942 C632.2957,544.9772 633.6457,551.0112 631.8257,552.8002 C629.3237,550.4222 630.1277,543.3112 629.9037,540.1432 C629.7837,538.4502 630.2147,535.1362 629.4567,533.6342 C628.6257,531.9882 626.3297,532.0102 624.2487,531.5602 C615.4247,529.6512 606.6807,528.0492 598.1417,525.0242 C583.7167,519.9152 566.4737,511.2882 563.2517,494.6482 C559.8927,477.3012 574.6527,462.2712 587.0797,452.5962 C594.5207,446.8042 602.4367,441.7892 610.6237,437.1332 C614.4507,434.9582 618.2747,432.7822 622.1257,430.6532 C623.5267,429.8792 628.1257,428.2842 628.8647,426.9302 C629.6207,425.5452 629.2337,421.8412 629.3937,420.2632 C629.4637,415.1922 629.5477,410.1212 629.6137,405.0492 C629.6537,402.0272 631.0007,396.1832 628.3687,394.0242 C626.7367,392.6862 621.8957,391.6602 619.8317,390.7442 C615.7587,388.9382 611.3487,388.1322 607.2517,386.3382 C591.2057,379.3092 574.5067,373.4552 557.9857,367.7902 C554.4237,366.5682 550.7827,365.5682 547.1967,364.3652 C545.2607,363.7162 538.0897,359.9022 536.2987,360.9002 Z M781.0324,466.4394 C777.1604,468.1314 775.0704,475.3304 773.9224,478.9484 C770.5304,489.6304 768.5344,500.6934 765.4694,511.4634 C762.4654,522.0194 757.6234,532.7304 752.8354,542.6014 C742.1814,564.5654 727.3734,582.9404 710.9064,600.7894 C715.3094,599.9204 719.0154,596.4064 722.6114,593.7664 C727.1974,590.3994 731.5484,586.7304 736.0014,583.1934 C744.3924,576.5284 752.0064,569.2184 759.2464,561.2684 C773.5314,545.5844 784.2854,525.3954 789.1744,504.7684 C791.6474,494.3314 794.7064,482.1024 793.3024,471.3164 C792.8144,467.5694 792.0704,466.8824 788.3964,466.4564 C786.7374,466.2644 782.5264,465.7874 781.0324,466.4394 Z M361.6387,550.4342 C357.3577,550.3982 354.7627,553.9232 350.9657,555.1702 C351.8447,557.7462 352.7247,560.3232 353.6037,562.9002 C354.0217,564.1252 354.2667,565.9322 355.0067,567.0132 C355.9677,568.4152 355.2427,569.2402 356.5257,567.7052 C357.9037,566.0562 358.3157,561.6582 358.9137,559.6382 C359.8227,556.5692 360.7307,553.5022 361.6387,550.4342 Z M34.0265,457.4275 C44.1785,469.5015 58.1075,479.0185 70.8065,488.1845 C84.1965,497.8495 96.4865,509.1245 109.1875,519.6545 C121.4225,529.7975 133.6165,540.0345 145.5555,550.4465 C148.6905,553.1815 151.7145,556.0545 154.8865,558.7455 C155.2745,559.0745 158.5625,561.1575 158.5625,561.7115 C158.5625,563.0415 156.0145,563.8715 155.1065,564.2415 C153.6735,564.8255 149.7975,566.2775 148.1725,565.7865 C147.3205,565.5285 147.3055,564.8345 146.6915,564.4225 C146.3385,563.7565 145.9265,563.1295 145.4585,562.5395 C144.5085,562.5545 143.5595,562.5685 142.6105,562.5805 C130.6725,554.8935 118.6945,548.1445 108.2985,538.3415 C98.0345,528.6625 89.0665,517.7475 77.6425,509.3495 C71.9425,505.1595 66.0595,501.2265 60.4605,496.8995 C55.1465,492.7925 49.0385,489.2745 44.2355,484.5905 C37.8335,478.3445 25.8475,466.7395 34.0265,457.4275 Z M842.1338,417.0481 C852.2148,417.9531 856.8788,427.5141 860.6288,435.6601 C869.3728,454.6501 866.9958,479.1571 859.5388,498.2261 C855.2468,509.1981 850.3518,520.5911 843.0648,529.9341 C839.4918,534.5151 835.2918,538.4861 830.9338,542.3081 C826.2188,546.4411 821.9948,551.4231 815.7068,552.6731 C810.2088,543.6321 818.8648,530.3201 821.6948,521.5041 C825.0788,510.9641 828.2008,499.9901 829.6468,488.9971 C831.1618,477.4821 829.2058,468.5291 823.8688,458.3581 C819.0958,449.2651 816.2628,437.1551 821.5688,427.5341 C823.7058,423.6621 826.8608,423.1861 830.6118,421.6411 C835.2158,419.7461 836.4838,416.5401 842.1338,417.0481 Z M824.4058,439.9301 C824.6418,445.6841 827.7618,449.9101 830.3248,454.8321 C833.0158,460.0041 835.0108,465.3471 835.8008,471.1451 C838.9958,494.6121 830.4238,517.5381 822.6708,539.2321 C839.3218,525.7931 851.3468,507.0931 857.6608,486.5961 C860.7218,476.6561 861.9128,463.8801 860.9238,453.5301 C860.4288,448.3511 858.5188,443.7081 856.2188,439.0941 C855.0638,436.7761 853.9088,434.1291 852.0668,432.2531 C850.2218,430.3731 847.6638,429.7471 845.3928,428.5531 C836.8828,428.3341 823.9288,428.3091 824.4058,439.9301 Z M692.3337,442.0762 C675.5567,444.4402 661.5257,453.8492 656.2227,470.3012 C650.0067,489.5872 652.9937,511.0232 654.2247,530.8372 C663.2847,534.0802 667.9937,528.8892 674.3687,523.0452 C680.4077,517.5092 686.9507,512.1852 692.5117,506.1682 C698.2477,499.9642 702.7817,492.6322 707.1917,485.4662 C711.6497,478.2242 717.6757,470.4022 720.4207,462.3362 C721.8167,458.2332 722.4127,453.6872 723.2927,449.4462 C723.5047,448.4252 724.9257,444.6262 724.4747,443.7672 C723.8527,442.5862 719.8967,442.4612 718.8107,442.2892 C710.1657,440.9222 701.0047,440.8542 692.3337,442.0762 Z M667.2907,412.0932 C662.9967,413.4232 658.7587,416.1312 654.7447,418.1142 C650.1997,420.3602 645.6567,422.6112 641.1147,424.8622 C638.9847,425.9182 636.8537,426.9732 634.7237,428.0292 C631.3767,429.6872 630.9317,429.8552 630.6677,433.6422 C629.3227,453.0142 629.4227,473.1382 630.0087,492.5362 C630.3087,502.4352 629.9727,512.3882 630.6827,522.2702 C630.7377,523.0302 630.6807,527.3192 631.1567,527.9042 C631.8267,528.7282 636.5437,529.0062 637.6707,529.2132 C642.0647,530.0162 646.4897,530.2832 650.9297,530.6802 C649.8837,508.1482 646.0417,481.5112 657.6127,460.9012 C669.2357,440.1952 694.0797,435.7102 715.8347,438.2562 C717.9977,438.4982 720.1587,438.7412 722.3207,438.9842 C722.1227,437.2372 722.3007,434.6102 721.6397,432.9832 C720.7247,430.7342 718.4857,430.4832 716.0227,429.5512 C712.1267,428.0782 708.1537,426.7972 704.3007,425.2112 C695.9387,421.7702 687.6157,418.2802 679.2487,414.8392 C675.5817,413.3302 671.2727,410.8612 667.2907,412.0932 Z M629.0407,431.5442 C622.7657,433.9342 616.9467,437.8162 611.1287,441.1592 C604.4197,445.0142 597.9987,449.1102 591.7897,453.7332 C581.3507,461.5072 569.1687,470.8282 566.4207,484.3932 C563.6017,498.3152 575.6917,509.7222 587.0267,515.4182 C599.9537,521.9132 614.9927,525.2722 629.1527,527.7532 C627.6387,495.7042 627.9947,463.6022 629.0407,431.5442 Z M514.7567,483.3132 C513.2057,492.6652 513.1197,502.2892 512.6947,511.7532 C512.6197,513.4332 511.9727,515.9622 513.0917,517.4332 C514.2147,518.9082 517.4137,519.7252 519.0397,520.5132 C523.6147,522.7312 528.1587,525.0122 532.7207,527.2572 L514.7567,483.3132 L514.7567,483.3132 Z M200.9747,462.5002 C195.0697,467.2032 189.5757,472.2942 182.9297,475.9712 C175.0667,480.3232 167.2227,484.7042 159.3797,489.0952 C159.3797,497.6782 158.7927,504.7342 164.6107,511.6822 C169.6947,517.7542 174.9777,519.1592 182.1287,521.5552 C186.3397,522.9652 186.6337,521.6652 190.0457,519.2832 C193.2887,517.0212 196.8197,515.2062 200.0177,512.8722 C206.9107,507.8422 213.7987,502.6542 220.4977,497.3632 C222.7497,495.5842 222.4177,496.1912 222.0757,494.0562 C221.7627,492.1112 220.3667,489.6352 219.6037,487.7852 C218.2237,484.4382 216.5977,481.1992 214.9707,477.9662 C213.1237,474.2982 211.5147,470.3142 209.2207,466.8942 C208.2687,465.4752 207.1387,464.1912 206.0277,462.8972 C203.6887,460.1722 203.7717,460.2732 200.9747,462.5002 Z M250.9547,463.9242 L219.8587,463.9242 C224.4607,473.4502 228.8107,483.1542 233.7717,492.5002 C238.7127,501.8102 245.0747,510.5822 250.6807,519.5182 C252.1007,517.9732 254.3657,516.2972 255.3307,514.4582 C256.3997,512.4242 256.3697,509.4312 256.5447,507.0762 C256.9987,500.9642 257.2057,494.7982 257.3597,488.6722 C257.4947,483.3072 257.7307,477.9782 258.1427,472.6262 C258.2327,471.4522 259.5277,465.3552 258.7867,464.3532 C258.1257,463.4612 252.3147,463.9332 250.9547,463.9242 Z M508.6547,470.2902 C505.6427,470.5332 500.3597,474.9412 497.5977,476.4862 C493.9497,478.5262 490.2967,480.5602 486.6307,482.5692 C479.3967,486.5332 472.1147,490.4092 464.8547,494.3262 C479.4157,501.4252 493.9767,508.5242 508.5377,515.6222 C509.0277,507.5572 509.4817,499.5092 510.2957,491.4682 C510.6427,488.0462 513.9497,469.8632 508.6547,470.2902 Z M278.5907,390.4712 C277.1647,390.5792 274.6907,393.3632 273.6217,394.2492 C271.9817,395.6072 270.3897,397.0362 268.6177,398.2252 C267.7347,398.8372 266.8127,399.3832 265.8527,399.8642 C264.3177,400.0122 263.7847,400.8552 264.2517,402.3922 C262.9037,406.7162 263.6447,412.8922 263.3817,417.4342 C277.7257,420.2892 293.2727,422.9322 306.1107,430.3372 C311.1207,433.2272 317.4717,437.6942 318.9387,443.6712 C320.6927,450.8152 313.7967,455.2402 308.0367,457.4702 C301.1207,460.1472 293.5927,461.1732 286.2647,462.0172 C282.3857,462.4642 278.4887,462.7082 274.5917,462.9292 C271.4377,463.1092 266.0887,462.4162 263.2057,463.6662 C261.3997,463.3062 260.7737,464.0382 261.3277,465.8632 L261.2277,467.8292 L261.2277,467.8292 L260.9287,473.7192 C260.7297,477.6412 260.5307,481.5642 260.3307,485.4862 C259.8977,494.0302 259.4637,502.5752 259.0307,511.1192 C266.5437,506.4642 272.5987,499.7992 279.9417,494.8332 C283.4327,492.4722 286.8987,490.1062 290.3757,487.7532 C291.8337,486.7672 292.7247,485.3842 294.1597,484.4652 C296.0627,483.2462 297.7497,482.5132 299.5347,480.9162 C306.8247,474.3962 314.9317,468.7602 322.6637,462.7752 C326.1757,460.0552 330.0207,457.5552 333.3627,454.6382 C336.8627,451.5822 336.3787,449.0662 336.2927,444.6732 C336.2027,440.0222 337.9097,434.2472 337.1177,429.7622 C337.7827,428.2402 337.2717,427.2932 335.5867,426.9212 C334.4607,426.2012 333.3357,425.4812 332.2097,424.7612 C329.9647,423.3252 327.7197,421.8892 325.4747,420.4542 L298.6827,403.3202 L298.6827,403.3202 C294.2217,400.4672 289.7607,397.6142 285.2987,394.7612 C284.0527,393.9652 279.9887,390.3652 278.5907,390.4712 Z M242.1867,417.4452 C239.6227,418.0102 237.7587,420.3772 235.7467,421.8832 C232.5627,424.2642 229.3097,426.5572 226.0987,428.9012 C220.2627,433.1632 214.4857,437.5032 208.6987,441.8302 C206.3087,443.6162 205.8497,442.9962 207.0147,445.5642 C207.7357,447.1502 209.3747,448.9452 210.3727,450.3782 C212.3597,453.2322 214.3387,457.5582 216.8877,459.8742 C220.5967,463.2442 230.8877,461.1042 235.8147,461.0802 C241.4327,461.0522 246.8487,461.1392 252.4347,460.6532 C253.7627,460.6532 255.8807,461.0692 257.1717,460.6532 C258.9467,461.2182 259.5397,460.5522 258.9527,458.6562 C258.9807,457.9932 259.0087,457.3292 259.0377,456.6652 C259.2227,452.3882 259.4267,448.1122 259.6247,443.8352 C259.8067,439.9252 259.9837,436.0142 260.1377,432.1032 C260.2437,429.4332 261.5927,422.8142 260.5137,420.4032 C259.7887,418.7822 258.0717,419.1502 255.9827,418.9132 C253.9957,418.6882 252.0027,418.4802 250.0267,418.1722 C247.5187,417.7812 244.7387,416.8832 242.1867,417.4452 Z M263.7087,419.9922 C262.3177,427.4002 262.5177,435.3532 262.2637,442.8602 C262.1257,446.9372 262.0047,451.0192 262.0067,455.1002 C262.0067,456.0822 261.6697,458.1202 262.0707,459.0332 C263.0127,461.1822 264.1087,460.3742 266.9767,460.3742 C271.8487,459.8972 276.7707,460.1032 281.6127,459.4482 C286.8767,458.7352 292.1027,457.6802 297.3567,456.8892 C302.5947,456.1022 318.5297,452.9172 316.9567,445.0992 C315.2947,436.8352 303.0957,431.8852 296.3457,429.1072 C285.8037,424.7682 274.7977,422.4452 263.7087,419.9922 Z M131.5724,460.3832 C129.9204,460.2952 128.5744,461.0972 127.6424,459.5212 C129.1674,458.3322 130.0474,459.7022 131.5724,460.3832 Z M405.8017,339.6932 C403.3537,340.5132 403.4317,340.0992 403.3297,342.9412 C403.1697,347.3322 403.0497,351.7242 402.8087,356.1112 C401.8597,373.3802 400.0257,390.4812 397.5127,407.5832 C397.0037,411.0402 395.5797,415.5742 396.3627,419.0072 C397.0687,422.1022 399.7427,425.4082 401.5087,428.0042 C405.1417,433.3432 413.6977,435.9812 419.7167,437.4952 C426.0637,439.0922 432.6537,439.6802 438.6837,441.1042 C440.3547,441.4992 442.2727,440.8032 444.0537,441.1992 C445.7007,441.5652 446.9797,442.4692 448.5017,443.1232 C452.2307,444.7242 456.3967,445.0192 460.2477,446.2552 C467.8837,448.7062 476.0597,448.5592 483.7027,450.9132 C485.6567,451.5142 487.3447,453.0302 489.2247,453.5492 C490.9437,454.0232 492.7137,453.4652 494.5127,453.7302 C498.3247,454.2912 501.8787,455.5942 502.7577,459.6862 C505.0887,457.8412 505.4127,458.3262 505.0097,455.4722 C504.7517,453.6422 503.7327,451.4142 503.1747,449.6502 C501.7527,445.1522 500.3227,440.6572 498.9017,436.1592 C496.0907,427.2582 493.2967,418.3502 490.7057,409.3832 C488.3867,401.3622 486.2787,393.2802 484.4367,385.1362 C483.4997,380.9952 482.7167,376.8362 481.9137,372.6732 C481.6797,371.4652 481.9117,369.5452 480.6977,368.7412 C479.5967,368.0122 477.0267,370.6282 475.8637,371.4712 C467.7407,377.3552 449.1097,394.7582 438.9537,384.4922 C433.4847,378.9642 433.8047,369.2452 434.3987,362.1032 C434.7627,357.7132 435.5337,353.3802 436.3957,349.0642 C436.6107,347.9872 437.9277,344.5272 437.4457,343.7602 C436.9247,342.9352 431.5027,342.4432 430.4157,342.2012 C426.3687,342.2462 422.7007,341.6512 418.7427,340.8062 C417.2907,340.4972 416.0147,340.3662 414.5427,340.2362 C412.8737,340.0892 411.3577,339.1852 409.8947,339.0082 C408.7887,338.8752 406.8577,339.3392 405.8017,339.6932 Z M500.6097,353.3322 C497.3617,353.5232 494.7307,356.6082 492.3337,358.5582 C489.6787,360.7192 484.2237,363.7612 483.7887,366.9832 C483.3007,370.5812 485.2777,375.7152 486.0437,379.2052 C488.8447,391.9422 492.2527,404.5542 495.8427,417.0882 C499.5667,430.0922 503.3407,443.2272 508.3767,455.7982 C512.9207,453.9602 512.8487,451.6522 513.0467,446.8982 C513.2867,441.1222 513.4267,435.3392 513.5917,429.5602 C513.8857,419.2622 514.1637,408.9592 514.0717,398.6552 C513.9827,388.5902 513.4897,378.5412 512.3377,368.5382 C511.9307,365.0012 512.3357,358.9602 510.4717,355.9432 C508.7707,353.1912 503.4907,353.1622 500.6097,353.3322 Z M512.6707,355.1002 C512.3077,362.3852 514.1267,370.1302 514.7997,377.4152 C515.5797,385.8442 515.9987,394.2292 515.9297,402.6962 C515.7937,419.1052 515.1707,435.5182 514.7327,451.9212 C516.7957,452.0692 517.1217,444.2122 517.4627,442.1342 C518.1127,438.1902 518.7787,434.2492 519.4617,430.3102 C520.8287,422.4362 522.2647,414.5742 523.7767,406.7272 C526.8007,391.0352 530.1357,375.4022 533.8317,359.8552 C529.8597,359.1392 526.2107,358.6242 522.3317,357.4682 C519.1987,356.5342 515.4677,357.0422 512.6707,355.1002 Z M339.0557,428.8822 L339.0557,449.8892 C343.9707,445.7012 349.1437,441.8112 353.8727,437.4072 C348.9337,434.5652 343.9957,431.7242 339.0557,428.8822 Z M346.8357,360.2282 C344.8627,372.6252 343.2327,385.0762 341.9607,397.5652 C341.3467,403.6022 340.8167,409.6482 340.3717,415.7002 C340.2457,417.4082 338.9207,423.1772 339.7677,424.7682 C340.6587,426.4392 346.1037,428.6752 347.7707,429.6992 C352.4307,432.5632 356.0517,436.8782 360.4837,432.1702 C363.5347,428.9282 365.9917,424.3582 369.4017,421.5292 C371.1787,420.0552 372.8517,420.1242 374.8447,419.2492 C377.1617,418.2332 377.2347,417.2542 380.0037,418.6372 C384.6687,420.9662 387.5027,424.4082 392.9287,425.3102 C393.2217,422.4482 394.2867,420.0582 392.8467,417.3322 C391.6097,414.9882 389.5957,412.6332 388.0827,410.4142 C383.7527,404.0582 378.8967,397.9702 374.1797,391.8982 C369.8597,386.3372 365.4337,380.8352 360.9057,375.4422 C358.3837,372.4392 355.7837,369.5012 353.1997,366.5512 C351.3067,364.3922 349.5127,361.3582 346.8357,360.2282 Z M395.6017,421.7152 C395.1777,423.8982 394.1177,424.9262 395.2287,426.9312 C396.1717,428.6342 398.8757,429.7492 400.6907,429.3182 L395.6017,421.7152 Z M631.5697,395.1012 C631.3487,405.3342 631.1277,415.5682 630.9077,425.8002 C642.1937,420.2522 653.4807,414.7042 664.7677,409.1552 L631.5697,395.1012 L631.5697,395.1012 Z M634.9837,362.6442 C627.9527,362.5792 621.0727,363.6172 614.0517,363.2962 C607.9157,363.0162 601.5727,363.0822 595.4817,363.5552 C595.3417,366.8942 603.3457,367.8222 605.4207,368.6012 C610.2147,370.3992 614.9817,372.2982 619.6367,374.4262 C629.2237,378.8082 639.4467,381.6632 648.6267,386.9612 C668.4157,398.3822 689.8987,406.4332 709.8907,417.3572 C713.0057,419.0602 719.0927,423.1612 722.6507,422.8142 C724.5417,422.6302 723.1327,424.1522 724.3597,421.1462 C724.8007,420.0642 724.9477,418.6572 725.1947,417.4982 C725.9357,414.0252 726.5087,410.5202 727.3407,407.0662 C728.7097,401.3812 730.1077,396.1072 730.6847,390.2642 C730.9297,387.7882 731.1977,385.3152 731.2267,382.8252 C731.2567,380.3012 731.8377,373.9772 730.6987,371.7922 C729.9427,370.3432 729.7917,370.8402 727.9037,370.4312 C726.8217,370.1972 725.6867,369.7102 724.6437,369.3852 C722.1947,368.6232 719.7437,367.8912 717.1757,367.6672 C714.6387,367.4452 713.0197,366.6732 710.6407,366.2252 C708.1447,365.7552 705.5807,366.3252 703.0377,365.6692 C700.2927,364.9602 698.9827,364.3132 696.1147,364.5842 C693.3337,364.8462 692.5337,364.2302 689.8107,363.4722 C687.5377,362.8402 684.8297,363.2822 682.4607,363.0902 C679.5937,362.8562 676.7357,362.4982 673.8667,362.2712 C660.9667,361.2502 647.9137,362.7642 634.9837,362.6442 Z M331.7997,350.6602 C329.1857,352.1592 326.6187,353.7352 324.0907,355.3752 C319.3267,358.4662 314.7107,361.7832 310.1937,365.2242 C300.7217,372.4392 291.6887,380.2032 282.4177,387.6712 C290.9117,395.1152 301.3667,400.8962 310.8637,406.9252 C316.4787,410.4902 322.1227,414.0162 327.8397,417.4152 C330.7387,419.1372 334.1007,421.7702 337.4287,422.6102 C338.2817,410.2882 339.2437,398.0342 340.7207,385.7682 C341.4797,379.4702 342.3627,373.1892 343.2217,366.9042 C343.5717,364.3452 344.9217,360.0502 344.1697,357.5642 C343.4307,355.1172 340.1687,352.7882 338.3787,351.0182 C337.8977,350.5422 336.4187,348.5452 335.7827,348.4552 C335.1017,348.3602 332.5387,350.2372 331.7997,350.6602 Z M261.0037,403.4302 C255.7397,407.0282 250.4107,410.5972 245.8307,415.0692 C249.8597,414.8182 255.4697,417.5902 259.2647,416.2882 C261.0167,416.6622 261.5957,415.9972 261.0037,414.2912 L261.0037,403.4302 Z M366.4207,339.3532 C363.7547,339.7042 361.1237,340.2702 358.5037,340.8722 C356.6207,341.3052 350.6397,341.6712 349.3837,343.0712 C348.2397,344.3482 348.2317,350.2272 347.9957,351.8842 C347.4707,355.5742 347.6107,356.8482 349.9637,359.7012 C357.7057,369.0892 365.7687,378.1972 373.3977,387.6892 C380.7257,396.8072 386.7407,406.9952 394.1477,415.9842 C398.1037,404.4692 398.3407,390.6502 399.4267,378.5762 C400.0057,372.1382 400.5327,365.6952 401.0277,359.2512 C401.4987,353.1132 403.1007,345.1482 401.0637,339.2962 C389.5807,339.4872 377.9297,337.8342 366.4207,339.3532 Z M265.2238,359.9604 C266.7138,363.7014 264.2398,364.5384 261.2378,365.8344 C257.3438,367.5154 253.5138,369.2894 249.5488,370.8034 C241.2078,373.9864 232.8068,376.9424 224.6648,380.6254 C209.1358,387.6484 193.3968,394.3924 178.1088,401.9124 C174.3098,403.7814 170.5078,405.6434 166.6748,407.4434 C162.7108,409.3054 158.1648,412.4384 153.9238,413.5024 C150.2248,414.4304 149.8388,411.7964 152.0308,409.3704 C154.8568,406.2414 159.2258,403.9054 162.7748,401.7304 C177.3808,392.7774 193.3218,385.4894 209.2748,379.3304 C227.7138,372.2104 246.2028,365.3794 265.2238,359.9604 Z M224.4832,353.7482 C227.1802,357.4142 194.5242,368.9302 191.3422,370.0762 C176.5662,375.3962 161.3092,379.4812 146.2912,384.0692 C144.8402,380.5122 160.2412,376.2152 163.1002,375.0172 C170.0782,372.0962 177.5542,370.3292 184.7792,368.0982 C191.8842,365.9042 198.9582,363.5422 205.9462,361.0032 C208.1072,360.2172 223.6692,352.6402 224.4832,353.7482 Z M440.6717,343.4022 C437.9677,344.1822 436.9857,357.7332 436.6137,361.1342 C436.0147,366.6122 435.6107,373.2582 438.0577,378.4042 C442.7737,388.3242 455.4807,380.5812 461.6627,376.4202 C466.9617,372.8522 472.9647,369.2392 477.6647,364.9082 C481.8277,361.0712 478.0907,352.8812 477.0997,347.9232 C471.0687,347.4732 465.2387,347.0252 459.2897,345.9022 C456.0817,345.2962 452.8737,345.3802 449.6487,344.9712 C447.3387,344.6782 442.8237,342.7812 440.6717,343.4022 Z M791.7167,112.9042 C776.5127,114.2382 760.5897,114.0312 745.4957,116.6842 C728.2087,119.7222 710.1887,121.6282 693.4277,126.9822 C676.9867,132.2352 660.2187,135.9122 644.0107,142.0802 C628.2547,148.0762 613.0787,154.4552 598.2407,162.4752 C590.9787,166.4002 583.9117,170.5612 576.9887,175.0692 C570.2297,179.4702 562.8237,183.0782 556.2747,187.7432 C550.4447,191.8962 545.4157,195.7052 540.3317,200.7932 C534.8977,206.2332 529.6107,211.8202 524.1717,217.2512 C519.6317,221.7822 522.5057,232.8602 522.7937,238.8902 C523.1927,247.2502 523.8817,255.4922 524.9067,263.7972 C525.8817,271.7112 526.8857,280.2172 525.5967,288.1142 C525.0557,291.4342 523.1877,297.1692 524.0797,300.4832 C524.7927,303.1372 529.5267,305.0832 531.9417,305.9482 C534.8957,307.0062 537.9127,306.5602 540.9437,307.9062 C544.3287,309.4112 547.1827,311.2872 550.7777,312.0782 C555.2087,313.0532 560.1907,313.8732 564.7447,313.9032 C568.9557,313.9302 573.1807,315.2942 577.3797,316.1342 C584.2097,317.5022 590.8767,317.9282 590.4517,326.1652 C589.9607,335.6692 586.1897,343.8242 583.9437,352.8462 C586.9807,352.8462 589.0977,353.0402 591.8777,351.9632 C595.1237,350.7072 598.5867,350.3732 601.9977,349.8312 C609.5337,348.6322 616.8807,348.2482 624.4667,347.4832 C638.3627,346.0812 652.4997,346.2492 666.4067,346.3972 C673.4477,346.4712 681.0857,347.0152 688.0297,348.1112 C695.1537,349.2362 702.5317,349.9392 709.4357,352.0962 C715.2597,353.9162 721.2737,355.1562 727.2147,356.7642 C729.8927,357.4882 733.0997,358.0762 735.6297,358.8862 C739.2957,360.0612 741.2547,362.5662 745.4877,362.510157 C744.2967,354.6692 741.4987,347.3962 739.8107,339.6212 C738.0487,331.5012 734.5327,324.3172 730.6527,316.6572 C728.9217,313.2402 727.6407,309.6142 725.9717,306.1682 C724.1157,302.3352 721.5067,299.1602 719.2657,295.5762 C714.6807,288.2452 709.7867,281.1932 705.2827,273.8102 C701.3507,267.3642 696.8587,261.1852 692.5537,254.9632 C687.8217,248.1222 681.2457,242.9592 675.8747,236.6832 C673.6077,234.0322 671.4497,231.5692 668.9097,229.1362 C666.5707,226.8962 663.2527,221.9382 659.6717,221.7062 C657.6137,221.5722 654.0477,222.7302 652.0837,223.3512 C648.4497,224.5022 644.5947,225.2522 640.8417,226.2652 C636.7347,227.3742 632.6987,228.8172 628.5847,229.8712 C626.9387,230.2922 624.9837,230.0922 623.4227,230.5692 C621.7907,231.0692 620.4877,232.1702 618.7027,232.6752 C609.8967,235.1732 601.1437,238.0092 592.2727,240.2832 C583.1397,242.6252 573.8667,244.6192 565.0157,247.9362 C563.3277,248.5692 561.4497,250.0652 560.1527,249.0822 C559.1857,248.3482 558.5617,246.2752 558.8167,245.0652 C559.6657,241.0372 566.1087,239.5822 569.2107,237.9652 C577.5237,233.6312 585.7827,230.5752 594.7167,227.6322 C599.1177,226.1842 603.5027,224.6382 607.9647,223.3872 C611.6947,222.3422 615.5767,220.5742 619.3907,220.0392 C622.7827,219.5632 625.1917,218.2272 628.5587,217.0442 C633.5187,215.3012 638.6197,213.8702 643.6607,212.3812 C652.2757,209.8352 661.4077,208.7652 670.2227,207.0582 C690.6447,203.1032 711.8477,201.1232 732.6867,201.3682 C743.1927,201.4922 754.1827,201.1852 764.5657,202.9132 C767.0697,203.3292 772.3327,203.2492 774.0587,205.4962 C774.9857,206.7022 774.4837,208.4972 774.7217,209.8042 C775.1237,212.0102 776.3267,213.0382 777.3697,215.0482 C779.5867,204.1722 782.1337,193.5272 784.9957,182.8102 C787.5837,173.1112 789.9787,163.2362 793.4367,153.6732 C797.0957,143.5552 801.5317,132.8272 807.0007,123.5672 C808.1267,121.6612 810.9337,118.6332 811.1747,116.5012 C811.4247,114.3012 808.3417,112.5972 806.2237,112.3522 C801.4717,111.8032 796.3837,112.7432 791.7167,112.9042 Z M480.3727,349.2582 C481.0837,353.1012 481.7967,356.9452 482.5097,360.7882 C486.3747,357.8352 490.2417,354.8822 494.1067,351.9292 C489.8367,349.7772 485.0537,349.5342 480.3727,349.2582 Z M346.4277,344.0692 L337.4747,347.1382 C339.9217,349.5392 342.2537,352.0632 344.9517,354.1952 L346.4277,344.0692 Z M824.6721,280.2738 C827.9311,283.2068 826.3651,286.2328 825.2981,289.8968 C824.6561,292.0958 821.1301,299.3158 822.1031,301.3728 C823.2281,303.7508 828.5101,304.3358 830.7691,305.0868 L832.585171,305.692826 C835.91368,306.811652 839.227869,307.992492 842.3781,309.5528 C844.0301,310.3718 849.9891,312.2538 851.1061,313.7818 C851.7461,314.6578 851.9791,315.3438 851.4981,316.4728 C850.6531,318.4548 849.4481,317.4058 847.3891,316.9808 C837.9801,315.0368 828.6511,312.5508 819.9251,308.4508 C817.4921,314.0978 815.4321,319.8648 813.3741,325.6588 C812.7711,327.3568 812.1951,331.2148 809.9041,331.4898 C807.1101,331.8238 807.0721,328.0818 807.2581,326.0628 C807.5281,323.1148 809.0561,319.9718 809.9781,317.1808 C810.7391,314.8768 813.4081,310.0798 813.0791,307.7058 C812.8541,306.0718 811.8581,306.1858 810.0831,305.5438 C808.4061,304.9378 806.7281,304.3348 805.0521,303.7218 C802.3651,302.7388 799.6891,301.7528 797.0741,300.5868 C795.6391,299.9468 792.6361,299.1988 791.5971,297.8708 C790.9941,297.1008 790.3221,294.3258 791.0831,293.5578 C792.8621,291.7588 804.6941,296.6008 807.1271,297.2618 C808.7411,297.7008 810.3631,298.0358 811.9291,298.6108 C812.5221,298.8298 813.2241,299.7178 813.8651,299.7508 C816.5871,299.8888 816.8031,297.7958 817.6471,295.5508 C819.6081,290.3338 821.7371,285.0118 824.6721,280.2738 Z M150.0028,299.8132 C148.8728,305.4072 147.5308,310.9622 146.9268,316.6392 C150.8818,316.2812 154.8258,315.9102 158.7658,315.4242 C166.2738,314.6432 173.7508,313.5192 181.2508,312.7772 C188.3528,312.0742 194.6348,311.3262 201.1228,308.0722 C192.2618,305.4002 183.3808,302.8702 174.4448,300.4562 C170.0128,299.2592 165.5898,297.9922 161.1378,296.8742 C157.6938,296.0082 154.6918,295.5102 153.3678,291.7512 C151.8268,287.3752 156.1118,288.0382 158.7828,289.1502 C162.4668,290.6832 166.4798,291.6362 170.2978,292.9112 C178.8198,295.7562 187.3938,298.3732 195.9958,300.9602 C198.6698,301.7642 214.1638,304.7382 208.5808,309.9072 C206.1918,312.1202 200.8608,313.3352 197.9398,314.9242 C194.1928,316.9622 190.1138,317.7742 185.9458,318.5852 C177.2588,320.2752 168.2438,320.9242 159.4498,322.3902 C154.9588,323.1392 150.4688,323.8882 145.9788,324.6372 C143.3478,325.0752 142.3348,325.0322 141.6478,322.0982 C141.1478,319.9662 141.7998,317.8332 142.2798,315.7682 C143.4978,310.5212 144.8528,305.3012 146.1938,300.0852 C146.7038,298.0952 147.6068,289.3472 149.3818,288.3902 C153.4088,286.2192 150.3018,298.3302 150.0028,299.8132 Z M504.9097,264.9132 C501.2527,265.7642 497.2697,265.8672 493.5467,266.3302 C485.7977,267.2932 478.3257,267.8582 470.4657,267.8902 C466.5967,268.0662 462.7267,268.2412 458.8577,268.4172 C462.7157,281.0972 462.1777,294.5992 462.1777,307.7422 C480.2067,305.6172 498.3807,305.2552 516.5167,305.4022 C513.1847,298.9742 514.4767,290.6352 515.4257,283.7522 C515.9817,279.7232 516.2917,275.8422 516.2107,271.7772 C516.1347,267.9642 517.2337,264.7582 513.1937,263.5792 C509.9887,262.6442 507.9627,264.2022 504.9097,264.9132 Z M446.0517,268.0912 C445.4597,268.0892 444.8697,268.0862 444.2777,268.0842 C439.9037,268.1192 435.5257,268.3222 431.1547,268.4672 C416.1307,268.9672 401.4717,269.6342 386.5757,271.9792 C379.6507,273.0692 372.6647,274.4102 365.7757,275.7482 C359.9767,276.8742 360.9527,277.8192 366.3687,277.8332 C370.6047,277.8442 374.8047,277.2152 379.0197,276.8862 C384.2657,276.8852 389.5177,276.8192 394.7627,276.9072 C399.5227,276.9882 405.7247,276.1592 410.0847,278.6102 C418.9677,283.6022 401.2107,296.4232 397.6097,299.6502 C403.4317,301.7602 412.5187,297.5722 418.2187,295.6532 C425.2667,293.2812 432.4537,291.6882 439.6427,289.8302 C441.4387,289.3662 449.1487,288.4572 450.1227,287.0812 C451.0887,285.7162 448.9247,277.4812 448.7077,275.7442 C448.5047,274.1112 448.6757,271.5652 447.9957,270.0292 C448.4127,268.1842 447.7647,267.5372 446.0517,268.0912 Z M391.0327,287.3132 C387.0227,287.5412 383.0157,287.7082 379.0057,287.9032 C375.0947,288.0942 364.2467,287.7982 362.8357,292.7742 C364.0817,292.7112 365.3297,292.6472 366.5767,292.5842 C378.1957,289.3612 390.5427,290.5492 402.2197,288.0992 C399.5637,285.6752 394.5597,287.1112 391.0327,287.3132 Z M248.201999,216.327525 L248.5714,216.461 L248.5714,216.461 C264.3974,218.78 279.0884,230.043 284.4194,245.212 C289.9154,260.849 284.8654,278.041 270.3154,286.609 C240.9104,303.926 201.6094,275.067 208.7064,241.897 C210.5084,233.475 215.6254,226.953 222.5774,222.022 C230.081285,216.698397 239.120357,216.438232 247.966549,216.459185 L239.6944,216.4293 C242.532983,215.770925 245.36973,215.362356 248.201999,216.327525 Z M240.0304,222.973 C226.7404,225.644 214.6124,231.634 212.4834,246.57 C210.5484,260.144 219.7944,272.702 231.1484,279.056 C243.4284,285.93 258.8154,287.072 271.0514,279.454 C283.9324,271.434 286.8544,255.362 279.0144,242.753 C270.2664,228.682 255.6114,224.529 240.0304,222.973 Z M826.1117,114.3262 C822.1697,114.4832 820.8397,119.0002 818.9437,122.1422 C816.1907,126.7032 813.8437,131.4422 811.6787,136.3072 C807.2447,146.2752 802.5637,156.5732 799.3917,166.9872 C797.6507,172.7052 795.9307,178.4292 794.2197,184.1562 C792.7397,189.1142 789.0367,196.2662 790.0207,201.3542 C797.3137,190.1152 804.1047,178.4432 809.9987,166.4062 C810.8907,165.3812 811.7847,164.3552 812.6767,163.3292 C810.5017,162.7082 808.3267,162.0862 806.1517,161.4652 C803.8387,160.8052 802.5937,160.9562 803.6227,158.3722 C804.9107,155.1352 810.7947,154.7642 813.6227,154.6422 C823.3597,154.2212 833.5877,157.3192 842.8377,160.0482 C847.3507,161.3802 850.8887,163.4412 854.7077,166.1822 C856.3747,167.3792 858.2997,168.5032 859.7587,169.9412 C861.2747,171.4352 861.9057,173.3492 863.3877,174.8472 C865.8187,177.3032 868.9297,178.5262 870.1217,182.0712 C871.4897,186.1402 869.8567,190.7982 867.8317,194.3462 C865.7777,197.9472 862.7267,200.6702 860.2487,203.9422 C858.2817,206.5382 854.1747,213.6312 860.5927,212.8092 C863.9867,212.3742 868.3887,206.5862 870.8317,204.2802 C874.3327,200.9732 877.7767,197.5902 881.4847,194.5102 C884.7727,191.7792 888.5607,188.9792 892.9577,188.4992 C897.5917,187.9932 899.9067,190.9592 902.1657,194.5662 C904.2957,197.9682 904.6377,201.2892 906.1357,204.7712 C906.8587,206.4502 907.7787,207.3862 908.2037,209.2162 C908.8567,212.0312 908.9247,215.1022 909.2577,217.9722 C909.7817,222.4792 910.2747,226.0232 909.4017,230.4392 C908.5837,234.5722 908.3607,238.9622 907.6717,243.1672 C906.8917,247.9292 906.2427,252.7132 905.4737,257.4772 C904.8227,261.5132 902.3457,267.2612 904.7757,271.0142 C910.6137,280.0332 917.6177,266.7562 919.4617,261.7962 C922.7037,253.0802 924.3537,243.5522 927.2147,234.6572 C928.7467,229.9002 930.0837,225.0982 930.9617,220.1732 C931.6887,216.1002 931.3307,211.1382 933.5627,207.5102 C935.2977,204.6922 938.3837,202.5522 941.7707,203.4122 C946.0087,204.4892 947.6367,210.6152 948.8837,214.3392 C952.1747,224.1612 950.9637,233.0072 949.6237,243.0242 L949.285284,245.554165 C948.772791,249.348514 948.218064,253.136473 947.3467,256.8682 C946.6277,259.9452 943.6507,266.1732 948.0767,267.8462 C954.3517,270.2202 961.0027,252.2182 962.7907,248.1532 C967.4727,237.5062 969.2657,226.9472 971.1957,215.5392 C971.6387,212.9162 971.9777,210.2372 972.6407,207.6592 C973.2177,205.4152 974.9417,203.1472 975.0967,200.9032 C975.2517,198.6572 973.7647,197.0902 975.2887,194.8852 C976.5567,193.0502 978.8477,192.9392 980.9177,192.9232 C985.7797,192.8852 990.4307,195.0202 994.9537,196.5692 C999.1637,198.0102 1005.3907,201.1722 1009.9277,200.1542 C995.6887,185.6972 981.4857,171.4042 964.5027,160.1452 C956.6167,154.9162 948.7247,149.8912 940.2007,145.6272 C931.5667,141.3082 921.6727,138.3912 912.4257,135.7782 C907.3967,134.3562 902.3957,132.7452 897.4297,131.1142 C893.0087,129.6622 888.5587,129.3872 884.2297,127.7402 C874.8247,124.1632 864.3157,122.7772 854.5777,120.2412 C850.2777,119.1222 845.9307,118.1622 841.6207,117.1252 C837.0907,116.0352 830.7267,114.1422 826.1117,114.3262 Z M498.4587,174.8992 C496.1237,175.7072 494.7927,177.4212 493.7437,179.5752 C493.0767,180.9432 492.9217,182.9202 492.0597,184.1112 C490.7597,185.9042 490.6797,185.7052 487.9847,185.3882 C484.5537,184.9852 481.7397,183.6672 478.4887,182.7482 C474.9477,181.7462 472.6447,183.7842 469.5507,185.4272 C463.9647,188.3952 458.5697,189.4252 452.3127,189.8962 C445.3447,190.4212 438.8867,188.7412 431.9877,188.3082 C433.7777,196.5532 438.4067,203.2472 442.1067,210.7132 C442.7567,212.0262 443.8077,213.3682 443.8327,214.8872 C443.8587,216.3182 441.7867,218.2652 442.0197,219.4492 C442.5187,221.9752 448.0777,223.9972 450.1837,224.7082 C456.1407,226.7172 462.9237,230.6502 469.4797,229.0702 C473.0747,228.2042 475.0087,222.5282 478.3917,222.1112 C482.9297,221.5492 479.5347,227.3932 478.6917,229.4032 C485.1327,230.3822 493.2967,229.5522 499.4617,227.3682 C502.5517,226.2742 505.1697,224.6412 507.9897,223.0222 C511.5017,221.0062 512.2317,220.4522 513.7787,216.5862 C515.0817,213.6182 517.3257,211.1122 519.2437,208.5082 C520.2807,207.1002 522.0747,205.4172 522.7387,203.7702 C523.6837,201.4262 523.6787,201.9282 522.2667,199.8752 C520.9317,197.9352 520.9587,197.7892 518.8947,197.4422 C517.1567,197.1502 515.3057,197.6462 513.5307,197.3282 C511.7357,197.0062 506.8027,195.4942 507.9337,192.6382 C507.8847,192.7632 510.7387,191.3562 510.9607,191.1122 C511.6777,190.3312 511.9047,188.6662 512.2587,187.7222 C513.3987,184.6962 513.7987,182.7372 512.5287,179.5152 C510.6307,174.7042 503.1287,173.2802 498.4587,174.8992 Z M419.8457,79.975 C423.6447,88.709 418.5067,98.223 412.4307,104.364 C404.5047,112.373 395.8687,120.328 386.9657,127.234 C382.3907,130.784 378.5557,135.077 374.1107,138.781 C369.3797,142.724 365.2867,146.69 361.7887,151.789 C358.4007,156.73 354.9137,161.667 352.7117,167.276 C350.3007,173.418 350.4067,179.439 350.4067,185.937 C345.2117,187.539 351.7247,188.621 349.6897,191.397 C347.4577,194.441 343.7057,185.062 343.1447,183.291 C339.8377,172.828 341.3167,160.117 343.1227,149.494 C344.0347,144.135 344.6237,138.688 345.8537,133.387 C347.0537,128.218 349.6667,123.306 352.0807,118.604 C356.9137,109.196 363.3137,100.431 370.5767,92.76 C377.8617,85.064 385.9817,77.364 395.5947,72.626 C403.5377,68.713 416.1277,71.428 419.8457,79.975 Z M310.3127,112.3648 C315.1567,122.5588 311.4637,136.1408 312.5197,147.0828 C312.6187,152.6388 312.9337,158.1918 312.3937,163.7198 C311.8267,169.5228 314.5487,172.5118 318.0967,176.7858 C315.0837,179.8438 308.1697,172.7138 306.2607,170.6118 C302.3297,166.2838 299.4047,160.5338 296.8017,155.3368 C291.2577,144.2658 287.4397,132.4128 291.8767,120.2578 C293.5217,115.7528 295.5337,109.6278 299.8887,107.0048 C304.6707,104.1248 308.3287,108.1868 310.3127,112.3648 Z M305.8487,113.6098 C290.2527,127.4358 297.9367,148.8028 306.9087,163.8048 L305.7687,147.7328 C305.2347,136.3588 306.7557,124.9538 305.8487,113.6098 Z M398.7107,80.925 C392.1437,83.66 386.8097,89.38 381.9157,94.364 C376.5777,99.801 371.1967,105.177 366.6727,111.33 C361.7947,117.965 357.1637,125.151 354.1747,132.851 C350.8257,141.477 349.5177,150.404 347.8927,159.473 C347.7337,160.327 347.5747,161.181 347.4157,162.036025 C347.5127,162.058 355.1687,147.268 356.4367,145.482 C360.7387,139.427 366.3367,134.389 371.7337,129.332 C383.1657,118.62 396.5457,109.974 407.7487,99.071 C411.4347,95.484 418.0387,90.049 416.5807,83.984 C415.1317,77.956 402.8997,79.181 398.7107,80.925 Z M752.6771,19.9999 C755.3361,24.8289 762.6991,26.7589 767.2551,29.2439 C773.5331,32.6679 780.2191,35.1889 786.6451,38.3079 C792.9571,41.3709 799.0371,44.8879 805.3561,47.9439 C808.5601,49.4939 811.8131,50.9399 815.0111,52.5019 C817.0131,53.4799 821.7611,55.0539 823.0061,56.8699 C826.7871,62.3819 813.8461,62.9149 811.3481,63.4009 C803.8571,64.8619 796.2791,65.6849 788.8021,67.1869 C781.8311,68.5889 774.8471,69.8899 767.8511,71.1609 C760.9271,72.4189 753.7931,74.3749 746.7471,74.3749 C746.7471,64.6379 747.8291,55.0319 748.7201,45.3399 C749.5221,36.6199 749.8311,28.3079 752.6771,19.9999 Z M754.0451,31.7989 C753.2631,40.4429 752.4811,49.0859 751.6981,57.7299 C751.4861,60.0689 750.6201,63.2509 750.9891,65.5589 C751.3841,68.0219 750.5411,67.7589 753.7521,67.4089 C757.8581,66.9599 761.9781,65.9459 766.0421,65.2209 C773.3481,63.9169 781.1181,63.5449 788.2691,61.6269 C791.9181,60.6479 795.4131,60.5249 799.1171,59.9329 C803.1851,59.2829 807.1441,58.0789 811.2531,57.6649 L754.0451,31.7989 L754.0451,31.7989 Z M169.0597,647.785 C167.5407,648.846 166.0227,648.906 164.5027,647.789 C166.0217,647.787 167.5407,647.786 169.0597,647.785 Z M583.2592,327.2199 C583.1152,327.8499 579.9952,327.5389 579.5842,327.5409 C580.6542,327.4199 582.1562,327.0449 583.2592,327.2199 Z M423.9113,258.5438 L421.333425,258.2468 L421.333425,258.2468 L419.201955,257.9999 L419.309561,258.005663 C420.860917,258.034202 422.518443,257.136657 423.9113,258.5438 Z M363.2257,292.2978 C364.3417,292.3928 365.4587,292.4878 366.5767,292.5838 C365.3297,292.6478 364.0817,292.7108 362.8357,292.7748 C362.8427,292.5188 362.9727,292.3598 363.2257,292.2978 Z M393.7527,276.8836 L379.0197,276.8866 C383.9317,276.0766 388.8427,275.8066 393.7527,276.8836 Z M513.779,216.5856 C512.74,219.1806 512.577,220.5686 510.007,221.6396 C511.029,218.9696 511.283,217.9676 513.779,216.5856 Z M461.0424,204.2858 C466.7884,205.0688 464.2134,214.3228 459.8654,215.0208 C455.1334,215.7798 451.9764,211.0528 451.2414,207.0878 C456.5434,210.7988 460.5934,212.6268 461.0424,204.2858 Z M454.2303,193.7477 C458.1693,193.7897 463.5773,193.6457 464.6193,198.2777 C459.8043,199.2687 454.8593,199.7867 450.1573,201.2457 C448.9843,201.6097 445.1343,203.8457 443.7293,203.2567 C441.5943,202.3597 442.6743,200.0587 443.5733,198.8307 C445.9793,195.5467 450.2833,193.7067 454.2303,193.7477 Z M347.8927,159.473 C348.8577,159.988 348.3567,162.252 347.4157,162.036 C347.5747,161.181 347.7337,160.327 347.8927,159.473 Z" id="Combined-Shape" fill="#000"/></g></svg>