<svg viewBox="124.92799999999991 24.576000000000043 774.1440000000001 718.8480000000001" xmlns="http://www.w3.org/2000/svg" xmlns:xlink="http://www.w3.org/1999/xlink" overflow="visible" width="716.8000000000001px" height="665.6px"><rect id="Blush Background Color" fill="none" x="124.92799999999991" y="24.576000000000043" width="774.1440000000001" height="718.8480000000001"/><g id="Master/Doodles/Zombieing" stroke="none" stroke-width="1" fill="none" fill-rule="evenodd"><path d="M525.318,94.7584 C522.223,102.9494 519.13,111.1414 516.035,119.3324 C514.051,124.5814 512.069,129.8294 510.086,135.0784 C509.382,136.9394 508.991,138.8484 507.631,140.1404 C504.425,143.1824 498.671,145.1184 494.818,147.2584 C492.237,148.6924 489.655,150.1264 487.074,151.5604 C485.743,152.3004 482.792,153.2294 481.859,154.4574 C480.833,155.8104 481.318,158.2954 481.318,160.1664 L481.318,176.3204 L481.318,206.7584 C494.651,205.0914 507.985,203.4254 521.318,201.7584 C503.554,222.2554 485.791,242.7514 468.027,263.2484 C463.649,268.2994 458.334,273.1614 455.072,279.0384 C448.13,291.5484 441.344,304.1484 434.482,316.7024 C428.094,328.3874 421.706,340.0734 415.318,351.7584 L472.787,349.3124 C487.666,348.6794 502.951,349.6314 517.287,345.4144 C529.105,341.9384 540.922,338.4634 552.74,334.9874 C554.312,334.5244 559.208,334.0014 560.322,332.7364 C561.365,331.5514 561.343,327.0744 561.638,325.5584 C567.216,296.8884 574.317,265.2944 590.597,240.6154 C602.269,222.9244 618.019,207.4354 632.443,192.0084 C638.073,185.9874 643.801,180.0384 649.231,173.8344 C650.622,172.2454 652.631,170.4424 653.551,168.5124 C654.145,167.2654 654.975,164.8894 654.606,163.7824 C654.446,163.3024 650.735,161.5804 650.203,161.2384 C646.442,158.8214 642.714,156.3534 638.978,153.8974 C628.48,146.9954 617.992,140.0764 607.434,133.2664 C599.203,127.9564 590.995,122.3264 582.313,117.7634 C573.314,113.0334 563.403,109.7044 553.968,105.9674 C544.434,102.1904 534.882,98.4564 525.318,94.7584" id="Accent" fill="#05e20e"/><path d="M310.3028,54.9624 C320.330685,53.7537462 330.37706,53.6813719 340.407256,54.7595012 L341.6108,54.8944 C353.3858,56.2684 365.2348,56.5394 376.9588,58.3904 C425.0008,65.9754 472.8268,77.4594 519.0558,92.5804 C540.4698,99.5834 563.1958,104.0594 583.7188,113.4884 C592.802994,117.663239 602.823712,121.29302 611.05748,127.09578 L612.225495,127.941275 C614.304891,129.477427 618.407989,132.693608 616.4778,135.3304 C614.745095,137.699309 610.391701,135.624315 608.306535,134.779288 L608.1648,134.7224 C587.3488,126.4644 566.2438,118.9244 544.7158,112.6664 C540.0014,111.296 535.30748,109.83088 530.595128,108.448192 L526.448422,107.258058 C523.895219,106.544357 523.285614,106.518353 521.9898,109.1844 C517.1508,119.1394 514.2138,129.7654 508.6518,139.4554 C531.571017,135.809139 554.997108,136.22244 578.140683,136.947892 L581.2948,137.0484 C604.0328,137.7814 626.6858,141.0764 647.0268,151.8444 C648.9338,145.2144 659.9448,145.7544 658.3388,138.9004 C656.5828,131.4054 653.2058,124.6184 653.4708,116.6334 C653.91091,103.389554 664.8103,95.849258 675.892345,91.0513197 L678.206404,90.0608966 C682.805342,88.127016 689.180767,85.8629574 692.5328,89.5634 C696.0018,93.3924 697.3768,96.9484 702.6598,98.5964 L703.677261,98.9081151 C708.995642,100.500554 715.171588,101.671552 717.7568,95.8614 C720.4588,89.7864 724.6658,86.0374 731.0518,83.7824 C736.6988,81.7874 743.6138,81.6464 748.4578,85.6804 C753.005393,89.4680949 752.345116,92.7590659 748.53089,96.3893213 L747.5923,97.2672293 C744.559463,100.130767 740.810492,104.196708 744.6228,107.7284 C748.8868,111.6784 753.3928,112.3734 755.8528,118.4094 C758.390505,124.636613 756.335573,128.179064 750.843274,130.539363 L750.5658,130.6564 C743.5438,133.5654 746.6988,135.5564 748.7288,141.2964 C750.9498,147.5754 748.1808,153.2594 742.4758,156.3644 C740.5978,157.3864 738.2248,157.7344 736.5568,159.1054 C734.2848,160.9754 733.6748,164.1744 731.4878,166.1764 C722.3078,174.5834 707.2508,169.4344 696.7228,175.0434 C690.9468,178.1204 685.2358,183.7274 678.9348,178.3304 C673.7408,173.8814 674.3148,166.9484 676.0748,161.0154 C671.6458,160.6574 666.9698,162.9664 663.0458,164.7364 C660.6928,165.7974 657.5558,166.6534 655.8708,168.6544 C653.0968,171.9494 651.7788,176.6754 648.8928,180.1464 C645.5428,184.1774 641.8528,187.9074 638.1218,191.5844 L635.450708,194.218131 C622.671194,206.837962 609.724496,220.016487 600.2888,235.3114 C589.3648,253.0184 579.2058,271.1554 573.4548,291.2714 C570.7608,300.6974 569.5728,310.5324 566.4998,319.8474 C565.012903,324.352503 563.533465,327.292404 563.905743,331.928083 L563.9528,332.4314 C564.4908,337.4894 561.8038,336.4244 558.8008,338.9394 C556.4298,340.9254 557.8278,345.0624 557.2518,347.8754 L556.983305,349.210753 C556.390289,352.194236 555.714,355.694933 554.7598,358.3634 C553.8388,360.9364 553.0988,359.7764 551.6378,361.2624 C550.1818,362.7414 551.0158,362.5964 550.6028,364.8154 C550.0368,367.8484 548.6828,368.7674 545.8508,369.3934 C547.7588,371.3374 546.3158,372.0974 545.1008,373.6234 C544.4248,374.4734 543.8178,374.6774 543.4968,375.6484 C543.257229,376.374543 543.866106,377.369706 543.621238,378.155098 L543.590594,378.228301 L543.598106,378.204055 C543.658833,377.790498 541.468616,379.835129 541.444515,379.805245 L541.4768,379.7624 C539.1368,382.4004 535.4708,383.3454 532.8868,385.7074 C530.8438,387.5744 529.4168,390.0934 528.1808,392.5344 C525.1098,398.5954 522.7248,405.1214 520.2748,411.4494 L519.513295,413.41917 C514.92937,425.297752 510.138042,438.229952 508.415197,450.828337 L508.2788,451.8774 C508.0788,453.5004 507.7078,460.0444 510.3458,456.2454 C510.8918,455.4574 510.2828,453.5844 510.5658,452.7044 C510.8888,451.7044 511.5558,451.1184 512.0138,450.2384 C513.1968,447.9694 512.8868,446.2374 513.7388,443.8714 C514.0738,442.9414 515.0218,442.3564 515.2268,441.3104 C515.3728,440.5704 514.4528,439.2204 514.5708,438.8774 C515.1938,437.0704 516.5038,437.9184 516.9918,435.7984 C517.4178,433.9514 516.2888,433.6724 517.0698,431.7794 C517.4858,430.7704 518.9458,431.0514 519.0108,429.8814 C519.0268,429.5684 517.8348,428.2284 517.5568,427.6544 C517.1148,426.7364 516.7348,425.2384 516.5448,424.2264 L519.3378,428.0864 L519.3378,428.0864 C520.1078,425.9884 519.9308,423.6784 520.6218,421.5774 C521.4628,419.0194 523.1288,418.5024 524.5708,416.4484 C524.445258,416.62665 525.278529,414.610836 525.575261,414.072005 L525.6108,414.0104 C527.0218,411.7074 527.8818,411.6304 526.4258,408.7304 C527.2038,408.5494 527.8548,408.7584 528.3778,409.3594 C529.1388,407.9134 531.4678,405.6984 530.0018,403.9434 C533.9838,405.7434 534.9038,400.2344 534.4178,397.7924 L534.068222,396.077703 C533.688039,394.10741 534.163506,394.991106 536.7848,393.1464 L537.101164,392.919327 C537.993948,392.264128 539.224467,391.228178 539.4618,390.2104 C539.6028,389.6024 538.2248,389.6264 538.4588,388.8614 C538.9728,387.1784 540.2308,385.9494 541.2418,384.5164 C545.3638,388.9514 546.8648,395.3734 549.1618,400.8144 C551.8088,407.0844 555.7088,412.8944 559.6378,418.4264 L561.234236,420.669968 C568.551305,430.922348 576.511891,441.524173 586.6128,449.0514 C596.503235,456.422357 608.46691,459.849033 620.069146,463.535671 L621.6488,464.0404 C634.4148,468.1454 647.0758,470.9384 660.4998,471.7094 C673.5868,472.4614 686.8638,471.4874 699.6328,468.4544 C712.1428,465.4834 722.6498,458.6424 734.1848,453.3144 C746.07728,447.82224 758.836986,443.34937 771.419928,439.60825 L772.9918,439.1444 C777.5988,437.7954 780.5458,437.8424 784.3758,440.8884 C789.5098,444.9704 793.9658,450.0244 798.6168,454.6314 L800.986976,456.968417 C810.088421,465.908746 819.33328,474.67756 827.4118,484.5924 C836.3148,495.5194 844.1298,507.2874 853.1538,518.1194 C862.2058,528.9834 851.7758,540.4304 841.9818,545.7934 C837.0728,548.4814 830.8318,550.7714 825.1398,550.5084 C818.4808,550.1994 820.0758,545.2124 816.0598,541.3954 C812.3378,537.8574 807.3788,535.9364 803.6288,532.3984 C798.6988,527.7484 794.7398,522.0994 789.2158,518.0634 C779.0458,510.6334 763.3678,509.5284 751.3558,507.5704 C745.0748,506.5464 737.9918,504.1524 731.6668,504.0164 C726.3668,503.9034 722.0408,510.5154 718.0028,513.4344 C706.7368,521.5794 694.9668,527.6254 681.8268,532.2294 C653.4518,542.1704 620.6228,544.6244 590.7408,543.6794 C560.6848,542.7294 533.6858,534.2094 508.1678,518.4804 C508.1678,544.2554 510.6008,569.7214 516.1058,594.9124 C518.531212,606.011694 521.582008,616.792981 525.050595,627.582241 L526.093626,630.806008 C528.929127,639.658188 531.633713,649.501878 537.9898,656.4864 C532.2698,657.3144 539.6258,676.9874 540.2318,680.0394 C541.184733,684.833 541.680333,689.765107 541.856003,694.657665 L541.912384,696.405277 C542.051063,700.060831 542.4478,706.968591 539.3678,709.2594 C537.3278,710.7764 537.4618,709.5494 535.6298,708.9584 C533.3128,708.2114 531.7458,708.2514 529.1618,708.3434 C523.3958,708.5504 517.6248,708.6404 511.8568,708.8194 C499.5938,709.1994 487.3318,709.6704 475.0728,710.2054 C462.7818,710.7414 450.4998,711.3624 438.2358,712.3564 C431.2248,712.9254 423.4028,715.2264 416.4058,713.8254 C407.100757,711.962096 409.044825,702.488372 409.987597,695.178824 L410.1088,694.1964 C411.3248,683.7784 416.1008,676.4224 424.8988,670.7084 C433.5948,665.0624 442.4218,662.0614 452.6258,660.4714 C462.3878,658.9504 474.1198,659.6564 483.3388,655.8804 C469.2258,639.8314 457.6268,619.8974 447.8768,600.9374 C438.7478,583.1864 432.1848,563.4354 425.6448,544.6014 C418.8508,525.0404 413.4628,504.9174 409.2688,484.6404 C405.236994,465.144428 403.688271,445.716511 403.414199,425.865006 L403.3938,424.1624 C403.2948,414.4004 403.2328,404.4594 404.7608,394.7934 C406.3108,384.9824 409.3258,375.4624 410.7228,365.6214 L409.8153,366.377994 C408.9048,367.133713 407.97855,367.87565 406.9758,368.5034 C405.0338,365.0644 407.3488,362.6094 408.9918,359.7614 C410.7828,356.6564 411.5928,353.2294 412.5848,349.8154 C414.9998,341.5044 418.3938,333.4244 421.8898,325.5174 C428.9058,309.6494 436.9758,294.1184 446.9988,279.9254 C457.1598,265.5384 468.0968,251.5014 479.6688,238.2214 C485.4198,231.6214 491.9358,225.5864 498.6688,219.9974 C504.5068,215.1514 511.1678,211.1074 516.0998,205.2574 C507.8938,204.1174 499.1508,205.1374 490.9258,205.7684 C487.5498,206.0274 484.0978,206.7764 480.7028,206.5804 C477.5498,206.3974 476.5158,204.0694 473.7658,204.0244 C471.0938,203.9814 467.6698,206.4044 465.0708,207.0464 C461.5648,207.9134 458.0078,208.5654 454.4938,209.4024 C446.9428,211.2024 439.5858,213.4574 432.1388,215.6134 C419.0408,219.4044 405.8278,221.9214 392.8868,226.3484 L381.28592,230.325444 C371.61229,233.631931 361.913514,236.8804 352.1178,239.7804 C338.4098,243.8374 324.5468,247.3524 310.7738,251.1764 C306.1238,252.4674 299.8958,253.2204 295.6368,255.5324 C290.6758,258.2264 291.1348,263.7904 290.6278,268.7274 C289.3198,281.4714 285.6248,293.8854 284.9778,306.7554 C284.3938,318.3694 286.0648,330.9244 281.1948,341.8634 C274.7018,356.4494 265.3888,341.3314 262.1248,332.8114 C257.2108,319.9824 256.2598,305.9884 253.9788,292.5564 C251.165217,300.448525 249.412698,308.710424 247.773565,316.946157 L246.037087,325.680375 C244.882857,331.31286 242.943508,338.717262 236.9208,339.9774 C221.5318,343.1994 223.6168,303.5834 222.3418,296.5514 L222.228146,296.84574 C220.251629,302.245805 212.41598,336.19522 203.0168,327.6114 C197.9918,323.0224 197.5878,312.5294 196.3398,306.2624 L196.010542,304.598441 C194.442107,296.608256 193.243994,289.335594 194.0298,281.0154 C195.3798,266.7324 198.9188,252.6914 206.2838,240.2744 C213.6018,227.9344 224.1258,218.9994 235.9728,211.1814 C261.4348,194.3804 290.8158,182.1944 319.7148,172.5654 C335.2798,167.3794 351.3378,164.3334 367.4238,161.2924 C383.5948,158.2354 399.5518,154.0244 415.8498,151.6524 C431.381094,149.391694 447.184333,148.17359 462.825989,146.680832 L465.7568,146.3974 C476.7388,145.3204 496.0308,147.4884 503.4028,137.4544 C482.4368,130.2204 460.2928,127.4974 438.6598,123.0144 C419.324467,119.00665 400.161793,114.086008 380.644578,111.007299 L378.0968,110.6164 C370.7428,109.5204 362.2108,106.8634 354.7658,108.0114 C346.4238,109.2964 342.2848,117.4394 338.7908,124.2794 C335.0628,131.5764 332.3208,139.3484 328.5038,146.5974 L328.041837,147.463775 C325.296219,152.543013 321.211545,158.769364 315.1058,159.5314 C308.2588,160.3864 303.3838,154.4964 302.7168,148.2574 C302.0408,141.9414 304.2498,135.7304 303.9838,129.4284 C298.7348,137.6104 294.2418,154.6654 283.3248,157.0454 C275.3598,158.7824 271.9698,149.0894 271.4378,142.9544 C270.6558,133.9134 275.6308,125.1864 274.2618,116.3114 C271.391022,120.915067 268.718059,125.617338 266.069294,130.341522 L263.8008,134.3944 C261.5468,138.4204 258.9688,142.5454 254.1138,143.5594 C247.1148,145.0214 244.7128,138.3044 243.9598,132.6324 C241.4538,113.7484 248.0098,95.8494 257.8308,79.9294 C268.7098,62.2974 291.0408,57.2854 310.3028,54.9624 Z M499.5648,664.5444 C495.1108,664.0674 490.6918,662.6394 486.1868,663.0854 L485.779176,663.128901 C482.849366,663.464235 478.3978,664.472582 477.6838,667.7734 C477.288757,669.601313 478.586341,672.13281 479.197008,673.891507 L479.2758,674.1264 C479.6498,675.2864 481.6668,679.5504 480.6568,680.7404 C479.406507,682.214059 476.64693,679.60569 475.489452,678.452572 L475.2468,678.2094 C472.5628,675.5144 466.0918,664.2954 462.6968,672.2414 C467.7528,674.0374 472.4868,688.6264 464.3958,683.5404 C460.9038,681.3454 461.0008,677.4784 458.5638,674.5814 C455.3878,670.8044 448.6658,674.1814 444.6338,675.3844 C437.0888,677.6344 428.5318,681.3704 422.5148,686.5514 L422.263851,686.7739 C418.903445,689.834118 411.84815,699.33425 416.2688,703.4624 C418.6788,705.7114 425.8278,703.8264 428.4958,703.3754 L433.543911,702.509919 C436.904356,701.937622 440.263467,701.3994 443.6728,701.0434 C454.9938,699.8604 466.3928,699.6784 477.7658,699.9084 C489.4998,700.1464 501.2188,700.8324 512.9428,701.3254 C518.8778,701.5754 527.0138,704.3244 532.7078,702.3984 C536.5608,701.0944 535.8968,697.6334 535.3598,694.2254 C534.5408,689.0274 533.6798,683.8374 532.7078,678.6644 C532.1198,675.5344 532.3188,668.7904 529.8358,666.4734 C527.4188,664.2184 522.9898,666.1984 520.1158,665.9294 C513.2778,665.2874 506.3948,665.2764 499.5648,664.5444 Z M371.1326,571.6569 L371.657306,571.548624 C373.75379,571.141835 377.152273,570.822655 376.8786,573.8349 C376.6546,576.3079 371.7476,578.1419 370.0376,579.3329 C363.4176,583.9409 360.7986,594.0379 370.4386,596.6499 L370.7824,596.73667 C375.887705,597.936139 388.467782,597.196855 388.1316,589.7559 C387.9796,586.3779 383.4566,584.0909 380.3986,584.4589 C375.4846,585.0509 378.2796,587.6019 378.4166,590.5389 C378.6136,594.7829 374.9236,594.5569 372.6066,592.1199 C370.6086,590.0179 369.5296,586.9579 370.0836,584.0649 C371.4076,577.1539 380.3596,576.7399 385.7106,578.6559 C393.4526,581.4279 393.3996,591.6969 389.4816,597.5849 C385.3026,603.8649 375.5376,606.0279 368.6036,603.9329 C353.3346,599.3179 356.5196,574.8379 371.1326,571.6569 Z M266.8186,436.663 L267.71387,436.613525 C273.702014,436.255492 281.917503,435.35479 285.5146,440.995 C288.6906,436.781 289.8646,443.049 292.0276,439.322 C293.0346,440.207 293.9386,441.622 295.3646,441.9 C296.0466,442.032 296.1176,440.595 296.7596,440.699 C297.6776,440.848 298.1156,441.674 298.9206,441.921 C299.9626,442.241 301.0596,442.261 302.1196,442.566 C306.441567,443.809133 311.381201,447.929421 315.008159,450.399542 L315.3786,450.649 C322.5916,455.445 330.6186,464.141 336.2896,471.735 C357.0046,499.469 347.0366,539.125 320.8436,559.498 C286.9406,585.866 227.1096,581.713 203.9146,542.852 C189.3116,518.384 194.2086,487.577 212.5226,466.471 C217.40097,460.850185 223.116691,455.931335 229.446522,452.010909 L230.1796,451.563 C236.1046,447.992 241.8306,443.375 248.0686,440.412 C251.7816,438.648 255.3476,438.143 259.3646,438.174 L260.647275,438.195741 C261.246458,438.197003 261.644894,438.144059 262.6006,437.86 C264.1876,437.388 265.0286,436.751 266.8186,436.663 Z M269.0006,453.308 C266.620743,455.000321 266.40092,455.854851 263.774554,456.119957 L263.4726,456.147 C260.763029,456.360571 258.556146,456.937148 256.051296,457.811876 L255.4676,458.019 C252.7216,459.009 241.9996,459.341 243.6776,463.536 C241.5586,463.23 240.1566,464.658 238.9036,466.114 C238.0576,467.098 239.2206,467.401 238.9436,467.828 C237.5606,469.97 235.0346,467.719 234.3866,466.582 C232.4676,468.519 234.6586,469.132 233.7976,471.199 C233.3526,472.269 230.9206,473.204 230.0606,473.854 C227.5606,475.746 228.3706,476.37 227.2696,479.233 C226.2796,481.806 224.7826,482.462 222.1786,482.963 C223.7396,487.661 216.6046,485.985 219.1826,491.189 L219.48887,490.261816 C219.832257,489.25268 220.218292,488.315462 220.9706,487.467 C222.9516,489.464 220.8356,494.474 218.2136,491.621 C216.9496,493.879 219.2296,493.979 219.5266,495.821 C219.6726,496.721 218.3866,499.753 218.1646,500.786 C217.7126,502.895 217.1626,505.051 216.1626,506.978 C215.0516,505.54 215.3656,503.916 214.6966,502.33 C211.8886,506.112 216.5646,511.53 217.2786,515.278 L217.982364,519.053773 C218.730226,523.030379 219.5496,526.871286 221.2136,530.837 C223.2616,535.718 226.5276,540.764 230.6356,544.172 C233.2646,546.353 238.8736,548.08 238.8756,552.244 C241.1456,549.752 242.7796,552.995 244.7636,554.15 C247.0316,555.473 249.8736,555.852 252.3316,556.774 C252.9306,556.998 254.8436,558.228 255.1616,558.326 C255.0896,558.304 256.8486,558.371 256.7926,558.344 C258.5716,559.189 259.1336,559.932 260.5066,561.355 L260.789509,560.936006 C261.72546,559.570942 262.625873,558.576727 264.5486,559.604 C266.2436,560.51 265.6316,561.602 266.4766,563.158 L267.307598,562.303783 C268.422379,561.17018 268.680186,561.081 270.5886,560.961 C273.5836,560.773 277.2456,561.784 280.3576,561.926 C288.4266,562.294 295.7726,561.468 303.2446,558.168 C316.2476,552.423 328.5586,541.332 332.4346,527.269 C337.1346,510.218389 333.405888,491.961579 321.158371,478.92721 L320.7646,478.513 C317.8746,475.509 315.8446,472.898 313.5566,469.537 C312.5466,468.054 312.2536,468.088 311.2126,467.217 C310.0606,467.606 309.4676,467.139 309.4346,465.817 C308.3396,465.323 307.2356,464.846 306.1246,464.388 C304.4546,463.681 302.5866,463.133 301.0016,462.238 C300.1416,461.655 299.2936,461.054 298.4586,460.435 C297.5806,460.89 296.7596,460.808 295.9936,460.187 C294.8286,459.584 294.6276,458.72 293.3656,458.179 C291.9816,457.587 290.6716,458.723 290.2156,456.54 C288.6746,458.257 288.5776,456.687 287.3246,456.53 L286.6556,455.268 L286.6556,455.268 C286.1216,455.591 285.5516,455.803 284.9416,455.905 C282.5766,455.854 280.0896,456.055 277.6786,456.008 C276.6516,455.987 275.5396,456.115 274.5596,456.064 C273.9136,456.088 273.3656,455.888 272.9176,455.462 C272.4676,454.891 272.0276,454.974 271.5986,455.71 L271.286893,455.639515 C269.741839,455.322658 269.196933,455.666818 269.0006,453.308 Z M778.0468,445.3974 C770.314615,453.796169 755.588693,454.493489 745.054479,457.421479 L744.076876,457.695629 C739.295485,458.978823 730.216732,460.266603 728.6188,465.5734 C727.0788,470.6894 732.2038,477.7274 732.8668,482.7984 C733.4848,487.5324 731.1518,494.8664 737.3988,496.4084 C741.5358,497.4294 746.4248,496.6524 750.7488,497.4204 L751.189358,497.501869 C754.773229,498.187701 759.72656,499.61284 762.0008,496.1194 C764.6188,492.0974 762.0148,485.7624 766.6088,482.7014 C768.7028,485.1464 770.1448,487.9384 769.7168,491.1674 C769.5218,492.6234 767.8858,494.9424 768.2108,496.4274 C768.9338,499.7334 774.2918,502.1664 776.3108,499.1614 C778.9478,495.2374 777.0848,489.2264 780.8088,485.6034 C785.1048,481.4234 784.5808,490.6464 784.0668,493.0034 C785.1333,492.818257 786.551282,492.926016 786.584855,494.26725 L786.5828,494.4214 L782.7338,494.4214 C785.2118,496.4374 783.7288,496.2754 783.4328,499.0214 C783.2968,500.2964 783.3658,501.9694 784.1048,503.0724 C785.7548,505.5314 790.3968,505.8614 792.7748,507.4014 C799.8508,511.9824 804.3868,520.5314 810.3778,526.3834 C813.3808,529.3154 816.7108,531.5164 820.2528,533.7164 C823.2678,535.5884 826.0948,538.4914 829.4048,539.8134 C835.9948,542.4464 844.3318,536.6564 848.9098,532.3424 C852.7498,528.7254 849.8678,525.9154 847.1338,522.8614 C844.0588,519.4254 841.4488,515.6324 838.4758,512.1124 C831.6628,504.0434 824.3648,496.3524 817.2948,488.5104 C810.5018,480.9754 802.9438,474.2884 795.8678,467.0454 C789.3168,460.3394 784.2928,452.3634 778.0468,445.3974 Z M339.7186,513.143 L339.713816,513.296573 C339.666872,514.252439 339.314115,517.597848 340.4536,517.394 C340.0786,515.751 341.8136,514.329 339.7186,513.143 Z M341.3866,507.376 L339.7086,511.32 C341.987711,510.864889 342.087662,509.91358 341.595722,508.098052 L341.3866,507.376 Z M341.6646,504.585 L338.5626,506.417 C339.2416,507.316 340.2976,507.68 341.3836,507.368 C340.8226,505.685 340.287467,507.078423 341.442826,504.990862 L341.6646,504.585 Z M507.3868,467.1914 C506.5868,469.8904 506.6618,472.5324 506.6618,475.3074 C508.6088,472.6784 507.8068,470.1324 507.3868,467.1914 Z M507.4268,459.7094 L507.4268,465.9754 C508.609485,465.005696 510.484787,459.824419 507.595471,459.710381 L507.4268,459.7094 Z M169.279149,408.966332 L169.10056,408.601624 C167.93053,406.122537 164.308582,396.989941 170.3627,398.772 C174.1927,399.899 176.7437,408.726 178.2537,411.957 L191.9567,405.36 L191.9567,405.36 L192.187408,405.919203 C193.609478,409.308607 195.589279,413.270053 191.4777,415.467 C189.6807,416.427 187.5747,416.568 185.7757,418.238 C180.1877,423.428 191.5227,429.802 189.1677,435.937 C185.3617,445.846 181.7177,430.694 180.1797,427.982 C176.8487,422.104 171.4677,427.281 167.1217,429.148 C159.4417,432.446 159.3997,424.663 164.7027,420.957 C166.8457,419.46 170.9397,418.432 171.6037,415.53 C172.081021,413.452929 170.202111,410.775176 169.279149,408.966332 L169.279149,408.966332 Z M538.604802,399.7804 L538.599774,399.155327 C538.544609,396.103436 537.994065,395.249073 534.9468,396.8694 L535.41598,397.067094 C536.912403,397.709821 537.755709,398.228582 538.604802,399.7804 Z M629.2745,345.4728 C632.5545,344.4968 629.9105,350.5688 630.9805,352.7438 C632.4025,355.6358 636.5225,355.1008 639.2885,356.1078 L639.527543,356.198263 C642.302077,357.286115 647.182729,360.471457 642.2605,362.5678 C638.9405,363.9818 633.2805,361.6418 629.8355,361.3618 C627.1185,361.1418 628.6965,363.9848 629.8445,364.8258 C631.7845,366.2488 634.8575,365.6838 637.0915,366.1308 C644.0935,367.5318 642.4975,372.4228 635.8855,372.1848 L635.368519,372.162419 C629.997941,371.893058 626.450885,370.633446 625.2345,377.0798 L625.171074,377.48344 C624.809829,380.070066 624.020735,389.232918 619.9125,387.4108 C613.0665,384.3748 627.6095,372.5098 618.2635,370.0458 C612.5245,368.5328 613.7005,374.0128 612.7515,377.8198 C611.6325,382.3068 608.5525,383.4148 608.1295,378.1128 C607.8535,374.6428 610.7145,369.7698 607.2505,367.6838 C605.2065,366.4518 597.5965,366.3588 600.4375,362.2408 C602.5045,359.2428 607.8515,362.8568 610.2585,361.1348 C614.0785,358.4008 607.7725,357.6528 606.0995,357.0398 C601.5795,355.3848 603.0005,351.2118 607.4615,351.0028 C609.1465,350.9238 611.1485,351.8688 612.7445,350.9618 C614.3085,350.0738 614.4115,347.8868 615.5925,346.6958 C619.9075,342.3418 618.8565,350.8638 621.4325,352.2628 C626.8335,355.1948 625.8325,346.4968 629.2745,345.4728 Z M733.7142,231.5164 C735.3132,231.2634 734.7892,229.9894 736.6182,230.2714 C737.244867,230.368289 737.692175,230.778067 738.194705,231.117962 L738.3862,231.2414 C739.7732,232.0864 740.9892,233.6264 742.2032,234.6874 C743.3452,235.6864 744.4652,236.4654 745.7082,237.2614 C746.2232,237.5914 747.8082,238.1894 747.8702,238.2134 C747.9932,238.2604 747.7782,239.2844 747.8912,239.3984 C750.1532,238.0364 749.9022,239.4174 751.6702,240.0654 C752.3892,240.3284 754.9152,240.5354 755.3652,241.0774 C757.5432,243.7114 761.7632,244.8864 764.8082,246.2314 C768.3282,247.7864 770.9902,249.3174 774.0422,251.5744 C776.5092,253.3984 778.9712,253.6164 781.7132,254.7294 C784.8752,256.0124 788.0642,258.2184 790.9252,260.0844 C793.8882,262.0174 796.5982,264.3254 799.5502,266.2714 C801.9852,267.8774 804.6382,268.5884 807.1522,270.0234 C809.8932,271.5884 812.9492,273.8064 815.4612,275.7074 C816.3072,276.3464 818.2332,281.3294 818.0292,281.3094 C818.6022,281.3654 819.0072,279.1254 819.0382,279.1334 L819.271373,279.202678 C821.558067,279.921683 827.805586,282.919716 826.1112,285.7334 C830.7422,283.3444 833.9842,288.7924 835.3302,292.4004 C837.1732,297.3464 836.6672,302.0414 833.8742,306.5184 C826.8412,317.7964 817.1142,327.5304 808.7882,337.8334 C800.0712,348.6224 791.2242,359.0844 781.6432,369.1294 C779.2292,371.6584 776.6612,374.0464 774.2952,376.6204 C772.7182,378.3374 771.3362,381.0834 769.4452,382.4774 C766.2302,384.8474 761.7322,382.6034 758.9532,385.9694 C758.2312,383.4544 754.8072,385.3264 752.5902,384.2294 C748.9652,382.4354 745.6832,379.7074 742.0462,377.8134 C733.5182,373.3724 725.0222,369.2124 716.2732,365.2354 C708.9362,361.9004 702.2462,357.4044 694.9892,353.9644 L694.218138,353.605045 C689.538266,351.455901 683.962305,349.3864 681.1022,344.9044 C677.08201,338.603971 681.478835,329.485371 683.701919,323.001472 L683.9132,322.3724 C686.8772,313.3434 691.2712,304.7884 695.4822,296.2924 C704.2252,278.6564 714.4842,261.8464 723.5102,244.3734 C725.054575,241.383525 726.312606,238.223681 727.810852,235.215431 L728.848361,233.198658 C729.295055,232.335538 729.873082,231.345694 730.7242,231.0184 C732.0122,230.5224 732.7292,231.6724 733.7142,231.5164 Z M741.1602,249.5554 C742.8292,259.8394 744.0802,270.1854 745.1012,280.5524 C746.0672,290.3674 748.5282,299.7704 750.1082,309.4774 C751.7052,319.2874 752.8242,328.8724 755.9432,338.3804 C756.4692,339.9844 757.3502,341.5914 757.5032,343.2914 C757.6582,344.9964 756.7322,346.9184 757.2782,348.5724 C757.6732,349.7694 758.8122,350.2724 759.3952,351.3354 C760.3332,353.0464 760.2872,355.0294 760.9132,356.8394 L758.4962,355.7534 L758.4962,355.7534 C757.2882,358.0184 761.4352,358.6004 762.5082,359.6564 C764.5932,361.7064 763.9342,364.1774 764.7342,366.3764 C766.4992,371.2264 771.9662,361.4614 773.7812,359.4164 C785.8352,345.8204 796.3092,331.3704 807.4312,317.0554 C809.8612,313.9294 812.3382,310.9434 814.9712,307.9884 L815.281186,307.649098 C816.933497,305.875744 820.022325,302.986838 820.0842,300.6534 C820.195462,296.461892 808.873793,291.777895 804.94679,289.444066 L804.7682,289.3364 C789.7902,280.1674 773.3502,273.2124 759.0172,263.0314 C755.4442,260.4934 751.8482,257.9164 748.5362,255.0404 C746.4292,253.2104 744.1392,249.9734 741.1602,249.5554 Z M747.7812,363.3984 C748.9622,363.8764 753.2012,357.9394 746.1762,361.4194 C746.5622,362.2014 747.0972,362.8614 747.7812,363.3984 Z M623.3785,362.3778 C624.5095,359.6788 616.3175,358.8408 616.5155,361.5768 C616.6485,363.4078 622.7275,363.9308 623.3785,362.3778 Z M743.5092,355.9764 C748.6652,354.5544 748.9302,348.7174 743.1962,349.2334 C739.0702,349.6054 735.2272,351.8124 731.3192,353.0084 C731.4942,355.0104 733.2942,353.8644 734.3222,354.3874 C734.6242,354.5414 735.1632,354.3384 735.5162,354.5024 C735.9202,354.6914 735.6622,355.6124 735.8862,355.7314 C738.2472,356.9914 740.4472,356.8204 743.5092,355.9764 Z M614.4128,149.6694 C587.2428,143.9114 559.0178,147.4264 531.6618,149.7564 C520.673717,150.692317 509.52514,151.37615 498.551902,152.527318 L495.5638,152.8534 C491.2018,153.3484 487.6598,153.9664 486.4978,158.5994 C485.2218,163.6904 485.8258,169.4364 485.1438,174.6644 C484.4068,180.3134 481.3258,188.3314 482.4108,193.9424 C482.6038,194.9414 483.3898,196.7094 484.0418,197.4614 L484.394614,197.879076 C485.510254,199.237826 484.332449,198.221427 486.5838,198.5164 C489.9908,198.9604 494.5608,197.4814 498.0328,197.1854 C513.1878,195.8904 527.6788,198.1734 542.7118,199.5624 C548.5138,200.0994 554.1468,199.5024 559.8738,199.6414 C564.7298,199.7584 563.6628,203.2914 559.7838,204.6154 C554.4308,206.4424 547.7508,205.9434 542.2618,205.7434 C537.4058,205.5664 529.7478,203.5324 525.3658,206.3844 C520.2318,209.7254 517.1668,217.3234 512.8888,221.7974 L508.779879,226.094199 C505.360637,229.677216 501.961657,233.275686 498.6438,236.9614 C488.6618,248.0524 478.7258,259.6904 469.4878,271.4094 C450.9368,294.9384 435.7168,320.0554 423.9528,347.6464 L428.351695,346.062272 C434.812028,343.743466 441.330244,341.538215 448.1698,340.6794 C457.0418,339.5664 465.9908,340.9264 474.8838,340.2184 C492.4688,338.8154 510.1168,338.7854 527.7108,337.3404 C535.4938,336.7014 542.7388,335.3364 550.2448,333.2354 C557.2368,331.2794 558.3548,327.7224 559.5588,320.9264 C565.1568,289.3374 574.6978,259.5644 591.3238,231.9974 C604.3608,210.3794 622.2858,193.1944 640.8448,176.3464 L641.313139,175.930083 C643.938305,173.636957 648.486624,170.206812 649.4598,166.9494 C650.4568,163.6154 647.6918,161.7204 644.9508,160.1114 C636.1868,154.9634 624.2238,151.7484 614.4128,149.6694 Z M741.0942,335.0034 C738.2112,334.2244 734.6962,336.1574 732.0212,336.8904 C723.8052,339.1424 715.1822,339.5624 706.9592,341.8904 C710.2462,344.3804 713.8672,346.5414 718.0342,347.0994 C722.4732,347.6954 725.9152,345.4134 730.0932,344.4364 C735.1682,343.2504 740.3332,342.5214 745.4592,341.5994 L745.305574,341.142312 C744.467493,338.542653 744.119256,335.821289 741.0942,335.0034 Z M480.8428,157.6584 C481.3748,153.6934 474.3898,155.4704 472.4538,155.8444 C467.3248,156.8334 462.1268,157.1374 456.9308,157.6574 C442.1458,159.1374 427.2848,160.9834 412.6498,163.5644 C383.8838,168.6384 355.2898,175.7684 327.4418,184.5804 C304.896142,191.714584 282.809346,200.429186 261.83959,211.391615 L260.1418,212.2854 C241.3778,222.2344 221.7878,233.1564 210.9398,252.1784 C205.8088,261.1754 202.1828,271.8094 201.2688,282.1534 C200.3638,292.3974 203.3628,302.4654 204.2508,312.6044 L204.287853,313.136666 C204.41976,315.328237 204.610545,320.330272 207.0588,320.2214 C209.346483,320.118668 210.831592,314.868424 211.527037,312.874356 L211.6278,312.5944 C215.34293,302.692487 217.296813,292.283701 221.249986,282.480362 L221.8018,281.1474 C223.5158,277.1114 229.6128,265.6874 230.8578,276.5304 C231.3648,280.9464 230.5108,285.7364 230.4068,290.1504 C230.279689,295.585956 230.385664,301.023091 230.568106,306.455486 L230.6398,308.4924 C230.7518,311.5194 229.1988,331.4004 236.2738,329.4864 C239.624578,328.580493 240.393696,319.640614 240.96184,316.900768 L240.9938,316.7524 C242.0258,312.1532 242.91572,307.52392 243.893448,302.9132 L244.6468,299.4594 C245.4168,296.0444 253.5138,264.0644 259.7398,272.0444 C262.6038,275.7164 262.5058,282.7104 262.6568,287.1074 C262.8438,292.5684 262.5848,298.0484 263.2388,303.4844 C264.5838,314.6674 267.8188,326.1434 274.6438,335.2674 C278.0458,331.0084 277.3208,325.4124 277.2418,320.3514 C277.1488,314.4144 277.7098,308.4794 278.3258,302.5794 C279.6138,290.2324 283.2768,278.2724 284.4178,265.9204 L284.508789,264.843731 C285.190584,256.024513 284.390475,248.058374 293.5338,243.1244 C302.3778,238.3534 313.7398,236.9014 323.4498,234.7464 C346.0228,229.7374 367.7368,222.1304 389.8138,215.3684 C412.5298,208.4124 435.3098,202.2324 458.5288,197.2004 C463.3398,196.1584 468.2088,195.4104 472.9978,194.4064 C476.883191,193.591443 477.383327,191.804827 477.478983,188.307921 L477.4898,187.8204 C477.6698,177.7064 479.4948,167.6934 480.8428,157.6584 Z M736.9482,321.5624 C732.8192,321.2764 728.6462,322.7264 724.6062,323.3794 C718.7712,324.3234 712.7672,325.5494 706.8682,325.9164 C703.1702,326.1474 698.2892,325.1324 694.8072,326.7024 C693.3262,327.3704 691.6042,328.5924 691.5372,330.4894 C691.475662,332.219208 691.911534,331.746722 692.42699,332.226992 L692.4892,332.2894 C695.77808,335.83602 699.784379,333.892994 703.72126,332.911251 L703.9622,332.8524 C710.6492,331.2544 717.4012,329.9494 724.1772,328.7934 C728.7612,328.0114 735.1052,328.2884 739.3362,326.4824 C743.9822,324.5004 740.1362,321.7834 736.9482,321.5624 Z M734.3912,309.6174 C730.5242,309.3004 726.6972,310.5654 722.9402,311.2994 C718.3282,312.2004 713.5952,313.0184 708.8992,313.2834 C706.8612,313.3984 704.8142,313.2584 702.7792,313.4354 C702.3602,313.4724 700.7782,314.7534 700.8212,314.7634 L700.0412,313.9684 L698.3292,313.8004 C701.0682,320.1204 707.0942,316.6144 712.5622,315.4374 C720.9612,313.6284 729.7642,313.8084 738.3102,313.8084 L738.261448,313.168583 C738.027501,310.483684 737.505619,309.872284 734.3912,309.6174 Z M735.8752,296.9264 C734.0572,294.0134 726.2162,297.0594 723.8462,297.6694 C721.1732,298.3564 718.5782,298.6594 715.8202,298.9514 C713.2802,299.2194 707.5032,301.9034 705.3842,300.2894 L702.9992,306.1464 L702.9992,306.1464 C709.083367,304.5064 715.503644,303.662233 721.816746,302.889942 L725.5882,302.4294 C727.3772,302.2084 738.6622,301.3894 735.8752,296.9264 Z M733.5012,285.1164 C733.1922,279.5914 716.2242,287.1934 715.6762,285.1304 C716.2762,287.3954 714.3692,289.1434 713.6522,291.0954 L713.904012,291.118418 C717.543465,291.361807 733.733323,289.250733 733.5012,285.1164 Z M731.0102,270.3794 C731.660586,265.922979 728.295656,267.284904 725.764,267.617601 L724.503048,267.770886 C722.155778,268.085791 721.689075,268.522525 721.3732,272.1634 C721.0102,276.3624 730.4432,274.2634 731.0102,270.3794 Z M730.0862,259.7554 C730.049026,258.644096 728.318929,255.742255 727.491965,257.708062 L727.4382,257.8464 C726.8872,259.2844 726.3032,260.7124 725.6892,262.1244 L725.997323,262.128209 C728.103232,262.177283 730.182502,262.637795 730.0862,259.7554 Z M809.531126,200.463093 L809.5888,200.3934 C813.9308,195.1964 821.5718,196.5094 825.2888,201.9444 C827.7268,205.5104 828.3428,213.6974 834.0218,213.5474 C839.5108,213.4024 841.0828,205.2954 845.7128,203.3054 C848.4068,202.1464 850.8848,202.9214 851.7258,205.9384 C852.9438,210.3014 849.5178,211.0974 846.3968,212.3134 C841.0288,214.4044 838.0248,222.8034 831.6478,220.8474 C824.5128,218.6594 826.2398,210.2654 821.2288,206.3774 C818.6628,204.3854 814.2938,204.7844 811.7738,206.7634 C810.2548,207.9574 808.6708,212.6644 806.2438,212.1374 C801.685994,211.150303 808.095087,202.214684 809.531126,200.463093 L809.531126,200.463093 Z M820.033014,180.023017 L820.1342,179.9684 C824.7902,177.4724 828.8162,178.4584 832.1162,182.5204 L832.482722,182.982854 C835.871849,187.354113 839.536026,194.488667 845.6732,189.4054 C848.0122,187.4684 849.3072,184.2464 852.5242,183.5424 C855.5512,182.8794 858.9202,184.8244 861.6432,185.8204 C865.1022,187.0844 863.7062,191.4764 860.6882,192.0294 C857.5212,192.6104 855.2342,189.6944 851.9512,191.3414 C847.0542,193.7994 846.8292,200.3294 839.9672,199.1264 C833.3312,197.9634 831.9082,190.5044 826.4232,187.7844 C823.694133,186.430133 821.199396,187.098587 818.55442,188.002705 L817.9852,188.1994 C816.6682,188.6584 812.8072,190.5454 811.8272,188.4434 C810.4877,185.572762 818.012446,181.12012 820.033014,180.023017 L820.033014,180.023017 Z M686.0938,96.2534 C681.1458,91.9644 675.0128,99.0764 670.7188,101.7264 C672.6758,104.4724 679.3798,110.0914 676.8778,113.9974 C672.7298,120.4734 665.9098,109.7764 664.0878,106.9954 C662.1818,115.4824 662.7488,124.1714 664.9028,132.5594 C665.6728,135.5554 667.2838,139.0914 666.3408,142.2124 C665.2748,145.7444 662.0468,146.4984 659.1248,148.0964 C656.0128,149.7984 652.9248,151.5434 649.8278,153.2724 C651.6928,155.7934 654.1978,161.8364 657.8108,161.795813 C659.7608,161.7734 662.8758,159.4344 664.6728,158.6624 C667.4618,157.4624 670.2998,156.4354 673.2278,155.6294 C678.501338,154.1774 683.960628,153.081566 689.385442,152.277402 L690.7408,152.0824 C694.0858,151.6164 696.2698,151.8664 697.1928,148.2364 L697.306733,147.77254 C698.104981,144.417847 698.420844,141.086076 701.5418,145.7374 C703.3208,148.3894 704.0128,151.7184 706.1448,154.1534 C707.7508,155.9864 711.4428,157.8994 713.4348,155.3774 C714.8768,153.5544 713.5888,150.6084 712.7418,148.8254 C711.5978,146.4144 709.8568,143.7154 707.7518,142.0194 C706.0518,140.6494 701.6038,140.5504 702.5358,137.7814 C704.2448,132.7044 716.5508,136.0764 719.7218,132.1434 C723.3418,127.6534 720.2848,118.2094 718.9648,113.4164 C718.2948,110.9854 717.7018,108.1834 716.5548,105.9194 C715.127005,103.104855 714.234044,103.517464 710.703441,103.832613 L709.314205,103.949373 C704.405667,104.349706 699.812157,104.564471 694.9548,103.0444 C690.6458,101.6964 689.2918,99.0264 686.0938,96.2534 Z M354.653247,68.2762798 L350.4168,67.8554 C333.4468,66.1834 316.3128,65.4104 299.4138,68.2364 L297.872866,68.4992346 C285.11974,70.7206918 270.431332,74.505413 262.5018,85.3344 C257.151595,92.6411179 253.21501,101.756396 251.526424,110.704365 L250.896524,114.151382 C249.824426,120.08491 248.350042,129.960733 252.5458,133.1434 C255.7178,135.5514 258.9668,132.0854 260.5588,129.4844 C263.5848,124.5424 265.1428,118.8344 268.1938,113.8194 C271.1598,108.9434 274.3008,104.1504 277.4518,99.3914 L277.704004,99.0029364 C279.537622,96.1317347 282.782209,90.2005364 286.1088,89.4684 C294.20997,87.68838 284.788912,109.23376 283.734174,112.479683 L283.336702,113.728303 C281.049193,120.785497 273.50308,143.08852 282.4688,145.5344 C288.9788,147.310121 294.873451,133.902467 297.110288,129.346451 L297.2638,129.0364 C298.8448,125.8734 300.3378,122.6514 301.7468,119.4084 C303.6428,115.0444 306.2928,102.8264 311.3018,100.9714 C318.0538,98.4704 314.2718,114.6234 313.7838,117.0914 C312.707356,122.526956 311.392294,127.927746 310.363257,133.375241 L309.9918,135.4204 C309.2548,139.6534 308.3358,147.3114 314.1228,148.6534 C317.2378,149.3764 319.6798,146.7144 321.3978,144.4824 C326.061967,138.431067 328.482532,130.736046 331.43352,123.731454 L333.031252,119.996045 C337.156183,110.402087 342.309583,99.4859783 353.0888,96.7914 C360.9588,94.8244 369.2658,96.8604 376.9548,98.6864 C384.1418,100.3934 391.3918,101.7764 398.6068,103.3654 C415.2268,107.0254 431.8708,110.5174 448.5058,114.0984 C456.228527,115.761127 463.799188,118.007326 471.505537,119.718287 L473.8218,120.2144 C480.9698,121.6844 488.4648,125.2414 495.8018,125.1834 C500.2298,125.1474 504.5828,126.5594 507.7718,129.7144 L517.7688,104.7684 L517.7688,104.7684 C508.2958,102.5974 499.3018,98.8474 490.0858,95.8344 C482.083646,93.2174769 473.867622,91.1918911 465.73425,88.9962844 L463.7028,88.4434 C445.0358,83.3174 426.0668,79.4724 407.1078,75.5964 C389.689281,72.0352889 372.286195,70.0448225 354.653247,68.2762798 Z M694.1859,111.0018 C697.2549,107.7408 701.8249,107.4728 705.9739,108.2168 C705.5139,111.5528 700.0009,110.0058 698.9979,113.0448 C697.910542,116.340555 701.306644,115.554712 703.331376,115.42923 L703.5629,115.4178 C706.1409,115.3288 710.3659,115.7768 707.2009,118.6918 C704.0909,121.5568 697.3629,121.6368 693.9869,119.3268 C690.8269,117.1638 691.9669,113.3588 694.1859,111.0018 Z" id="Ink" fill="#000000"/></g></svg>